{
.appVersion = "983";
DisplayStrings = (
OAO
);
copyright = "Copyright 2011 The Sigmar One Project Authors (contact@sansoxygen.com)";
customParameters = (
{
name = license;
value = "This Font Software is licensed under the SIL Open Font License, Version 1.1. This license is available with a FAQ at: http://scripts.sil.org/OFL";
},
{
name = licenseURL;
value = "http://scripts.sil.org/OFL";
},
{
name = vendorID;
value = NeWT;
},
{
name = panose;
value = (
0,
0,
5,
0,
0,
0,
0,
0,
0,
0
);
},
{
name = unicodeRanges;
value = (
0,
1,
2,
29
);
},
{
name = codePageRanges;
value = (
1252,
1250,
1254,
1257,
1258
);
},
{
name = glyphOrder;
value = (
.notdef,
NULL,
uni000D,
space,
A,
Aacute,
Abreve,
uni1EAE,
uni1EB6,
uni1EB0,
uni1EB2,
uni1EB4,
Acircumflex,
uni1EA4,
uni1EAC,
uni1EA6,
uni1EA8,
uni1EAA,
uni0200,
Adieresis,
uni1EA0,
Agrave,
uni1EA2,
uni0202,
Amacron,
Aogonek,
Aring,
Aringacute,
Atilde,
AE,
AEacute,
B,
C,
Cacute,
Ccaron,
Ccedilla,
Ccircumflex,
Cdotaccent,
D,
uni01C4,
Eth,
Dcaron,
Dcroat,
uni01C5,
E,
Eacute,
Ebreve,
Ecaron,
Ecircumflex,
uni1EBE,
uni1EC6,
uni1EC0,
uni1EC2,
uni1EC4,
uni0204,
Edieresis,
Edotaccent,
uni1EB8,
Egrave,
uni1EBA,
uni0206,
Emacron,
Eogonek,
uni1EBC,
F,
G,
Gbreve,
Gcaron,
Gcircumflex,
Gcommaaccent,
Gdotaccent,
H,
Hbar,
Hcircumflex,
I,
IJ,
Iacute,
Ibreve,
Icircumflex,
uni0208,
Idieresis,
Idotaccent,
uni1ECA,
Igrave,
uni1EC8,
uni020A,
Imacron,
Iogonek,
Itilde,
J,
Jcircumflex,
K,
Kcommaaccent,
L,
uni01C7,
Lacute,
Lcaron,
Lcommaaccent,
Ldot,
uni01C8,
Lslash,
M,
N,
uni01CA,
Nacute,
Ncaron,
Ncommaaccent,
Eng,
uni01CB,
Ntilde,
O,
Oacute,
Obreve,
Ocircumflex,
uni1ED0,
uni1ED8,
uni1ED2,
uni1ED4,
uni1ED6,
uni020C,
Odieresis,
uni022A,
uni0230,
uni1ECC,
Ograve,
uni1ECE,
Ohorn,
uni1EDA,
uni1EE2,
uni1EDC,
uni1EDE,
uni1EE0,
Ohungarumlaut,
uni020E,
Omacron,
uni01EA,
Oslash,
Oslashacute,
Otilde,
uni022C,
OE,
P,
Thorn,
Q,
R,
Racute,
Rcaron,
Rcommaaccent,
uni0210,
uni0212,
S,
Sacute,
Scaron,
Scedilla,
Scircumflex,
Scommaaccent,
uni1E9E,
uni018F,
T,
Tbar,
Tcaron,

glyphs = (
{
glyphname = A;
lastChange = "2017-06-15 14:20:56 +0000";
layers = (
{
layerId = "CBDECE4A-293B-4E5C-B714-A3FD26C7130D";
paths = (
{
closed = 1;
nodes = (
"65 -1 OFFCURVE",
"73 -1 OFFCURVE",
"78 0 CURVE",
"104 0 LINE SMOOTH",
"127 0 OFFCURVE",
"142 0 OFFCURVE",
"149 1 CURVE",
"158 1 LINE",
"250 1 LINE",
"254 1 LINE SMOOTH",
"258 1 OFFCURVE",
"261 2 OFFCURVE",
"264 3 CURVE",
"279 3 LINE",
"295 3 LINE",
"340 5 LINE",
"342 5 OFFCURVE",
"344 4 OFFCURVE",
"345 3 CURVE",
"347 2 OFFCURVE",
"350 1 OFFCURVE",
"354 1 CURVE SMOOTH",
"358 1 LINE",
"358 1 OFFCURVE",
"359 1 OFFCURVE",
"360 2 CURVE",
"361 2 OFFCURVE",
"362 2 OFFCURVE",
"363 3 CURVE",
"367 4 OFFCURVE",
"370 5 OFFCURVE",
"373 5 CURVE",
"378 16 OFFCURVE",
"385 43 OFFCURVE",
"394 87 CURVE SMOOTH",
"401 119 LINE",
"430 119 LINE",
"461 119 LINE SMOOTH",
"484 119 OFFCURVE",
"502 120 OFFCURVE",
"516 123 CURVE",
"517 119 OFFCURVE",
"519 112 OFFCURVE",
"520 101 CURVE",
"529 57 OFFCURVE",
"538 17 OFFCURVE",
"546 5 CURVE",
"557 5 OFFCURVE",
"573 4 OFFCURVE",
"593 3 CURVE",
"603 3 OFFCURVE",
"610 2 OFFCURVE",
"613 1 CURVE",
"621 1 LINE",
"624 1 LINE SMOOTH",
"625 1 OFFCURVE",
"626 2 OFFCURVE",
"626 3 CURVE",
"627 4 OFFCURVE",
"627 4 OFFCURVE",
"628 5 CURVE",
"628 5 OFFCURVE",
"628 5 OFFCURVE",
"628 5 CURVE",
"632 5 OFFCURVE",
"635 4 OFFCURVE",
"638 3 CURVE",
"638 1 LINE",
"701 1 LINE",
"701 0 OFFCURVE",
"704 0 OFFCURVE",
"709 0 CURVE SMOOTH",
"729 0 LINE",
"754 0 LINE",
"780 0 LINE",
"785 -1 OFFCURVE",
"793 -1 OFFCURVE",
"803 -1 CURVE SMOOTH",
"816 -1 LINE SMOOTH",
"821 -1 OFFCURVE",
"825 1 OFFCURVE",
"828 5 CURVE",
"832 11 OFFCURVE",
"834 19 OFFCURVE",
"834 28 CURVE SMOOTH",
"834 33 OFFCURVE",
"834 36 OFFCURVE",
"833 39 CURVE",
"833 44 OFFCURVE",
"832 51 OFFCURVE",
"831 59 CURVE SMOOTH",
"830 67 OFFCURVE",
"829 73 OFFCURVE",
"828 78 CURVE",
"825 83 OFFCURVE",
"824 87 OFFCURVE",
"824 91 CURVE",
"807 178 OFFCURVE",
"787 261 OFFCURVE",
"766 339 CURVE",
"696 655 LINE",
"696 658 OFFCURVE",
"690 663 OFFCURVE",
"686 666 CURVE",
"683 666 LINE",
"678 665 LINE",
"673 665 OFFCURVE",
"669 666 OFFCURVE",
"665 668 CURVE SMOOTH",
"661 670 OFFCURVE",
"657 671 OFFCURVE",
"653 671 CURVE SMOOTH",
"644 671 OFFCURVE",
"635 670 OFFCURVE",
"626 668 CURVE",
"622 668 OFFCURVE",
"618 668 OFFCURVE",
"613 667 CURVE SMOOTH",
"608 666 OFFCURVE",
"604 666 OFFCURVE",
"599 666 CURVE",
"598 669 OFFCURVE",
"588 669 OFFCURVE",
"584 669 CURVE",
"572 670 OFFCURVE",
"547 671 OFFCURVE",
"510 671 CURVE SMOOTH",
"468 671 LINE",
"434 671 LINE",
"418 671 LINE",
"418 670 OFFCURVE",
"415 670 OFFCURVE",
"410 670 CURVE SMOOTH",
"403 670 OFFCURVE",
"398 670 OFFCURVE",
"393 669 CURVE",
"369 668 LINE",
"346 668 LINE",
"328 668 LINE",
"325 667 OFFCURVE",
"322 666 OFFCURVE",
"319 666 CURVE SMOOTH",
"311 666 OFFCURVE",
"303 666 OFFCURVE",
"296 667 CURVE SMOOTH",
"289 668 OFFCURVE",
"282 668 OFFCURVE",
"276 668 CURVE",
"263 670 OFFCURVE",
"250 671 OFFCURVE",
"235 671 CURVE SMOOTH",
"227 671 OFFCURVE",
"218 670 OFFCURVE",
"208 668 CURVE SMOOTH",
"198 666 OFFCURVE",
"189 665 OFFCURVE",
"181 665 CURVE SMOOTH",
"179 665 OFFCURVE",
"178 665 OFFCURVE",
"178 666 CURVE",
"173 666 LINE",
"168 665 OFFCURVE",
"163 658 OFFCURVE",
"163 655 CURVE",
"93 339 LINE",
"74 268 OFFCURVE",
"54 185 OFFCURVE",
"34 91 CURVE",
"33 88 OFFCURVE",
"33 85 OFFCURVE",
"32 80 CURVE SMOOTH",
"30 70 OFFCURVE",
"24 42 OFFCURVE",
"24 29 CURVE SMOOTH",
"24 24 OFFCURVE",
"24 21 OFFCURVE",
"25 19 CURVE",
"28 6 OFFCURVE",
"34 -1 OFFCURVE",
"43 -1 CURVE SMOOTH",
"55 -1 LINE SMOOTH"
);
},
{
closed = 1;
nodes = (
"503 245 OFFCURVE",
"501 246 OFFCURVE",
"499 247 CURVE",
"496 248 OFFCURVE",
"494 248 OFFCURVE",
"491 248 CURVE",
"487 249 OFFCURVE",
"481 250 OFFCURVE",
"473 250 CURVE SMOOTH",
"471 250 LINE",
"464 248 LINE",
"413 248 LINE",
"421 294 LINE",
"422 303 OFFCURVE",
"424 310 OFFCURVE",
"425 315 CURVE SMOOTH",
"428 330 OFFCURVE",
"429 341 OFFCURVE",
"430 348 CURVE SMOOTH",
"431 355 OFFCURVE",
"436 379 OFFCURVE",
"443 421 CURVE SMOOTH",
"448 449 LINE",
"451 462 OFFCURVE",
"453 474 OFFCURVE",
"454 483 CURVE",
"456 496 LINE",
"456 500 LINE",
"457 501 OFFCURVE",
"458 502 OFFCURVE",
"458 505 CURVE SMOOTH",
"458 508 OFFCURVE",
"458 510 OFFCURVE",
"459 511 CURVE",
"460 505 LINE",
"460 502 OFFCURVE",
"461 499 OFFCURVE",
"463 496 CURVE",
"464 483 LINE",
"466 473 OFFCURVE",
"468 461 OFFCURVE",
"470 448 CURVE",
"470 448 OFFCURVE",
"473 432 OFFCURVE",
"478 400 CURVE SMOOTH",
"489 341 OFFCURVE",
"494 312 OFFCURVE",
"498 293 CURVE",
"498 293 OFFCURVE",
"500 277 OFFCURVE",
"505 244 CURVE"
);
}
);
width = 858;
}
);
note = A;
unicode = 0041;
},
{
glyphname = Aogonek;
lastChange = "2017-06-11 23:28:21 +0000";
layers = (
{
layerId = "CBDECE4A-293B-4E5C-B714-A3FD26C7130D";
paths = (
{
closed = 1;
nodes = (
"846 -154 OFFCURVE",
"817 -160 OFFCURVE",
"790 -160 CURVE SMOOTH",
"781 -160 OFFCURVE",
"775 -160 OFFCURVE",
"770 -161 CURVE",
"762 -164 OFFCURVE",
"752 -159 OFFCURVE",
"749 -158 CURVE",
"734 -154 OFFCURVE",
"726 -146 OFFCURVE",
"726 -126 CURVE SMOOTH",
"726 -118 OFFCURVE",
"730 -106 OFFCURVE",
"739 -90 CURVE SMOOTH",
"752 -67 OFFCURVE",
"766 -49 OFFCURVE",
"785 -33 CURVE",
"816 -1 LINE",
"833 -1 LINE",
"846 -1 LINE SMOOTH",
"851 -1 OFFCURVE",
"855 1 OFFCURVE",
"858 5 CURVE",
"862 11 OFFCURVE",
"864 19 OFFCURVE",
"864 28 CURVE SMOOTH",
"864 33 OFFCURVE",
"864 36 OFFCURVE",
"863 39 CURVE",
"863 44 OFFCURVE",
"862 51 OFFCURVE",
"861 59 CURVE SMOOTH",
"860 67 OFFCURVE",
"859 73 OFFCURVE",
"858 78 CURVE",
"855 83 OFFCURVE",
"854 87 OFFCURVE",
"854 91 CURVE",
"837 178 OFFCURVE",
"817 261 OFFCURVE",
"796 339 CURVE",
"726 655 LINE",
"726 658 OFFCURVE",
"720 663 OFFCURVE",
"716 666 CURVE",
"713 666 LINE",
"708 665 LINE",
"703 665 OFFCURVE",
"699 666 OFFCURVE",
"695 668 CURVE SMOOTH",
"691 670 OFFCURVE",
"687 671 OFFCURVE",
"683 671 CURVE SMOOTH",
"674 671 OFFCURVE",
"665 670 OFFCURVE",
"656 668 CURVE",
"652 668 OFFCURVE",
"648 668 OFFCURVE",
"643 667 CURVE SMOOTH",
"638 666 OFFCURVE",
"634 666 OFFCURVE",
"629 666 CURVE",
"628 669 OFFCURVE",
"618 669 OFFCURVE",
"614 669 CURVE",
"602 670 OFFCURVE",
"577 671 OFFCURVE",
"540 671 CURVE SMOOTH",
"498 671 LINE",
"464 671 LINE",
"448 671 LINE",
"448 670 OFFCURVE",
"445 670 OFFCURVE",
"440 670 CURVE SMOOTH",
"433 670 OFFCURVE",
"428 670 OFFCURVE",
"423 669 CURVE",
"399 668 LINE",
"376 668 LINE",
"358 668 LINE",
"355 667 OFFCURVE",
"352 666 OFFCURVE",
"349 666 CURVE SMOOTH",
"341 666 OFFCURVE",
"333 666 OFFCURVE",
"326 667 CURVE SMOOTH",
"319 668 OFFCURVE",
"312 668 OFFCURVE",
"306 668 CURVE",
"293 670 OFFCURVE",
"280 671 OFFCURVE",
"265 671 CURVE SMOOTH",
"257 671 OFFCURVE",
"248 670 OFFCURVE",
"238 668 CURVE SMOOTH",
"228 666 OFFCURVE",
"219 665 OFFCURVE",
"211 665 CURVE SMOOTH",
"209 665 OFFCURVE",
"208 665 OFFCURVE",
"208 666 CURVE",
"203 666 LINE",
"198 665 OFFCURVE",
"193 658 OFFCURVE",
"193 655 CURVE",
"123 339 LINE",
"104 268 OFFCURVE",
"84 185 OFFCURVE",
"64 91 CURVE",
"63 88 OFFCURVE",
"63 85 OFFCURVE",
"62 80 CURVE SMOOTH",
"60 70 OFFCURVE",
"54 42 OFFCURVE",
"54 29 CURVE SMOOTH",
"54 24 OFFCURVE",
"54 21 OFFCURVE",
"55 19 CURVE",
"58 6 OFFCURVE",
"64 -1 OFFCURVE",
"73 -1 CURVE SMOOTH",
"85 -1 LINE SMOOTH",
"95 -1 OFFCURVE",
"103 -1 OFFCURVE",
"108 0 CURVE",
"134 0 LINE SMOOTH",
"157 0 OFFCURVE",
"172 0 OFFCURVE",
"179 1 CURVE",
"188 1 LINE",
"280 1 LINE",
"284 1 LINE SMOOTH",
"288 1 OFFCURVE",
"291 2 OFFCURVE",
"294 3 CURVE",
"309 3 LINE",
"325 3 LINE",
"370 5 LINE",
"372 5 OFFCURVE",
"374 4 OFFCURVE",
"375 3 CURVE",
"377 2 OFFCURVE",
"380 1 OFFCURVE",
"384 1 CURVE SMOOTH",
"388 1 LINE",
"388 1 OFFCURVE",
"389 1 OFFCURVE",
"390 2 CURVE",
"391 2 OFFCURVE",
"392 2 OFFCURVE",
"393 3 CURVE",
"397 4 OFFCURVE",
"400 5 OFFCURVE",
"403 5 CURVE",
"408 16 OFFCURVE",
"415 43 OFFCURVE",
"424 87 CURVE SMOOTH",
"431 119 LINE",
"460 119 LINE",
"491 119 LINE SMOOTH",
"514 119 OFFCURVE",
"532 120 OFFCURVE",
"546 123 CURVE",
"547 119 OFFCURVE",
"549 112 OFFCURVE",
"550 101 CURVE",
"559 57 OFFCURVE",
"568 17 OFFCURVE",
"576 5 CURVE",
"587 5 OFFCURVE",
"603 4 OFFCURVE",
"623 3 CURVE",
"633 3 OFFCURVE",
"640 2 OFFCURVE",
"643 1 CURVE",
"651 1 LINE",
"654 1 LINE SMOOTH",
"655 1 OFFCURVE",
"656 2 OFFCURVE",
"656 3 CURVE",
"657 4 OFFCURVE",
"657 4 OFFCURVE",
"658 5 CURVE",
"658 5 OFFCURVE",
"658 5 OFFCURVE",
"658 5 CURVE",
"662 5 LINE",
"639 -10 LINE SMOOTH",
"636 -12 OFFCURVE",
"630 -15 OFFCURVE",
"623 -19 CURVE",
"615 -24 OFFCURVE",
"609 -28 OFFCURVE",
"604 -33 CURVE",
"548 -70 OFFCURVE",
"521 -103 OFFCURVE",
"521 -163 CURVE SMOOTH",
"521 -175 OFFCURVE",
"523 -186 OFFCURVE",
"526 -195 CURVE",
"537 -220 OFFCURVE",
"560 -240 OFFCURVE",
"597 -253 CURVE SMOOTH",
"636 -268 OFFCURVE",
"691 -276 OFFCURVE",
"764 -276 CURVE",
"774 -274 LINE",
"776 -273 OFFCURVE",
"779 -273 OFFCURVE",
"782 -273 CURVE SMOOTH",
"785 -273 OFFCURVE",
"789 -272 OFFCURVE",
"794 -271 CURVE",
"805 -270 OFFCURVE",
"821 -265 OFFCURVE",
"841 -258 CURVE",
"854 -251 OFFCURVE",
"866 -245 OFFCURVE",
"867 -240 CURVE SMOOTH",
"884 -158 LINE",
"884 -153 LINE SMOOTH",
"884 -148 OFFCURVE",
"882 -145 OFFCURVE",
"877 -143 CURVE"
);
},
{
closed = 1;
nodes = (
"517 249 OFFCURVE",
"511 250 OFFCURVE",
"503 250 CURVE SMOOTH",
"501 250 LINE",
"494 248 LINE",
"443 248 LINE",
"451 294 LINE",
"452 303 OFFCURVE",
"454 310 OFFCURVE",
"455 315 CURVE SMOOTH",
"458 330 OFFCURVE",
"459 341 OFFCURVE",
"460 348 CURVE SMOOTH",
"461 355 OFFCURVE",
"466 379 OFFCURVE",
"473 421 CURVE SMOOTH",
"478 449 LINE",
"481 462 OFFCURVE",
"483 474 OFFCURVE",
"484 483 CURVE",
"486 496 LINE",
"486 500 LINE",
"487 501 OFFCURVE",
"488 502 OFFCURVE",
"488 505 CURVE SMOOTH",
"488 508 OFFCURVE",
"488 510 OFFCURVE",
"489 511 CURVE",
"490 505 LINE",
"490 502 OFFCURVE",
"491 499 OFFCURVE",
"493 496 CURVE",
"494 483 LINE",
"496 473 OFFCURVE",
"498 461 OFFCURVE",
"500 448 CURVE",
"500 448 OFFCURVE",
"503 432 OFFCURVE",
"508 400 CURVE SMOOTH",
"519 341 OFFCURVE",
"524 312 OFFCURVE",
"528 293 CURVE",
"528 293 OFFCURVE",
"530 277 OFFCURVE",
"535 244 CURVE",
"533 245 OFFCURVE",
"531 246 OFFCURVE",
"529 247 CURVE",
"526 248 OFFCURVE",
"524 248 OFFCURVE",
"521 248 CURVE"
);
}
);
width = 918;
}
);
note = Aogonek;
unicode = 0104;
},
{
glyphname = Aringacute;
lastChange = "2017-06-11 23:28:21 +0000";
layers = (
{
layerId = "CBDECE4A-293B-4E5C-B714-A3FD26C7130D";
paths = (
{
closed = 1;
nodes = (
"704 903 OFFCURVE",
"710 903 OFFCURVE",
"713 904 CURVE SMOOTH",
"716 905 OFFCURVE",
"720 905 OFFCURVE",
"723 905 CURVE",
"726 904 OFFCURVE",
"728 904 OFFCURVE",
"730 904 CURVE SMOOTH",
"748 904 LINE",
"750 905 LINE",
"754 903 LINE",
"757 904 OFFCURVE",
"761 904 OFFCURVE",
"766 904 CURVE SMOOTH",
"778 904 LINE SMOOTH",
"780 904 OFFCURVE",
"783 907 OFFCURVE",
"788 913 CURVE",
"797 935 OFFCURVE",
"804 952 OFFCURVE",
"808 963 CURVE",
"809 968 OFFCURVE",
"810 972 OFFCURVE",
"812 977 CURVE",
"814 981 OFFCURVE",
"815 984 OFFCURVE",
"816 986 CURVE SMOOTH",
"819 992 OFFCURVE",
"824 1005 OFFCURVE",
"833 1025 CURVE",
"836 1033 OFFCURVE",
"841 1051 OFFCURVE",
"849 1063 CURVE SMOOTH",
"851 1066 OFFCURVE",
"853 1068 OFFCURVE",
"854 1071 CURVE",
"855 1073 OFFCURVE",
"856 1075 OFFCURVE",
"858 1078 CURVE",
"859 1081 OFFCURVE",
"861 1083 OFFCURVE",
"862 1086 CURVE SMOOTH",
"863 1089 OFFCURVE",
"864 1091 OFFCURVE",
"865 1094 CURVE",
"870 1103 OFFCURVE",
"872 1109 OFFCURVE",
"873 1111 CURVE",
"878 1122 OFFCURVE",
"882 1131 OFFCURVE",
"886 1138 CURVE SMOOTH",
"893 1150 OFFCURVE",
"882 1152 OFFCURVE",
"875 1153 CURVE",
"871 1154 OFFCURVE",
"868 1154 OFFCURVE",
"865 1155 CURVE",
"863 1155 LINE",
"863 1154 OFFCURVE",
"862 1154 OFFCURVE",
"860 1154 CURVE",
"856 1156 LINE",
"829 1158 LINE",
"825 1158 LINE",
"823 1159 LINE",
"815 1159 LINE SMOOTH",
"812 1159 OFFCURVE",
"810 1159 OFFCURVE",
"809 1158 CURVE",
"805 1160 LINE",
"771 1159 LINE",
"731 1158 LINE",
"704 1154 LINE",
"700 1149 LINE",
"695 1124 OFFCURVE",
"690 1092 OFFCURVE",
"685 1053 CURVE",
"685 1020 LINE SMOOTH",
"685 1015 OFFCURVE",
"685 1009 OFFCURVE",
"684 1004 CURVE SMOOTH",
"683 998 OFFCURVE",
"683 993 OFFCURVE",
"683 988 CURVE SMOOTH",
"682 944 LINE SMOOTH",
"682 935 OFFCURVE",
"682 928 OFFCURVE",
"683 923 CURVE",
"684 910 OFFCURVE",
"687 903 OFFCURVE",
"696 903 CURVE SMOOTH"
);
},
{
closed = 1;
nodes = (
"492 713 OFFCURVE",
"513 713 OFFCURVE",
"545 721 CURVE SMOOTH",
"580 730 OFFCURVE",
"606 748 OFFCURVE",
"623 773 CURVE",
"628 774 LINE",
"652 807 OFFCURVE",
"664 852 OFFCURVE",
"664 895 CURVE SMOOTH",
"664 975 OFFCURVE",
"643 1014 OFFCURVE",
"574 1063 CURVE",
"542 1079 OFFCURVE",
"495 1083 OFFCURVE",
"448 1083 CURVE SMOOTH",
"445 1083 OFFCURVE",
"444 1082 OFFCURVE",
"444 1081 CURVE",
"440 1082 OFFCURVE",
"433 1083 OFFCURVE",
"423 1083 CURVE SMOOTH",
"377 1083 OFFCURVE",
"339 1062 OFFCURVE",
"309 1020 CURVE SMOOTH",
"282 983 OFFCURVE",
"268 935 OFFCURVE",
"268 890 CURVE SMOOTH",
"268 859 OFFCURVE",
"273 831 OFFCURVE",
"283 808 CURVE SMOOTH",
"312 740 OFFCURVE",
"371 713 OFFCURVE",
"440 713 CURVE SMOOTH"
);
},
{
closed = 1;
nodes = (
"443 828 OFFCURVE",
"433 830 OFFCURVE",
"424 835 CURVE SMOOTH",
"408 844 OFFCURVE",
"398 857 OFFCURVE",
"398 868 CURVE SMOOTH",
"398 870 OFFCURVE",
"398 872 OFFCURVE",
"397 873 CURVE SMOOTH",
"396 874 OFFCURVE",
"396 875 OFFCURVE",
"395 875 CURVE",
"395 881 LINE",
"395 886 LINE SMOOTH",
"395 921 OFFCURVE",
"403 946 OFFCURVE",
"418 960 CURVE",
"428 972 OFFCURVE",
"441 978 OFFCURVE",
"456 978 CURVE SMOOTH",
"470 978 OFFCURVE",
"483 976 OFFCURVE",
"495 973 CURVE SMOOTH",
"530 965 OFFCURVE",
"545 932 OFFCURVE",
"545 919 CURVE SMOOTH",
"545 915 LINE SMOOTH",
"545 907 OFFCURVE",
"543 898 OFFCURVE",
"540 888 CURVE SMOOTH",
"536 873 OFFCURVE",
"527 859 OFFCURVE",
"514 848 CURVE",
"502 835 OFFCURVE",
"483 828 OFFCURVE",
"456 828 CURVE SMOOTH"
);
},
{
closed = 1;
nodes = (
"95 -1 OFFCURVE",
"103 -1 OFFCURVE",
"108 0 CURVE",
"134 0 LINE SMOOTH",
"157 0 OFFCURVE",
"172 0 OFFCURVE",
"179 1 CURVE",
"188 1 LINE",
"280 1 LINE",
"284 1 LINE SMOOTH",
"288 1 OFFCURVE",
"291 2 OFFCURVE",
"294 3 CURVE",
"309 3 LINE",
"325 3 LINE",
"370 5 LINE",
"372 5 OFFCURVE",
"374 4 OFFCURVE",
"375 3 CURVE",
"377 2 OFFCURVE",
"380 1 OFFCURVE",
"384 1 CURVE SMOOTH",
"388 1 LINE",
"388 1 OFFCURVE",
"389 1 OFFCURVE",
"390 2 CURVE",
"391 2 OFFCURVE",
"392 2 OFFCURVE",
"393 3 CURVE",
"397 4 OFFCURVE",
"400 5 OFFCURVE",
"403 5 CURVE",
"408 16 OFFCURVE",
"415 43 OFFCURVE",
"424 87 CURVE SMOOTH",
"431 119 LINE",
"460 119 LINE",
"491 119 LINE SMOOTH",
"514 119 OFFCURVE",
"532 120 OFFCURVE",
"546 123 CURVE",
"547 119 OFFCURVE",
"549 112 OFFCURVE",
"550 101 CURVE",
"559 57 OFFCURVE",
"568 17 OFFCURVE",
"576 5 CURVE",
"587 5 OFFCURVE",
"603 4 OFFCURVE",
"623 3 CURVE",
"633 3 OFFCURVE",
"640 2 OFFCURVE",
"643 1 CURVE",
"651 1 LINE",
"654 1 LINE SMOOTH",
"655 1 OFFCURVE",
"656 2 OFFCURVE",
"656 3 CURVE",
"657 4 OFFCURVE",
"657 4 OFFCURVE",
"658 5 CURVE",
"658 5 OFFCURVE",
"658 5 OFFCURVE",
"658 5 CURVE",
"662 5 OFFCURVE",
"665 4 OFFCURVE",
"668 3 CURVE",
"668 1 LINE",
"731 1 LINE",
"731 0 OFFCURVE",
"734 0 OFFCURVE",
"739 0 CURVE SMOOTH",
"759 0 LINE",
"784 0 LINE",
"810 0 LINE",
"815 -1 OFFCURVE",
"823 -1 OFFCURVE",
"833 -1 CURVE SMOOTH",
"846 -1 LINE SMOOTH",
"851 -1 OFFCURVE",
"855 1 OFFCURVE",
"858 5 CURVE",
"862 11 OFFCURVE",
"864 19 OFFCURVE",
"864 28 CURVE SMOOTH",
"864 33 OFFCURVE",
"864 36 OFFCURVE",
"863 39 CURVE",
"863 44 OFFCURVE",
"862 51 OFFCURVE",
"861 59 CURVE SMOOTH",
"860 67 OFFCURVE",
"859 73 OFFCURVE",
"858 78 CURVE",
"855 83 OFFCURVE",
"854 87 OFFCURVE",
"854 91 CURVE",
"837 178 OFFCURVE",
"817 261 OFFCURVE",
"796 339 CURVE",
"726 655 LINE",
"726 658 OFFCURVE",
"720 663 OFFCURVE",
"716 666 CURVE",
"713 666 LINE",
"708 665 LINE",
"703 665 OFFCURVE",
"699 666 OFFCURVE",
"695 668 CURVE SMOOTH",
"691 670 OFFCURVE",
"687 671 OFFCURVE",
"683 671 CURVE SMOOTH",
"674 671 OFFCURVE",
"665 670 OFFCURVE",
"656 668 CURVE",
"652 668 OFFCURVE",
"648 668 OFFCURVE",
"643 667 CURVE SMOOTH",
"638 666 OFFCURVE",
"634 666 OFFCURVE",
"629 666 CURVE",
"628 669 OFFCURVE",
"618 669 OFFCURVE",
"614 669 CURVE",
"602 670 OFFCURVE",
"577 671 OFFCURVE",
"540 671 CURVE SMOOTH",
"498 671 LINE",
"464 671 LINE",
"448 671 LINE",
"448 670 OFFCURVE",
"445 670 OFFCURVE",
"440 670 CURVE SMOOTH",
"433 670 OFFCURVE",
"428 670 OFFCURVE",
"423 669 CURVE",
"399 668 LINE",
"376 668 LINE",
"358 668 LINE",
"355 667 OFFCURVE",
"352 666 OFFCURVE",
"349 666 CURVE SMOOTH",
"341 666 OFFCURVE",
"333 666 OFFCURVE",
"326 667 CURVE SMOOTH",
"319 668 OFFCURVE",
"312 668 OFFCURVE",
"306 668 CURVE",
"293 670 OFFCURVE",
"280 671 OFFCURVE",
"265 671 CURVE SMOOTH",
"257 671 OFFCURVE",
"248 670 OFFCURVE",
"238 668 CURVE SMOOTH",
"228 666 OFFCURVE",
"219 665 OFFCURVE",
"211 665 CURVE SMOOTH",
"209 665 OFFCURVE",
"208 665 OFFCURVE",
"208 666 CURVE",
"203 666 LINE",
"198 665 OFFCURVE",
"193 658 OFFCURVE",
"193 655 CURVE",
"123 339 LINE",
"104 268 OFFCURVE",
"84 185 OFFCURVE",
"64 91 CURVE",
"63 88 OFFCURVE",
"63 85 OFFCURVE",
"62 80 CURVE SMOOTH",
"60 70 OFFCURVE",
"54 42 OFFCURVE",
"54 29 CURVE SMOOTH",
"54 24 OFFCURVE",
"54 21 OFFCURVE",
"55 19 CURVE",
"58 6 OFFCURVE",
"64 -1 OFFCURVE",
"73 -1 CURVE SMOOTH",
"85 -1 LINE SMOOTH"
);
},
{
closed = 1;
nodes = (
"533 245 OFFCURVE",
"531 246 OFFCURVE",
"529 247 CURVE",
"526 248 OFFCURVE",
"524 248 OFFCURVE",
"521 248 CURVE",
"517 249 OFFCURVE",
"511 250 OFFCURVE",
"503 250 CURVE SMOOTH",
"501 250 LINE",
"494 248 LINE",
"443 248 LINE",
"451 294 LINE",
"452 303 OFFCURVE",
"454 310 OFFCURVE",
"455 315 CURVE SMOOTH",
"458 330 OFFCURVE",
"459 341 OFFCURVE",
"460 348 CURVE SMOOTH",
"461 355 OFFCURVE",
"466 379 OFFCURVE",
"473 421 CURVE SMOOTH",
"478 449 LINE",
"481 462 OFFCURVE",
"483 474 OFFCURVE",
"484 483 CURVE",
"486 496 LINE",
"486 500 LINE",
"487 501 OFFCURVE",
"488 502 OFFCURVE",
"488 505 CURVE SMOOTH",
"488 508 OFFCURVE",
"488 510 OFFCURVE",
"489 511 CURVE",
"490 505 LINE",
"490 502 OFFCURVE",
"491 499 OFFCURVE",
"493 496 CURVE",
"494 483 LINE",
"496 473 OFFCURVE",
"498 461 OFFCURVE",
"500 448 CURVE",
"500 448 OFFCURVE",
"503 432 OFFCURVE",
"508 400 CURVE SMOOTH",
"519 341 OFFCURVE",
"524 312 OFFCURVE",
"528 293 CURVE",
"528 293 OFFCURVE",
"530 277 OFFCURVE",
"535 244 CURVE"
);
}
);
width = 918;
}
);
note = Aringacute;
unicode = 01FA;
},
{
glyphname = AE;
lastChange = "2017-06-11 23:28:21 +0000";
layers = (
{
layerId = "CBDECE4A-293B-4E5C-B714-A3FD26C7130D";
paths = (
{
closed = 1;
nodes = (
"87 -1 OFFCURVE",
"94 -1 OFFCURVE",
"99 0 CURVE",
"125 0 LINE SMOOTH",
"148 0 OFFCURVE",
"163 0 OFFCURVE",
"170 1 CURVE",
"179 1 LINE",
"271 1 LINE",
"275 1 LINE SMOOTH",
"279 1 OFFCURVE",
"283 2 OFFCURVE",
"286 3 CURVE",
"300 3 LINE",
"318 3 LINE",
"363 5 LINE",
"368 3 LINE",
"369 2 OFFCURVE",
"371 1 OFFCURVE",
"375 1 CURVE SMOOTH",
"378 1 LINE SMOOTH",
"380 1 OFFCURVE",
"382 2 OFFCURVE",
"385 3 CURVE",
"394 5 LINE",
"400 12 OFFCURVE",
"407 25 OFFCURVE",
"415 42 CURVE SMOOTH",
"423 59 OFFCURVE",
"434 84 OFFCURVE",
"449 119 CURVE",
"504 119 LINE",
"521 118 OFFCURVE",
"538 120 OFFCURVE",
"555 123 CURVE",
"554 104 OFFCURVE",
"554 79 OFFCURVE",
"554 48 CURVE SMOOTH",
"554 27 OFFCURVE",
"555 12 OFFCURVE",
"558 5 CURVE",
"569 5 OFFCURVE",
"585 4 OFFCURVE",
"605 3 CURVE",
"614 3 OFFCURVE",
"621 2 OFFCURVE",
"625 1 CURVE",
"633 1 LINE",
"636 1 LINE SMOOTH",
"637 1 OFFCURVE",
"637 1 OFFCURVE",
"638 2 CURVE",
"638 3 OFFCURVE",
"638 3 OFFCURVE",
"639 3 CURVE SMOOTH",
"650 3 LINE",
"650 1 LINE",
"658 1 LINE",
"662 0 OFFCURVE",
"666 0 OFFCURVE",
"671 0 CURVE SMOOTH",
"738 0 LINE",
"791 0 LINE",
"796 -1 OFFCURVE",
"804 -1 OFFCURVE",
"813 -1 CURVE SMOOTH",
"828 -1 LINE",
"834 0 LINE",
"869 0 OFFCURVE",
"895 0 OFFCURVE",
"913 1 CURVE",
"988 1 LINE SMOOTH",
"1016 1 OFFCURVE",
"1036 2 OFFCURVE",
"1049 3 CURVE",
"1074 4 OFFCURVE",
"1095 5 OFFCURVE",
"1110 5 CURVE SMOOTH",
"1123 5 OFFCURVE",
"1130 12 OFFCURVE",
"1130 26 CURVE",
"1129 41 LINE",
"1126 69 LINE",
"1123 91 LINE SMOOTH",
"1121 110 OFFCURVE",
"1118 125 OFFCURVE",
"1115 136 CURVE SMOOTH",
"1113 143 LINE",
"1016 143 LINE",
"919 143 LINE",
"919 160 OFFCURVE",
"919 171 OFFCURVE",
"920 178 CURVE",
"922 185 OFFCURVE",
"923 197 OFFCURVE",
"923 213 CURVE SMOOTH",
"923 228 OFFCURVE",
"924 238 OFFCURVE",
"926 243 CURVE",
"927 248 OFFCURVE",
"931 251 OFFCURVE",
"938 253 CURVE",
"943 254 OFFCURVE",
"955 254 OFFCURVE",
"974 254 CURVE",
"985 253 OFFCURVE",
"1007 253 OFFCURVE",
"1041 253 CURVE SMOOTH",
"1080 253 OFFCURVE",
"1106 255 OFFCURVE",
"1121 258 CURVE",
"1146 260 OFFCURVE",
"1158 267 OFFCURVE",
"1158 278 CURVE SMOOTH",
"1158 281 LINE",
"1153 370 LINE",
"1148 383 LINE",
"1145 387 OFFCURVE",
"1140 390 OFFCURVE",
"1133 393 CURVE",
"1119 393 LINE",
"1086 396 OFFCURVE",
"1056 398 OFFCURVE",
"1031 398 CURVE SMOOTH",
"941 398 LINE SMOOTH",
"929 398 OFFCURVE",
"926 401 OFFCURVE",
"926 418 CURVE SMOOTH",
"926 427 OFFCURVE",
"927 435 OFFCURVE",
"928 443 CURVE",
"929 466 OFFCURVE",
"933 486 OFFCURVE",
"938 503 CURVE",
"939 510 OFFCURVE",
"942 515 OFFCURVE",
"945 515 CURVE SMOOTH",
"988 515 OFFCURVE",
"1021 515 OFFCURVE",
"1043 516 CURVE",
"1138 516 LINE",
"1145 516 LINE",
"1148 515 OFFCURVE",
"1150 518 OFFCURVE",
"1151 525 CURVE",
"1151 543 LINE",
"1150 548 OFFCURVE",
"1149 555 OFFCURVE",
"1148 564 CURVE SMOOTH",
"1147 572 OFFCURVE",
"1146 579 OFFCURVE",
"1145 585 CURVE",
"1143 616 OFFCURVE",
"1139 640 OFFCURVE",
"1134 658 CURVE",
"1131 665 OFFCURVE",
"1127 669 OFFCURVE",
"1123 669 CURVE",
"1090 672 OFFCURVE",
"1054 674 OFFCURVE",
"1015 674 CURVE",
"1001 675 OFFCURVE",
"981 675 OFFCURVE",
"954 675 CURVE SMOOTH",
"925 675 OFFCURVE",
"881 674 OFFCURVE",
"824 673 CURVE SMOOTH",
"796 672 OFFCURVE",
"775 671 OFFCURVE",
"760 671 CURVE SMOOTH",
"728 670 LINE",
"711 671 OFFCURVE",
"681 671 OFFCURVE",
"638 671 CURVE SMOOTH",
"600 671 LINE",
"580 671 LINE",
"580 670 OFFCURVE",
"578 670 OFFCURVE",
"575 670 CURVE SMOOTH",
"569 670 OFFCURVE",
"564 670 OFFCURVE",
"561 669 CURVE",
"543 668 LINE",
"523 668 LINE",
"508 668 LINE",
"505 667 OFFCURVE",
"502 666 OFFCURVE",
"500 666 CURVE SMOOTH",
"493 666 OFFCURVE",
"486 666 OFFCURVE",
"479 667 CURVE SMOOTH",
"472 668 OFFCURVE",
"465 668 OFFCURVE",
"458 668 CURVE",
"445 670 OFFCURVE",
"431 671 OFFCURVE",
"418 671 CURVE SMOOTH",
"408 671 OFFCURVE",
"398 670 OFFCURVE",
"389 668 CURVE SMOOTH",
"379 666 OFFCURVE",
"370 665 OFFCURVE",
"363 665 CURVE SMOOTH",
"360 665 OFFCURVE",
"358 665 OFFCURVE",
"358 666 CURVE",
"354 666 LINE",
"349 665 OFFCURVE",
"341 658 OFFCURVE",
"341 655 CURVE",
"190 339 LINE SMOOTH",
"150 256 OFFCURVE",
"112 173 OFFCURVE",
"76 91 CURVE",
"75 86 OFFCURVE",
"73 82 OFFCURVE",
"70 78 CURVE",
"67 69 OFFCURVE",
"64 62 OFFCURVE",
"63 59 CURVE SMOOTH",
"56 40 OFFCURVE",
"52 27 OFFCURVE",
"51 19 CURVE",
"50 6 OFFCURVE",
"54 -1 OFFCURVE",
"63 -1 CURVE SMOOTH",
"78 -1 LINE SMOOTH"
);
},
{
closed = 1;
nodes = (
"564 247 OFFCURVE",
"551 248 OFFCURVE",
"531 248 CURVE SMOOTH",
"490 248 LINE",
"501 275 OFFCURVE",
"507 291 OFFCURVE",
"508 294 CURVE",
"510 303 OFFCURVE",
"513 312 OFFCURVE",
"517 323 CURVE SMOOTH",
"521 334 OFFCURVE",
"524 342 OFFCURVE",
"526 348 CURVE",
"535 372 OFFCURVE",
"542 390 OFFCURVE",
"546 403 CURVE",
"548 408 OFFCURVE",
"554 423 OFFCURVE",
"563 449 CURVE",
"565 454 OFFCURVE",
"567 460 OFFCURVE",
"569 466 CURVE",
"570 471 OFFCURVE",
"572 477 OFFCURVE",
"575 483 CURVE",
"576 486 OFFCURVE",
"577 489 OFFCURVE",
"578 492 CURVE",
"579 494 OFFCURVE",
"579 495 OFFCURVE",
"579 496 CURVE",
"581 500 LINE SMOOTH",
"582 502 OFFCURVE",
"583 504 OFFCURVE",
"584 506 CURVE",
"584 507 OFFCURVE",
"584 509 OFFCURVE",
"585 511 CURVE",
"585 505 LINE",
"585 500 LINE",
"585 496 LINE",
"584 483 LINE",
"583 448 LINE SMOOTH",
"583 443 OFFCURVE",
"582 433 OFFCURVE",
"581 420 CURVE SMOOTH",
"580 400 LINE SMOOTH",
"579 377 OFFCURVE",
"578 359 OFFCURVE",
"578 346 CURVE",
"571 244 LINE"
);
}
);
width = 1210;
}
);
note = AE;
unicode = 00C6;
},
{
glyphname = B;
lastChange = "2017-06-14 16:02:38 +0000";
layers = (
{
layerId = "CBDECE4A-293B-4E5C-B714-A3FD26C7130D";
paths = (
{
closed = 1;
nodes = (
"335 -24 OFFCURVE",
"373 -22 OFFCURVE",
"408 -18 CURVE SMOOTH",
"501 -7 OFFCURVE",
"625 0 OFFCURVE",
"713 69 CURVE SMOOTH",
"758 106 OFFCURVE",
"780 163 OFFCURVE",
"780 200 CURVE SMOOTH",
"780 226 OFFCURVE",
"769 251 OFFCURVE",
"748 275 CURVE",
"719 302 OFFCURVE",
"682 325 OFFCURVE",
"636 344 CURVE",
"635 345 OFFCURVE",
"634 346 OFFCURVE",
"634 346 CURVE",
"634 347 OFFCURVE",
"634 347 OFFCURVE",
"634 348 CURVE",
"633 348 OFFCURVE",
"633 348 OFFCURVE",
"633 348 CURVE",
"636 353 OFFCURVE",
"640 357 OFFCURVE",
"643 358 CURVE",
"652 363 OFFCURVE",
"662 368 OFFCURVE",
"674 371 CURVE",
"677 372 OFFCURVE",
"679 374 OFFCURVE",
"682 375 CURVE SMOOTH",
"685 376 OFFCURVE",
"688 377 OFFCURVE",
"691 379 CURVE SMOOTH",
"737 408 OFFCURVE",
"760 450 OFFCURVE",
"760 506 CURVE SMOOTH",
"760 549 OFFCURVE",
"744 585 OFFCURVE",
"711 613 CURVE",
"660 652 OFFCURVE",
"583 667 OFFCURVE",
"480 679 CURVE SMOOTH",
"407 690 OFFCURVE",
"343 695 OFFCURVE",
"288 695 CURVE SMOOTH",
"279 695 OFFCURVE",
"264 694 OFFCURVE",
"243 693 CURVE",
"222 693 OFFCURVE",
"205 691 OFFCURVE",
"193 690 CURVE",
"170 689 OFFCURVE",
"154 688 OFFCURVE",
"143 688 CURVE SMOOTH",
"135 688 OFFCURVE",
"128 688 OFFCURVE",
"121 687 CURVE SMOOTH",
"114 686 OFFCURVE",
"107 686 OFFCURVE",
"101 686 CURVE SMOOTH",
"92 686 OFFCURVE",
"84 685 OFFCURVE",
"79 683 CURVE",
"70 677 OFFCURVE",
"65 668 OFFCURVE",
"64 656 CURVE",
"64 653 OFFCURVE",
"64 648 OFFCURVE",
"61 641 CURVE",
"59 630 OFFCURVE",
"58 613 OFFCURVE",
"58 590 CURVE SMOOTH",
"58 559 LINE",
"58 525 LINE SMOOTH",
"58 458 OFFCURVE",
"60 400 OFFCURVE",
"63 353 CURVE",
"64 293 LINE SMOOTH",
"65 242 OFFCURVE",
"66 204 OFFCURVE",
"66 179 CURVE SMOOTH",
"66 172 OFFCURVE",
"66 165 OFFCURVE",
"65 158 CURVE",
"65 131 OFFCURVE",
"64 111 OFFCURVE",
"63 98 CURVE",
"63 73 LINE SMOOTH",
"63 30 OFFCURVE",
"78 7 OFFCURVE",
"113 -8 CURVE",
"146 -20 OFFCURVE",
"199 -24 OFFCURVE",
"294 -24 CURVE SMOOTH"
);
},
{
closed = 1;
nodes = (
"418 435 OFFCURVE",
"416 436 OFFCURVE",
"416 439 CURVE SMOOTH",
"416 445 LINE SMOOTH",
"416 450 OFFCURVE",
"416 456 OFFCURVE",
"416 468 CURVE SMOOTH",
"416 492 OFFCURVE",
"418 521 OFFCURVE",
"452 521 CURVE SMOOTH",
"494 521 OFFCURVE",
"533 515 OFFCURVE",
"533 494 CURVE SMOOTH",
"533 490 OFFCURVE",
"532 488 OFFCURVE",
"529 488 CURVE",
"523 485 LINE",
"514 481 LINE",
"511 480 OFFCURVE",
"506 474 OFFCURVE",
"500 469 CURVE",
"491 464 OFFCURVE",
"483 459 OFFCURVE",
"475 456 CURVE",
"463 448 OFFCURVE",
"446 445 OFFCURVE",
"433 438 CURVE",
"428 436 OFFCURVE",
"425 435 OFFCURVE",
"424 435 CURVE SMOOTH"
);
},
{
closed = 1;
nodes = (
"404 157 OFFCURVE",
"403 157 OFFCURVE",
"403 161 CURVE SMOOTH",
"403 228 LINE SMOOTH",
"403 236 OFFCURVE",
"405 240 OFFCURVE",
"410 240 CURVE SMOOTH",
"427 240 OFFCURVE",
"438 239 OFFCURVE",
"464 238 CURVE",
"482 236 OFFCURVE",
"482 236 OFFCURVE",
"500 236 CURVE",
"510 235 OFFCURVE",
"515 233 OFFCURVE",
"514 220 CURVE",
"514 161 OFFCURVE",
"444 152 OFFCURVE",
"410 157 CURVE",
"410 157 OFFCURVE",
"410 157 OFFCURVE",
"410 157 CURVE SMOOTH",
"410 157 OFFCURVE",
"410 157 OFFCURVE",
"410 157 CURVE SMOOTH",
"408 157 LINE SMOOTH"
);
}
);
width = 820;
}
);
note = B;
unicode = 0042;
},
{
glyphname = C;
lastChange = "2017-06-14 16:20:21 +0000";
layers = (
{
background = {
paths = (
{
closed = 0;
nodes = (
"381 328 LINE SMOOTH",
"381 451 OFFCURVE",
"432 493 OFFCURVE",
"516 493 CURVE SMOOTH",
"526 493 OFFCURVE",
"539 492 OFFCURVE",
"555 489 CURVE SMOOTH",
"572 486 OFFCURVE",
"599 480 OFFCURVE",
"636 471 CURVE",
"667 462 LINE",
"671 461 OFFCURVE",
"675 462 OFFCURVE",
"676 467 CURVE SMOOTH",
"711 623 LINE SMOOTH",
"712 627 OFFCURVE",
"711 631 OFFCURVE",
"707 633 CURVE SMOOTH",
"618 674 OFFCURVE",
"532 695 OFFCURVE",
"449 695 CURVE SMOOTH",
"333 695 OFFCURVE",
"232 662 OFFCURVE",
"159 601 CURVE SMOOTH",
"84 538 OFFCURVE",
"43 446 OFFCURVE",
"43 333 CURVE SMOOTH"
);
},
{
closed = 0;
nodes = (
"43 332 LINE SMOOTH",
"43 219 OFFCURVE",
"84 119 OFFCURVE",
"159 56 CURVE SMOOTH",
"232 -5 OFFCURVE",
"333 -38 OFFCURVE",
"449 -38 CURVE SMOOTH",
"532 -38 OFFCURVE",
"619 -20 OFFCURVE",
"707 24 CURVE SMOOTH",
"711 26 OFFCURVE",
"712 30 OFFCURVE",
"711 34 CURVE SMOOTH",
"676 190 LINE SMOOTH",
"675 195 OFFCURVE",
"671 196 OFFCURVE",
"667 195 CURVE",
"636 186 LINE",
"599 177 OFFCURVE",
"572 171 OFFCURVE",
"555 168 CURVE SMOOTH",
"539 165 OFFCURVE",
"526 164 OFFCURVE",
"516 164 CURVE SMOOTH",
"432 164 OFFCURVE",
"381 206 OFFCURVE",
"381 329 CURVE SMOOTH"
);
},
{
closed = 1;
nodes = (
"-365 -24 OFFCURVE",
"-260 6 OFFCURVE",
"-208 58 CURVE SMOOTH",
"-207 59 OFFCURVE",
"-206 61 OFFCURVE",
"-206 64 CURVE",
"-216 213 LINE",
"-216 219 OFFCURVE",
"-222 221 OFFCURVE",
"-226 218 CURVE",
"-287 186 OFFCURVE",
"-310 154 OFFCURVE",
"-391 154 CURVE SMOOTH",
"-462 154 OFFCURVE",
"-552 162 OFFCURVE",
"-552 337 CURVE SMOOTH",
"-552 471 OFFCURVE",
"-458 503 OFFCURVE",
"-380 499 CURVE SMOOTH",
"-359 498 OFFCURVE",
"-318 491 OFFCURVE",
"-289 481 CURVE SMOOTH",
"-255 469 LINE",
"-250 467 OFFCURVE",
"-245 472 OFFCURVE",
"-245 476 CURVE",
"-198 625 LINE",
"-198 629 OFFCURVE",
"-199 631 OFFCURVE",
"-202 633 CURVE SMOOTH",
"-216 642 OFFCURVE",
"-233 655 OFFCURVE",
"-250 662 CURVE SMOOTH",
"-269 670 OFFCURVE",
"-281 670 OFFCURVE",
"-287 673 CURVE",
"-360 694 OFFCURVE",
"-418 699 OFFCURVE",
"-473 695 CURVE SMOOTH",
"-487 694 LINE",
"-499 694 LINE SMOOTH",
"-621 694 OFFCURVE",
"-769 621 OFFCURVE",
"-827 513 CURVE SMOOTH",
"-858 455 OFFCURVE",
"-877 389 OFFCURVE",
"-877 313 CURVE SMOOTH",
"-877 248 OFFCURVE",
"-867 193 OFFCURVE",
"-848 146 CURVE SMOOTH",
"-839 125 OFFCURVE",
"-834 108 OFFCURVE",
"-823 96 CURVE",
"-808 73 OFFCURVE",
"-782 52 OFFCURVE",
"-759 33 CURVE",
"-748 25 OFFCURVE",
"-729 14 OFFCURVE",
"-720 11 CURVE SMOOTH",
"-597 -30 OFFCURVE",
"-529 -24 OFFCURVE",
"-437 -24 CURVE SMOOTH"
);
}
);
};
layerId = "CBDECE4A-293B-4E5C-B714-A3FD26C7130D";
paths = (
{
closed = 1;
nodes = (
"677 194 OFFCURVE",
"673 195 OFFCURVE",
"670 195 CURVE SMOOTH",
"669 195 OFFCURVE",
"668 195 OFFCURVE",
"667 195 CURVE",
"636 186 LINE",
"599 177 OFFCURVE",
"572 171 OFFCURVE",
"555 168 CURVE SMOOTH",
"539 165 OFFCURVE",
"526 165 OFFCURVE",
"516 165 CURVE SMOOTH",
"432 165 OFFCURVE",
"381 206 OFFCURVE",
"381 329 CURVE SMOOTH",
"381 451 OFFCURVE",
"432 493 OFFCURVE",
"516 493 CURVE SMOOTH",
"526 493 OFFCURVE",
"539 492 OFFCURVE",
"555 489 CURVE SMOOTH",
"572 486 OFFCURVE",
"599 480 OFFCURVE",
"636 471 CURVE",
"667 462 LINE",
"671 461 OFFCURVE",
"675 462 OFFCURVE",
"676 467 CURVE SMOOTH",
"711 623 LINE SMOOTH",
"712 627 OFFCURVE",
"711 631 OFFCURVE",
"707 633 CURVE SMOOTH",
"619 677 OFFCURVE",
"532 695 OFFCURVE",
"449 695 CURVE SMOOTH",
"333 695 OFFCURVE",
"232 662 OFFCURVE",
"159 601 CURVE SMOOTH",
"84 538 OFFCURVE",
"43 446 OFFCURVE",
"43 333 CURVE SMOOTH",
"43 332 LINE SMOOTH",
"43 219 OFFCURVE",
"84 119 OFFCURVE",
"159 56 CURVE SMOOTH",
"232 -5 OFFCURVE",
"333 -38 OFFCURVE",
"449 -38 CURVE SMOOTH",
"532 -38 OFFCURVE",
"619 -20 OFFCURVE",
"707 24 CURVE SMOOTH",
"710 26 OFFCURVE",
"711 28 OFFCURVE",
"711 31 CURVE SMOOTH",
"711 32 OFFCURVE",
"711 33 OFFCURVE",
"711 34 CURVE SMOOTH",
"678 190 LINE SMOOTH"
);
}
);
width = 756;
}
);
note = C;
unicode = 0043;
},
{
glyphname = Ccedilla;
lastChange = "2017-06-11 23:28:21 +0000";
layers = (
{
layerId = "CBDECE4A-293B-4E5C-B714-A3FD26C7130D";
paths = (
{
closed = 1;
nodes = (
"513 513 OFFCURVE",
"533 510 OFFCURVE",
"554 505 CURVE SMOOTH",
"613 490 LINE",
"631 620 LINE",
"616 630 OFFCURVE",
"599 639 OFFCURVE",
"581 647 CURVE SMOOTH",
"563 655 OFFCURVE",
"551 660 OFFCURVE",
"546 663 CURVE",
"486 684 OFFCURVE",
"430 695 OFFCURVE",
"378 695 CURVE SMOOTH",
"365 695 LINE",
"353 694 LINE SMOOTH",
"237 686 OFFCURVE",
"143 622 OFFCURVE",
"88 513 CURVE SMOOTH",
"57 456 OFFCURVE",
"41 389 OFFCURVE",
"41 313 CURVE SMOOTH",
"41 248 OFFCURVE",
"50 193 OFFCURVE",
"68 146 CURVE",
"77 125 OFFCURVE",
"88 108 OFFCURVE",
"99 96 CURVE",
"113 73 OFFCURVE",
"131 52 OFFCURVE",
"153 33 CURVE",
"164 25 OFFCURVE",
"182 15 OFFCURVE",
"190 11 CURVE SMOOTH",
"209 2 OFFCURVE",
"232 -5 OFFCURVE",
"259 -12 CURVE",
"248 -78 LINE",
"246 -118 LINE",
"259 -112 OFFCURVE",
"273 -109 OFFCURVE",
"288 -109 CURVE SMOOTH",
"327 -109 OFFCURVE",
"351 -128 OFFCURVE",
"351 -163 CURVE SMOOTH",
"351 -196 OFFCURVE",
"331 -229 OFFCURVE",
"286 -229 CURVE SMOOTH",
"261 -229 OFFCURVE",
"238 -224 OFFCURVE",
"217 -215 CURVE",
"216 -216 OFFCURVE",
"215 -219 OFFCURVE",
"213 -224 CURVE SMOOTH",
"211 -229 OFFCURVE",
"209 -236 OFFCURVE",
"206 -243 CURVE",
"196 -298 LINE",
"202 -305 OFFCURVE",
"211 -311 OFFCURVE",
"222 -315 CURVE SMOOTH",
"245 -324 OFFCURVE",
"266 -328 OFFCURVE",
"286 -328 CURVE SMOOTH",
"303 -328 LINE SMOOTH",
"472 -328 OFFCURVE",
"526 -261 OFFCURVE",
"526 -174 CURVE SMOOTH",
"526 -115 OFFCURVE",
"474 -65 OFFCURVE",
"361 -48 CURVE",
"366 -24 LINE",
"403 -24 LINE SMOOTH",
"472 -24 OFFCURVE",
"561 12 OFFCURVE",
"613 60 CURVE",
"603 224 LINE",
"552 189 OFFCURVE",
"506 164 OFFCURVE",
"466 164 CURVE SMOOTH",
"423 164 OFFCURVE",
"388 199 OFFCURVE",
"383 283 CURVE",
"381 292 OFFCURVE",
"380 307 OFFCURVE",
"380 328 CURVE SMOOTH",
"380 460 OFFCURVE",
"419 513 OFFCURVE",
"494 513 CURVE SMOOTH"
);
}
);
width = 676;
}
);
note = Ccedilla;
unicode = 00C7;
},
{
glyphname = D;
lastChange = "2017-06-11 23:28:21 +0000";
layers = (
{
layerId = "CBDECE4A-293B-4E5C-B714-A3FD26C7130D";
paths = (
{
closed = 1;
nodes = (
"540 -1 OFFCURVE",
"647 24 OFFCURVE",
"715 83 CURVE SMOOTH",
"783 143 OFFCURVE",
"813 233 OFFCURVE",
"813 373 CURVE SMOOTH",
"813 447 OFFCURVE",
"797 509 OFFCURVE",
"764 560 CURVE SMOOTH",
"709 644 OFFCURVE",
"618 673 OFFCURVE",
"535 673 CURVE SMOOTH",
"511 673 OFFCURVE",
"478 672 OFFCURVE",
"437 671 CURVE SMOOTH",
"400 670 LINE SMOOTH",
"372 669 OFFCURVE",
"333 669 OFFCURVE",
"283 669 CURVE SMOOTH",
"250 669 OFFCURVE",
"222 669 OFFCURVE",
"200 670 CURVE",
"84 671 LINE SMOOTH",
"72 671 OFFCURVE",
"58 657 OFFCURVE",
"58 645 CURVE SMOOTH",
"58 425 LINE SMOOTH",
"58 352 OFFCURVE",
"59 283 OFFCURVE",
"61 218 CURVE SMOOTH",
"62 173 OFFCURVE",
"63 121 OFFCURVE",
"63 63 CURVE SMOOTH",
"63 46 OFFCURVE",
"65 32 OFFCURVE",
"68 23 CURVE",
"71 8 OFFCURVE",
"79 1 OFFCURVE",
"90 1 CURVE SMOOTH",
"243 0 LINE",
"375 -1 LINE SMOOTH"
);
},
{
closed = 1;
nodes = (
"388 319 OFFCURVE",
"389 343 OFFCURVE",
"390 376 CURVE SMOOTH",
"391 400 LINE SMOOTH",
"392 421 OFFCURVE",
"393 437 OFFCURVE",
"393 448 CURVE SMOOTH",
"394 568 LINE",
"399 571 OFFCURVE",
"402 572 OFFCURVE",
"403 573 CURVE",
"406 574 OFFCURVE",
"416 578 OFFCURVE",
"428 578 CURVE SMOOTH",
"434 578 OFFCURVE",
"441 573 OFFCURVE",
"448 564 CURVE",
"465 536 OFFCURVE",
"473 448 OFFCURVE",
"473 413 CURVE SMOOTH",
"473 394 LINE SMOOTH",
"473 366 OFFCURVE",
"471 333 OFFCURVE",
"468 294 CURVE",
"455 203 OFFCURVE",
"444 158 OFFCURVE",
"428 139 CURVE",
"427 138 OFFCURVE",
"425 138 OFFCURVE",
"424 137 CURVE",
"422 136 OFFCURVE",
"419 135 OFFCURVE",
"416 134 CURVE",
"407 133 OFFCURVE",
"399 132 OFFCURVE",
"394 132 CURVE SMOOTH",
"389 132 OFFCURVE",
"386 132 OFFCURVE",
"383 133 CURVE",
"388 304 LINE SMOOTH"
);
}
);
width = 858;
}
);
note = D;
unicode = 0044;
},
{
glyphname = Eth;
lastChange = "2017-06-11 23:28:21 +0000";
layers = (
{
layerId = "CBDECE4A-293B-4E5C-B714-A3FD26C7130D";
paths = (
{
closed = 1;
nodes = (
"576 -1 OFFCURVE",
"684 24 OFFCURVE",
"753 81 CURVE SMOOTH",
"820 138 OFFCURVE",
"848 227 OFFCURVE",
"848 363 CURVE SMOOTH",
"848 442 OFFCURVE",
"832 506 OFFCURVE",
"801 556 CURVE SMOOTH",
"752 639 OFFCURVE",
"656 673 OFFCURVE",
"573 673 CURVE SMOOTH",
"548 673 OFFCURVE",
"514 672 OFFCURVE",
"473 671 CURVE SMOOTH",
"438 670 LINE SMOOTH",
"409 669 OFFCURVE",
"370 669 OFFCURVE",
"320 669 CURVE SMOOTH",
"289 669 OFFCURVE",
"265 669 OFFCURVE",
"248 670 CURVE",
"146 671 LINE SMOOTH",
"133 671 OFFCURVE",
"119 658 OFFCURVE",
"119 645 CURVE SMOOTH",
"119 423 LINE",
"95 423 LINE",
"71 423 LINE SMOOTH",
"58 423 OFFCURVE",
"43 413 OFFCURVE",
"43 408 CURVE SMOOTH",
"43 382 OFFCURVE",
"43 364 OFFCURVE",
"44 353 CURVE",
"44 294 LINE SMOOTH",
"44 288 OFFCURVE",
"52 283 OFFCURVE",
"68 280 CURVE",
"77 279 OFFCURVE",
"94 278 OFFCURVE",
"121 278 CURVE",
"122 243 LINE",
"123 236 OFFCURVE",
"123 225 OFFCURVE",
"123 211 CURVE SMOOTH",
"123 151 LINE",
"124 127 OFFCURVE",
"125 92 OFFCURVE",
"125 63 CURVE SMOOTH",
"125 24 OFFCURVE",
"131 1 OFFCURVE",
"151 1 CURVE SMOOTH",
"291 0 LINE",
"411 -1 LINE SMOOTH"
);
},
{
closed = 1;
nodes = (
"419 223 LINE",
"419 280 LINE",
"434 280 OFFCURVE",
"446 281 OFFCURVE",
"454 283 CURVE",
"469 284 OFFCURVE",
"481 290 OFFCURVE",
"481 311 CURVE SMOOTH",
"481 334 LINE",
"482 339 OFFCURVE",
"483 345 OFFCURVE",
"483 354 CURVE SMOOTH",
"484 408 LINE SMOOTH",
"484 413 OFFCURVE",
"475 418 OFFCURVE",
"463 419 CURVE",
"447 422 OFFCURVE",
"433 423 OFFCURVE",
"420 423 CURVE",
"420 503 LINE",
"420 568 LINE",
"426 570 OFFCURVE",
"430 572 OFFCURVE",
"431 573 CURVE",
"435 574 OFFCURVE",
"449 578 OFFCURVE",
"464 578 CURVE SMOOTH",
"475 578 OFFCURVE",
"483 573 OFFCURVE",
"489 564 CURVE",
"517 532 OFFCURVE",
"524 468 OFFCURVE",
"524 413 CURVE SMOOTH",
"524 394 LINE SMOOTH",
"524 313 OFFCURVE",
"519 252 OFFCURVE",
"510 211 CURVE",
"501 178 OFFCURVE",
"489 154 OFFCURVE",
"474 139 CURVE",
"471 138 OFFCURVE",
"465 135 OFFCURVE",
"460 134 CURVE",
"449 133 OFFCURVE",
"440 132 OFFCURVE",
"433 132 CURVE SMOOTH",
"427 132 OFFCURVE",
"422 132 OFFCURVE",
"419 133 CURVE",
"419 175 LINE"
);
}
);
width = 895;
}
);
note = Eth;
unicode = 00D0;
},
{
glyphname = E;
lastChange = "2017-06-14 16:21:39 +0000";
layers = (
{
layerId = "CBDECE4A-293B-4E5C-B714-A3FD26C7130D";
paths = (
{
closed = 1;
nodes = (
"333 1 OFFCURVE",
"436 1 OFFCURVE",
"506 1 CURVE SMOOTH",
"539 1 OFFCURVE",
"563 2 OFFCURVE",
"578 3 CURVE SMOOTH",
"607 5 OFFCURVE",
"631 5 OFFCURVE",
"648 5 CURVE SMOOTH",
"661 5 OFFCURVE",
"668 12 OFFCURVE",
"668 26 CURVE SMOOTH",
"668 31 OFFCURVE",
"667 36 OFFCURVE",
"666 41 CURVE SMOOTH",
"658 81 OFFCURVE",
"645 123 OFFCURVE",
"638 136 CURVE",
"635 141 OFFCURVE",
"633 143 OFFCURVE",
"630 143 CURVE SMOOTH",
"589 143 OFFCURVE",
"557 142 OFFCURVE",
"534 140 CURVE",
"513 139 OFFCURVE",
"481 138 OFFCURVE",
"388 138 CURVE",
"388 155 OFFCURVE",
"388 168 OFFCURVE",
"389 176 CURVE",
"390 192 OFFCURVE",
"391 204 OFFCURVE",
"391 213 CURVE SMOOTH",
"391 240 OFFCURVE",
"393 249 OFFCURVE",
"408 253 CURVE SMOOTH",
"412 254 OFFCURVE",
"424 254 OFFCURVE",
"443 254 CURVE",
"453 253 OFFCURVE",
"475 253 OFFCURVE",
"509 253 CURVE SMOOTH",
"548 253 OFFCURVE",
"575 255 OFFCURVE",
"589 258 CURVE",
"613 260 OFFCURVE",
"625 267 OFFCURVE",
"625 278 CURVE SMOOTH",
"625 281 LINE",
"621 370 LINE",
"620 379 OFFCURVE",
"617 389 OFFCURVE",
"600 393 CURVE",
"588 393 LINE",
"555 396 OFFCURVE",
"525 398 OFFCURVE",
"499 398 CURVE SMOOTH",
"410 398 LINE SMOOTH",
"397 398 OFFCURVE",
"394 401 OFFCURVE",
"394 418 CURVE",
"396 443 LINE SMOOTH",
"399 474 OFFCURVE",
"402 494 OFFCURVE",
"405 503 CURVE",
"408 511 OFFCURVE",
"411 515 OFFCURVE",
"413 515 CURVE",
"426 516 OFFCURVE",
"443 517 OFFCURVE",
"465 520 CURVE",
"518 524 LINE",
"559 529 OFFCURVE",
"593 531 OFFCURVE",
"621 531 CURVE SMOOTH",
"626 531 OFFCURVE",
"630 531 OFFCURVE",
"633 530 CURVE",
"640 530 OFFCURVE",
"643 533 OFFCURVE",
"644 540 CURVE",
"644 541 OFFCURVE",
"644 543 OFFCURVE",
"645 547 CURVE",
"645 550 OFFCURVE",
"645 554 OFFCURVE",
"644 558 CURVE",
"641 573 OFFCURVE",
"638 585 OFFCURVE",
"636 595 CURVE",
"633 614 OFFCURVE",
"631 626 OFFCURVE",
"629 631 CURVE",
"624 656 OFFCURVE",
"617 669 OFFCURVE",
"606 669 CURVE",
"577 672 OFFCURVE",
"535 674 OFFCURVE",
"480 675 CURVE SMOOTH",
"436 675 LINE SMOOTH",
"396 675 OFFCURVE",
"337 674 OFFCURVE",
"258 673 CURVE",
"233 671 OFFCURVE",
"193 670 OFFCURVE",
"139 670 CURVE SMOOTH",
"116 670 OFFCURVE",
"99 669 OFFCURVE",
"89 668 CURVE",
"73 663 OFFCURVE",
"65 657 OFFCURVE",
"65 650 CURVE",
"58 570 OFFCURVE",
"58 477 OFFCURVE",
"58 393 CURVE SMOOTH",
"58 348 OFFCURVE",
"58 319 OFFCURVE",
"59 305 CURVE SMOOTH",
"60 291 OFFCURVE",
"60 271 OFFCURVE",
"60 246 CURVE SMOOTH",
"61 215 LINE SMOOTH",
"62 198 OFFCURVE",
"63 183 OFFCURVE",
"63 172 CURVE",
"65 129 LINE",
"66 118 OFFCURVE",
"68 103 OFFCURVE",
"68 83 CURVE",
"70 54 OFFCURVE",
"71 31 OFFCURVE",
"71 14 CURVE",
"70 13 OFFCURVE",
"71 13 OFFCURVE",
"73 12 CURVE",
"74 11 OFFCURVE",
"77 10 OFFCURVE",
"80 9 CURVE",
"101 4 LINE",
"110 3 OFFCURVE",
"118 3 OFFCURVE",
"125 2 CURVE SMOOTH",
"132 1 OFFCURVE",
"137 0 OFFCURVE",
"140 0 CURVE SMOOTH",
"298 0 LINE SMOOTH"
);
}
);
width = 693;
}
);
note = E;
unicode = 0045;
},
{
glyphname = Eogonek;
lastChange = "2017-06-11 23:28:21 +0000";
layers = (
{
layerId = "CBDECE4A-293B-4E5C-B714-A3FD26C7130D";
paths = (
{
closed = 1;
nodes = (
"623 -154 OFFCURVE",
"594 -160 OFFCURVE",
"567 -160 CURVE SMOOTH",
"558 -160 OFFCURVE",
"552 -160 OFFCURVE",
"547 -161 CURVE",
"539 -164 OFFCURVE",
"529 -159 OFFCURVE",
"526 -158 CURVE",
"511 -154 OFFCURVE",
"503 -146 OFFCURVE",
"503 -126 CURVE SMOOTH",
"503 -118 OFFCURVE",
"507 -106 OFFCURVE",
"516 -90 CURVE SMOOTH",
"529 -67 OFFCURVE",
"543 -49 OFFCURVE",
"562 -33 CURVE",
"599 5 LINE",
"612 5 OFFCURVE",
"618 12 OFFCURVE",
"618 26 CURVE SMOOTH",
"618 31 OFFCURVE",
"617 36 OFFCURVE",
"616 41 CURVE SMOOTH",
"608 81 OFFCURVE",
"595 123 OFFCURVE",
"588 136 CURVE",
"585 141 OFFCURVE",
"583 143 OFFCURVE",
"580 143 CURVE SMOOTH",
"539 143 OFFCURVE",
"507 142 OFFCURVE",
"484 140 CURVE",
"463 139 OFFCURVE",
"431 138 OFFCURVE",
"388 138 CURVE",
"388 155 OFFCURVE",
"388 168 OFFCURVE",
"389 176 CURVE",
"390 192 OFFCURVE",
"391 204 OFFCURVE",
"391 213 CURVE SMOOTH",
"391 240 OFFCURVE",
"393 249 OFFCURVE",
"408 253 CURVE SMOOTH",
"412 254 OFFCURVE",
"424 254 OFFCURVE",
"443 254 CURVE",
"453 253 OFFCURVE",
"475 253 OFFCURVE",
"509 253 CURVE SMOOTH",
"548 253 OFFCURVE",
"575 255 OFFCURVE",
"589 258 CURVE",
"613 260 OFFCURVE",
"625 267 OFFCURVE",
"625 278 CURVE SMOOTH",
"625 281 LINE",
"621 370 LINE",
"620 379 OFFCURVE",
"617 389 OFFCURVE",
"600 393 CURVE",
"588 393 LINE",
"555 396 OFFCURVE",
"525 398 OFFCURVE",
"499 398 CURVE SMOOTH",
"410 398 LINE SMOOTH",
"397 398 OFFCURVE",
"394 401 OFFCURVE",
"394 418 CURVE",
"396 443 LINE SMOOTH",
"399 474 OFFCURVE",
"402 494 OFFCURVE",
"405 503 CURVE",
"408 511 OFFCURVE",
"411 515 OFFCURVE",
"413 515 CURVE",
"426 516 OFFCURVE",
"443 517 OFFCURVE",
"465 520 CURVE",
"518 524 LINE",
"559 529 OFFCURVE",
"593 531 OFFCURVE",
"621 531 CURVE SMOOTH",
"626 531 OFFCURVE",
"630 531 OFFCURVE",
"633 530 CURVE",
"640 530 OFFCURVE",
"643 533 OFFCURVE",
"644 540 CURVE",
"644 541 OFFCURVE",
"644 543 OFFCURVE",
"645 547 CURVE",
"645 550 OFFCURVE",
"645 554 OFFCURVE",
"644 558 CURVE",
"641 573 OFFCURVE",
"638 585 OFFCURVE",
"636 595 CURVE",
"633 614 OFFCURVE",
"631 626 OFFCURVE",
"629 631 CURVE",
"624 656 OFFCURVE",
"617 669 OFFCURVE",
"606 669 CURVE",
"577 672 OFFCURVE",
"535 674 OFFCURVE",
"480 675 CURVE SMOOTH",
"436 675 LINE SMOOTH",
"396 675 OFFCURVE",
"337 674 OFFCURVE",
"258 673 CURVE",
"233 671 OFFCURVE",
"193 670 OFFCURVE",
"139 670 CURVE SMOOTH",
"116 670 OFFCURVE",
"99 669 OFFCURVE",
"89 668 CURVE",
"73 663 OFFCURVE",
"65 657 OFFCURVE",
"65 650 CURVE",
"58 570 OFFCURVE",
"58 477 OFFCURVE",
"58 393 CURVE SMOOTH",
"58 348 OFFCURVE",
"58 319 OFFCURVE",
"59 305 CURVE SMOOTH",
"60 291 OFFCURVE",
"60 271 OFFCURVE",
"60 246 CURVE SMOOTH",
"61 215 LINE SMOOTH",
"62 198 OFFCURVE",
"63 183 OFFCURVE",
"63 172 CURVE",
"65 129 LINE",
"66 118 OFFCURVE",
"68 103 OFFCURVE",
"68 83 CURVE",
"70 54 OFFCURVE",
"71 31 OFFCURVE",
"71 14 CURVE",
"70 13 OFFCURVE",
"71 13 OFFCURVE",
"73 12 CURVE",
"74 11 OFFCURVE",
"77 10 OFFCURVE",
"80 9 CURVE",
"101 4 LINE",
"110 3 OFFCURVE",
"118 3 OFFCURVE",
"125 2 CURVE SMOOTH",
"132 1 OFFCURVE",
"137 0 OFFCURVE",
"140 0 CURVE SMOOTH",
"298 0 LINE SMOOTH",
"328 1 OFFCURVE",
"373 1 OFFCURVE",
"433 1 CURVE",
"416 -10 LINE SMOOTH",
"413 -12 OFFCURVE",
"407 -15 OFFCURVE",
"400 -19 CURVE",
"392 -24 OFFCURVE",
"386 -28 OFFCURVE",
"381 -33 CURVE",
"325 -70 OFFCURVE",
"298 -103 OFFCURVE",
"298 -163 CURVE SMOOTH",
"298 -175 OFFCURVE",
"300 -186 OFFCURVE",
"303 -195 CURVE",
"314 -220 OFFCURVE",
"337 -240 OFFCURVE",
"374 -253 CURVE SMOOTH",
"413 -268 OFFCURVE",
"468 -276 OFFCURVE",
"541 -276 CURVE",
"551 -274 LINE",
"553 -273 OFFCURVE",
"556 -273 OFFCURVE",
"559 -273 CURVE SMOOTH",
"562 -273 OFFCURVE",
"566 -272 OFFCURVE",
"571 -271 CURVE",
"582 -270 OFFCURVE",
"598 -265 OFFCURVE",
"618 -258 CURVE",
"631 -251 OFFCURVE",
"643 -245 OFFCURVE",
"644 -240 CURVE SMOOTH",
"661 -158 LINE",
"661 -153 LINE SMOOTH",
"661 -148 OFFCURVE",
"659 -145 OFFCURVE",
"654 -143 CURVE"
);
}
);
width = 693;
}
);
note = Eogonek;
unicode = 0118;
},
{
glyphname = F;
lastChange = "2017-06-13 16:38:25 +0000";
layers = (
{
layerId = "CBDECE4A-293B-4E5C-B714-A3FD26C7130D";
paths = (
{
closed = 1;
nodes = (
"184 -13 LINE",
"188 -12 OFFCURVE",
"191 -11 OFFCURVE",
"194 -10 CURVE",
"196 -10 OFFCURVE",
"197 -10 OFFCURVE",
"198 -9 CURVE",
"281 -9 LINE",
"284 -6 OFFCURVE",
"288 -5 OFFCURVE",
"289 -5 CURVE SMOOTH",
"292 -5 OFFCURVE",
"293 -5 OFFCURVE",
"293 -6 CURVE",
"296 -7 LINE",
"297 -7 OFFCURVE",
"299 -7 OFFCURVE",
"300 -8 CURVE SMOOTH",
"301 -9 OFFCURVE",
"303 -9 OFFCURVE",
"306 -9 CURVE SMOOTH",
"308 -9 LINE",
"318 -9 LINE",
"321 -8 OFFCURVE",
"328 -7 OFFCURVE",
"339 -7 CURVE",
"362 -6 OFFCURVE",
"379 -5 OFFCURVE",
"391 -5 CURVE",
"397 10 OFFCURVE",
"400 33 OFFCURVE",
"401 65 CURVE SMOOTH",
"402 87 OFFCURVE",
"403 138 OFFCURVE",
"403 199 CURVE",
"406 205 OFFCURVE",
"410 208 OFFCURVE",
"413 209 CURVE",
"417 212 OFFCURVE",
"424 213 OFFCURVE",
"435 213 CURVE SMOOTH",
"449 213 LINE",
"457 214 OFFCURVE",
"463 215 OFFCURVE",
"468 216 CURVE",
"471 217 OFFCURVE",
"478 218 OFFCURVE",
"488 218 CURVE SMOOTH",
"508 218 LINE",
"553 221 LINE",
"558 222 OFFCURVE",
"563 223 OFFCURVE",
"568 223 CURVE SMOOTH",
"576 223 OFFCURVE",
"580 226 OFFCURVE",
"583 238 CURVE",
"583 265 LINE",
"583 313 LINE SMOOTH",
"583 346 OFFCURVE",
"582 367 OFFCURVE",
"579 375 CURVE SMOOTH",
"575 386 OFFCURVE",
"569 389 OFFCURVE",
"553 389 CURVE SMOOTH",
"433 389 LINE",
"430 392 OFFCURVE",
"429 395 OFFCURVE",
"429 398 CURVE",
"430 400 LINE",
"430 444 OFFCURVE",
"435 489 OFFCURVE",
"436 498 CURVE",
"436 501 OFFCURVE",
"436 503 OFFCURVE",
"437 504 CURVE SMOOTH",
"438 505 OFFCURVE",
"438 507 OFFCURVE",
"438 508 CURVE",
"439 508 OFFCURVE",
"440 508 OFFCURVE",
"441 509 CURVE SMOOTH",
"442 510 OFFCURVE",
"443 510 OFFCURVE",
"445 511 CURVE",
"447 510 OFFCURVE",
"455 510 OFFCURVE",
"469 510 CURVE SMOOTH",
"483 510 OFFCURVE",
"493 511 OFFCURVE",
"500 513 CURVE",
"530 514 LINE",
"575 514 LINE",
"589 514 LINE SMOOTH",
"605 514 OFFCURVE",
"625 513 OFFCURVE",
"625 528 CURVE SMOOTH",
"625 551 OFFCURVE",
"625 568 OFFCURVE",
"626 579 CURVE SMOOTH",
"627 591 OFFCURVE",
"628 599 OFFCURVE",
"628 603 CURVE SMOOTH",
"628 608 OFFCURVE",
"627 615 OFFCURVE",
"626 624 CURVE",
"625 652 OFFCURVE",
"616 666 OFFCURVE",
"601 666 CURVE",
"598 664 OFFCURVE",
"596 663 OFFCURVE",
"593 663 CURVE SMOOTH",
"586 663 OFFCURVE",
"580 664 OFFCURVE",
"575 665 CURVE",
"572 666 OFFCURVE",
"568 666 OFFCURVE",
"563 666 CURVE SMOOTH",
"534 666 OFFCURVE",
"514 667 OFFCURVE",
"501 668 CURVE",
"398 668 LINE",
"387 669 OFFCURVE",
"371 669 OFFCURVE",
"351 669 CURVE SMOOTH",
"341 669 LINE",
"323 669 LINE SMOOTH",
"314 669 OFFCURVE",
"307 669 OFFCURVE",
"303 670 CURVE",
"293 670 LINE SMOOTH",
"259 670 OFFCURVE",
"217 669 OFFCURVE",
"166 668 CURVE SMOOTH",
"128 666 OFFCURVE",
"97 665 OFFCURVE",
"74 665 CURVE",
"71 666 LINE",
"65 666 LINE",
"60 665 OFFCURVE",
"58 661 OFFCURVE",
"58 655 CURVE SMOOTH",
"58 339 LINE",
"59 328 OFFCURVE",
"63 298 OFFCURVE",
"63 275 CURVE",
"65 250 OFFCURVE",
"67 206 OFFCURVE",
"70 145 CURVE",
"70 124 OFFCURVE",
"71 93 OFFCURVE",
"73 71 CURVE",
"73 49 LINE SMOOTH",
"73 30 OFFCURVE",
"75 -21 OFFCURVE",
"103 -21 CURVE",
"123 -20 LINE"
);
}
);
width = 663;
}
);
note = F;
unicode = 0046;
},
{
glyphname = G;
lastChange = "2017-06-14 16:32:42 +0000";
layers = (
{
layerId = "CBDECE4A-293B-4E5C-B714-A3FD26C7130D";
paths = (
{
closed = 1;
nodes = (
"447 -12 OFFCURVE",
"552 26 OFFCURVE",
"564 94 CURVE",
"565 79 OFFCURVE",
"567 67 OFFCURVE",
"568 59 CURVE",
"569 42 OFFCURVE",
"571 28 OFFCURVE",
"576 16 CURVE",
"578 12 OFFCURVE",
"580 10 OFFCURVE",
"583 10 CURVE SMOOTH",
"586 10 OFFCURVE",
"589 10 OFFCURVE",
"591 11 CURVE",
"718 11 LINE",
"719 12 LINE",
"719 13 OFFCURVE",
"719 13 OFFCURVE",
"720 14 CURVE",
"724 14 LINE",
"724 13 OFFCURVE",
"724 13 OFFCURVE",
"725 12 CURVE SMOOTH",
"726 11 OFFCURVE",
"729 11 OFFCURVE",
"735 11 CURVE SMOOTH",
"738 11 LINE",
"760 12 LINE",
"769 13 OFFCURVE",
"782 14 OFFCURVE",
"799 14 CURVE",
"806 29 OFFCURVE",
"808 70 OFFCURVE",
"808 154 CURVE SMOOTH",
"808 159 LINE SMOOTH",
"808 167 OFFCURVE",
"810 174 OFFCURVE",
"811 179 CURVE",
"811 340 LINE",
"810 343 OFFCURVE",
"810 346 OFFCURVE",
"810 349 CURVE SMOOTH",
"810 368 OFFCURVE",
"805 376 OFFCURVE",
"788 379 CURVE SMOOTH",
"783 380 OFFCURVE",
"771 380 OFFCURVE",
"753 380 CURVE",
"743 379 OFFCURVE",
"722 379 OFFCURVE",
"691 379 CURVE SMOOTH",
"585 379 LINE SMOOTH",
"576 379 OFFCURVE",
"570 379 OFFCURVE",
"568 380 CURVE",
"557 380 OFFCURVE",
"554 376 OFFCURVE",
"554 364 CURVE SMOOTH",
"554 337 LINE SMOOTH",
"554 307 OFFCURVE",
"554 284 OFFCURVE",
"555 269 CURVE SMOOTH",
"556 247 LINE SMOOTH",
"557 226 OFFCURVE",
"558 220 OFFCURVE",
"558 209 CURVE",
"535 189 OFFCURVE",
"504 183 OFFCURVE",
"487 183 CURVE SMOOTH",
"460 183 OFFCURVE",
"422 199 OFFCURVE",
"408 222 CURVE",
"391 243 OFFCURVE",
"381 283 OFFCURVE",
"381 339 CURVE SMOOTH",
"381 462 OFFCURVE",
"452 514 OFFCURVE",
"536 514 CURVE SMOOTH",
"546 514 OFFCURVE",
"559 513 OFFCURVE",
"575 510 CURVE SMOOTH",
"592 507 OFFCURVE",
"619 501 OFFCURVE",
"656 492 CURVE",
"687 483 LINE",
"691 482 OFFCURVE",
"695 483 OFFCURVE",
"696 488 CURVE SMOOTH",
"731 634 LINE SMOOTH",
"732 638 OFFCURVE",
"731 642 OFFCURVE",
"727 644 CURVE SMOOTH",
"639 688 OFFCURVE",
"552 706 OFFCURVE",
"469 706 CURVE SMOOTH",
"353 706 OFFCURVE",
"232 673 OFFCURVE",
"159 612 CURVE SMOOTH",
"84 549 OFFCURVE",
"43 457 OFFCURVE",
"43 344 CURVE SMOOTH",
"43 184 OFFCURVE",
"115 69 OFFCURVE",
"208 24 CURVE",
"249 0 OFFCURVE",
"296 -12 OFFCURVE",
"348 -12 CURVE SMOOTH"
);
}
);
width = 858;
}
);
note = G;
unicode = 0047;
},
{
glyphname = H;
lastChange = "2017-06-11 23:28:21 +0000";
layers = (
{
layerId = "CBDECE4A-293B-4E5C-B714-A3FD26C7130D";
paths = (
{
closed = 1;
nodes = (
"285 -5 OFFCURVE",
"321 -4 OFFCURVE",
"373 -1 CURVE SMOOTH",
"388 0 LINE",
"408 7 OFFCURVE",
"408 55 OFFCURVE",
"408 66 CURVE",
"409 89 OFFCURVE",
"409 141 OFFCURVE",
"409 224 CURVE SMOOTH",
"409 235 OFFCURVE",
"412 241 OFFCURVE",
"418 241 CURVE SMOOTH",
"426 241 LINE SMOOTH",
"432 241 OFFCURVE",
"448 240 OFFCURVE",
"473 239 CURVE",
"484 238 OFFCURVE",
"498 238 OFFCURVE",
"516 238 CURVE SMOOTH",
"523 238 LINE",
"534 53 LINE",
"535 44 OFFCURVE",
"536 37 OFFCURVE",
"537 32 CURVE SMOOTH",
"539 20 OFFCURVE",
"540 12 OFFCURVE",
"544 5 CURVE",
"546 2 OFFCURVE",
"548 0 OFFCURVE",
"550 0 CURVE SMOOTH",
"825 0 LINE SMOOTH",
"834 0 OFFCURVE",
"848 16 OFFCURVE",
"848 23 CURVE",
"873 403 LINE",
"873 404 OFFCURVE",
"873 405 OFFCURVE",
"872 407 CURVE",
"871 410 OFFCURVE",
"869 415 OFFCURVE",
"869 423 CURVE SMOOTH",
"869 449 OFFCURVE",
"870 483 OFFCURVE",
"873 526 CURVE",
"874 570 OFFCURVE",
"875 605 OFFCURVE",
"875 631 CURVE SMOOTH",
"875 650 OFFCURVE",
"873 659 OFFCURVE",
"865 664 CURVE",
"860 668 OFFCURVE",
"849 670 OFFCURVE",
"833 670 CURVE SMOOTH",
"806 670 LINE",
"789 669 OFFCURVE",
"753 668 OFFCURVE",
"700 668 CURVE SMOOTH",
"643 668 LINE",
"630 667 OFFCURVE",
"614 666 OFFCURVE",
"595 666 CURVE",
"568 665 LINE",
"553 665 OFFCURVE",
"544 664 OFFCURVE",
"540 663 CURVE",
"535 663 OFFCURVE",
"530 660 OFFCURVE",
"526 655 CURVE",
"522 648 OFFCURVE",
"521 630 OFFCURVE",
"521 609 CURVE SMOOTH",
"521 601 LINE",
"520 560 LINE SMOOTH",
"520 549 OFFCURVE",
"520 540 OFFCURVE",
"519 534 CURVE",
"518 466 LINE",
"506 466 OFFCURVE",
"497 467 OFFCURVE",
"491 468 CURVE",
"480 468 OFFCURVE",
"452 469 OFFCURVE",
"435 473 CURVE",
"409 473 LINE",
"410 514 LINE",
"411 522 OFFCURVE",
"411 535 OFFCURVE",
"411 553 CURVE SMOOTH",
"411 557 OFFCURVE",
"411 560 OFFCURVE",
"410 563 CURVE SMOOTH",
"409 566 OFFCURVE",
"408 568 OFFCURVE",
"408 571 CURVE",
"409 583 LINE",
"411 599 LINE",
"411 602 OFFCURVE",
"411 604 OFFCURVE",
"412 607 CURVE SMOOTH",
"413 610 OFFCURVE",
"413 612 OFFCURVE",
"413 615 CURVE SMOOTH",
"413 625 LINE SMOOTH",
"413 660 OFFCURVE",
"401 668 OFFCURVE",
"366 668 CURVE SMOOTH",
"351 668 LINE",
"314 668 LINE",
"268 668 LINE",
"256 669 OFFCURVE",
"240 669 OFFCURVE",
"221 669 CURVE SMOOTH",
"203 669 OFFCURVE",
"191 669 OFFCURVE",
"184 670 CURVE",
"168 670 LINE",
"110 670 LINE SMOOTH",
"97 670 OFFCURVE",
"88 667 OFFCURVE",
"81 661 CURVE",
"78 659 OFFCURVE",
"75 657 OFFCURVE",
"72 654 CURVE",
"68 651 OFFCURVE",
"65 649 OFFCURVE",
"64 648 CURVE",
"64 647 OFFCURVE",
"64 646 OFFCURVE",
"64 644 CURVE",
"63 641 OFFCURVE",
"63 637 OFFCURVE",
"63 631 CURVE",
"62 612 OFFCURVE",
"61 593 OFFCURVE",
"61 573 CURVE",
"60 566 OFFCURVE",
"60 556 OFFCURVE",
"60 543 CURVE",
"58 491 LINE",
"58 471 OFFCURVE",
"58 455 OFFCURVE",
"57 443 CURVE SMOOTH",
"56 431 OFFCURVE",
"56 423 OFFCURVE",
"56 418 CURVE SMOOTH",
"56 398 LINE",
"75 34 LINE",
"75 27 OFFCURVE",
"81 8 OFFCURVE",
"86 8 CURVE",
"134 -5 OFFCURVE",
"180 -6 OFFCURVE",
"264 -6 CURVE"
);
}
);
width = 930;
}
);
note = H;
unicode = 0048;
},
{
glyphname = Hbar;
lastChange = "2017-06-13 13:46:05 +0000";
layers = (
{
layerId = "CBDECE4A-293B-4E5C-B714-A3FD26C7130D";
paths = (
{
closed = 1;
nodes = (
"285 -5 OFFCURVE",
"321 -4 OFFCURVE",
"373 -1 CURVE SMOOTH",
"388 0 LINE",
"408 7 OFFCURVE",
"408 55 OFFCURVE",
"408 66 CURVE",
"409 89 OFFCURVE",
"409 71 OFFCURVE",
"409 154 CURVE SMOOTH",
"409 165 OFFCURVE",
"412 171 OFFCURVE",
"418 171 CURVE SMOOTH",
"426 171 LINE SMOOTH",
"432 171 OFFCURVE",
"448 170 OFFCURVE",
"473 169 CURVE",
"484 168 OFFCURVE",
"498 168 OFFCURVE",
"516 168 CURVE SMOOTH",
"523 168 LINE",
"534 53 LINE",
"535 44 OFFCURVE",
"536 37 OFFCURVE",
"537 32 CURVE SMOOTH",
"539 20 OFFCURVE",
"540 12 OFFCURVE",
"544 5 CURVE",
"546 2 OFFCURVE",
"548 0 OFFCURVE",
"550 0 CURVE SMOOTH",
"825 0 LINE SMOOTH",
"834 0 OFFCURVE",
"848 16 OFFCURVE",
"848 23 CURVE",
"873 333 LINE",
"873 334 OFFCURVE",
"873 335 OFFCURVE",
"872 337 CURVE",
"871 340 OFFCURVE",
"869 345 OFFCURVE",
"869 353 CURVE SMOOTH",
"870 408 LINE",
"871 415 OFFCURVE",
"871 477 OFFCURVE",
"871 493 CURVE",
"884 493 LINE SMOOTH",
"905 493 OFFCURVE",
"921 496 OFFCURVE",
"930 503 CURVE",
"935 506 OFFCURVE",
"938 512 OFFCURVE",
"938 521 CURVE SMOOTH",
"938 533 LINE SMOOTH",
"938 534 OFFCURVE",
"938 536 OFFCURVE",
"937 537 CURVE SMOOTH",
"936 538 OFFCURVE",
"936 540 OFFCURVE",
"936 541 CURVE SMOOTH",
"936 544 OFFCURVE",
"936 545 OFFCURVE",
"935 546 CURVE",
"934 553 LINE",
"934 556 OFFCURVE",
"934 559 OFFCURVE",
"933 560 CURVE",
"933 573 LINE SMOOTH",
"933 574 OFFCURVE",
"932 576 OFFCURVE",
"930 577 CURVE",
"927 578 OFFCURVE",
"924 578 OFFCURVE",
"920 579 CURVE",
"918 579 OFFCURVE",
"914 580 OFFCURVE",
"908 581 CURVE SMOOTH",
"902 582 OFFCURVE",
"896 583 OFFCURVE",
"890 583 CURVE SMOOTH",
"883 583 OFFCURVE",
"878 583 OFFCURVE",
"875 584 CURVE",
"875 631 LINE SMOOTH",
"875 650 OFFCURVE",
"873 659 OFFCURVE",
"865 664 CURVE",
"860 668 OFFCURVE",
"849 670 OFFCURVE",
"833 670 CURVE SMOOTH",
"806 670 LINE",
"789 669 OFFCURVE",
"753 668 OFFCURVE",
"700 668 CURVE SMOOTH",
"643 668 LINE",
"630 667 OFFCURVE",
"614 666 OFFCURVE",
"595 666 CURVE",
"568 665 LINE",
"553 665 OFFCURVE",
"544 664 OFFCURVE",
"540 663 CURVE",
"535 663 OFFCURVE",
"530 660 OFFCURVE",
"526 655 CURVE",
"522 648 OFFCURVE",
"521 610 OFFCURVE",
"521 589 CURVE SMOOTH",
"521 586 LINE",
"443 586 LINE",
"411 586 LINE",
"411 591 OFFCURVE",
"412 594 OFFCURVE",
"413 595 CURVE",
"413 605 LINE SMOOTH",
"413 640 OFFCURVE",
"401 668 OFFCURVE",
"366 668 CURVE SMOOTH",
"351 668 LINE",
"314 668 LINE",
"268 668 LINE",
"256 669 OFFCURVE",
"240 669 OFFCURVE",
"221 669 CURVE SMOOTH",
"203 669 OFFCURVE",
"191 669 OFFCURVE",
"184 670 CURVE",
"168 670 LINE",
"110 670 LINE SMOOTH",
"97 670 OFFCURVE",
"88 667 OFFCURVE",
"81 661 CURVE",
"78 659 OFFCURVE",
"75 657 OFFCURVE",
"72 654 CURVE",
"68 651 OFFCURVE",
"65 649 OFFCURVE",
"64 648 CURVE",
"63 645 OFFCURVE",
"63 640 OFFCURVE",
"63 633 CURVE",
"62 606 OFFCURVE",
"62 597 OFFCURVE",
"61 588 CURVE",
"53 588 LINE SMOOTH",
"50 588 OFFCURVE",
"47 588 OFFCURVE",
"44 587 CURVE SMOOTH",
"41 586 OFFCURVE",
"38 586 OFFCURVE",
"35 586 CURVE",
"19 583 OFFCURVE",
"9 581 OFFCURVE",
"5 579 CURVE",
"4 579 OFFCURVE",
"0 578 OFFCURVE",
"0 575 CURVE SMOOTH",
"0 567 OFFCURVE",
"0 561 OFFCURVE",
"1 558 CURVE",
"1 543 LINE SMOOTH",
"1 536 OFFCURVE",
"2 531 OFFCURVE",
"3 526 CURVE",
"3 508 LINE SMOOTH",
"3 504 OFFCURVE",
"8 501 OFFCURVE",
"18 499 CURVE",
"45 496 OFFCURVE",
"58 495 OFFCURVE",
"58 495 CURVE",
"59 495 LINE",
"58 490 OFFCURVE",
"58 482 OFFCURVE",
"58 471 CURVE SMOOTH",
"58 375 LINE",
"57 367 OFFCURVE",
"56 358 OFFCURVE",
"56 348 CURVE SMOOTH",
"56 328 LINE",
"75 34 LINE",
"75 27 OFFCURVE",
"81 8 OFFCURVE",
"86 8 CURVE",
"134 -5 OFFCURVE",
"180 -6 OFFCURVE",
"264 -6 CURVE"
);
},
{
closed = 1;
nodes = (
"506 396 OFFCURVE",
"497 397 OFFCURVE",
"491 398 CURVE",
"480 398 OFFCURVE",
"452 399 OFFCURVE",
"435 403 CURVE",
"409 403 LINE",
"410 494 LINE",
"410 495 LINE",
"419 495 LINE",
"464 495 LINE SMOOTH",
"487 495 OFFCURVE",
"505 495 OFFCURVE",
"518 494 CURVE",
"518 396 LINE"
);
}
);
width = 930;
}
);
note = Hbar;
unicode = 0126;
},
{
glyphname = I;
lastChange = "2017-06-11 23:28:21 +0000";
layers = (
{
layerId = "CBDECE4A-293B-4E5C-B714-A3FD26C7130D";
paths = (
{
closed = 1;
nodes = (
"150 0 LINE",
"188 0 LINE SMOOTH",
"198 0 OFFCURVE",
"203 0 OFFCURVE",
"204 1 CURVE",
"296 1 LINE",
"304 5 LINE",
"305 5 OFFCURVE",
"308 4 OFFCURVE",
"313 3 CURVE",
"313 2 OFFCURVE",
"315 1 OFFCURVE",
"320 1 CURVE SMOOTH",
"323 1 LINE",
"333 1 LINE",
"336 2 OFFCURVE",
"343 3 OFFCURVE",
"354 3 CURVE",
"377 4 OFFCURVE",
"394 5 OFFCURVE",
"406 5 CURVE",
"411 14 OFFCURVE",
"413 24 OFFCURVE",
"413 33 CURVE",
"416 61 OFFCURVE",
"418 95 OFFCURVE",
"418 135 CURVE SMOOTH",
"418 199 LINE",
"419 215 LINE",
"419 230 OFFCURVE",
"419 243 OFFCURVE",
"420 253 CURVE",
"421 298 LINE",
"422 309 OFFCURVE",
"423 325 OFFCURVE",
"423 345 CURVE SMOOTH",
"423 364 OFFCURVE",
"423 376 OFFCURVE",
"424 381 CURVE",
"424 396 LINE",
"424 591 LINE SMOOTH",
"424 612 OFFCURVE",
"424 626 OFFCURVE",
"423 633 CURVE",
"421 642 OFFCURVE",
"418 649 OFFCURVE",
"415 655 CURVE",
"408 664 OFFCURVE",
"398 666 OFFCURVE",
"378 666 CURVE",
"374 665 OFFCURVE",
"371 664 OFFCURVE",
"370 664 CURVE",
"368 663 OFFCURVE",
"365 663 OFFCURVE",
"361 666 CURVE",
"336 670 OFFCURVE",
"306 671 OFFCURVE",
"289 668 CURVE",
"287 668 OFFCURVE",
"285 668 OFFCURVE",
"284 667 CURVE SMOOTH",
"283 666 OFFCURVE",
"281 666 OFFCURVE",
"279 666 CURVE SMOOTH",
"179 666 LINE",
"156 665 OFFCURVE",
"122 665 OFFCURVE",
"76 665 CURVE SMOOTH",
"67 665 OFFCURVE",
"63 662 OFFCURVE",
"63 655 CURVE SMOOTH",
"63 339 LINE",
"61 298 OFFCURVE",
"60 257 OFFCURVE",
"60 215 CURVE SMOOTH",
"59 91 LINE",
"59 78 LINE SMOOTH",
"59 70 OFFCURVE",
"59 64 OFFCURVE",
"60 59 CURVE",
"61 44 OFFCURVE",
"63 31 OFFCURVE",
"66 19 CURVE",
"70 7 OFFCURVE",
"79 -1 OFFCURVE",
"88 -1 CURVE",
"113 0 LINE"
);
}
);
width = 480;
}
);
note = I;
unicode = 0049;
},
{
glyphname = IJ;
lastChange = "2017-06-11 23:28:21 +0000";
layers = (
{
layerId = "CBDECE4A-293B-4E5C-B714-A3FD26C7130D";
paths = (
{
closed = 1;
nodes = (
"150 210 LINE",
"188 210 LINE SMOOTH",
"198 210 OFFCURVE",
"203 210 OFFCURVE",
"204 211 CURVE",
"296 211 LINE SMOOTH",
"297 211 OFFCURVE",
"301 213 OFFCURVE",
"304 214 CURVE",
"313 213 LINE",
"313 212 OFFCURVE",
"315 211 OFFCURVE",
"320 211 CURVE SMOOTH",
"323 211 LINE",
"333 211 LINE SMOOTH",
"342 211 OFFCURVE",
"349 212 OFFCURVE",
"354 213 CURVE",
"406 214 LINE",
"411 220 OFFCURVE",
"413 227 OFFCURVE",
"413 234 CURVE",
"416 253 OFFCURVE",
"418 276 OFFCURVE",
"418 305 CURVE SMOOTH",
"418 350 LINE",
"419 361 LINE",
"419 371 OFFCURVE",
"419 380 OFFCURVE",
"420 388 CURVE",
"421 420 LINE",
"422 427 OFFCURVE",
"423 438 OFFCURVE",
"423 453 CURVE SMOOTH",
"423 465 OFFCURVE",
"423 473 OFFCURVE",
"424 478 CURVE",
"424 489 LINE",
"424 625 LINE SMOOTH",
"424 640 OFFCURVE",
"424 650 OFFCURVE",
"423 655 CURVE",
"420 663 OFFCURVE",
"413 675 OFFCURVE",
"403 677 CURVE SMOOTH",
"398 678 OFFCURVE",
"389 678 OFFCURVE",
"378 678 CURVE SMOOTH",
"377 678 OFFCURVE",
"375 678 OFFCURVE",
"374 677 CURVE SMOOTH",
"373 676 OFFCURVE",
"371 676 OFFCURVE",
"370 676 CURVE SMOOTH",
"366 676 OFFCURVE",
"363 677 OFFCURVE",
"361 678 CURVE",
"344 681 OFFCURVE",
"306 682 OFFCURVE",
"289 679 CURVE",
"279 678 LINE",
"179 678 LINE",
"80 678 LINE SMOOTH",
"68 678 OFFCURVE",
"63 677 OFFCURVE",
"63 670 CURVE SMOOTH",
"63 449 LINE",
"61 420 OFFCURVE",
"60 391 OFFCURVE",
"60 361 CURVE SMOOTH",
"59 274 LINE",
"59 265 LINE SMOOTH",
"59 259 OFFCURVE",
"59 254 OFFCURVE",
"60 251 CURVE",
"63 228 OFFCURVE",
"68 209 OFFCURVE",
"88 209 CURVE",
"113 210 LINE"
);
},
{
closed = 1;
nodes = (
"602 -29 OFFCURVE",
"647 -25 OFFCURVE",
"704 -8 CURVE",
"811 29 OFFCURVE",
"870 80 OFFCURVE",
"890 173 CURVE SMOOTH",
"898 209 OFFCURVE",
"899 241 OFFCURVE",
"899 294 CURVE",
"900 303 LINE",
"900 323 LINE SMOOTH",
"900 333 OFFCURVE",
"900 341 OFFCURVE",
"901 346 CURVE",
"902 349 OFFCURVE",
"902 353 OFFCURVE",
"902 358 CURVE SMOOTH",
"902 364 OFFCURVE",
"902 368 OFFCURVE",
"903 370 CURVE",
"903 388 LINE",
"903 396 LINE",
"903 591 LINE SMOOTH",
"903 612 OFFCURVE",
"902 626 OFFCURVE",
"901 633 CURVE",
"900 644 OFFCURVE",
"897 651 OFFCURVE",
"893 655 CURVE",
"886 664 OFFCURVE",
"876 666 OFFCURVE",
"856 666 CURVE SMOOTH",
"758 666 LINE",
"658 666 LINE",
"554 665 LINE SMOOTH",
"545 665 OFFCURVE",
"541 662 OFFCURVE",
"541 655 CURVE SMOOTH",
"543 449 LINE",
"543 406 LINE SMOOTH",
"543 400 OFFCURVE",
"543 393 OFFCURVE",
"542 386 CURVE SMOOTH",
"541 378 OFFCURVE",
"541 369 OFFCURVE",
"541 360 CURVE SMOOTH",
"541 335 OFFCURVE",
"541 316 OFFCURVE",
"540 303 CURVE SMOOTH",
"538 272 OFFCURVE",
"537 247 OFFCURVE",
"537 228 CURVE SMOOTH",
"537 211 OFFCURVE",
"537 199 OFFCURVE",
"536 193 CURVE SMOOTH",
"535 188 OFFCURVE",
"533 181 OFFCURVE",
"530 173 CURVE",
"529 166 OFFCURVE",
"526 159 OFFCURVE",
"521 150 CURVE",
"512 131 OFFCURVE",
"498 121 OFFCURVE",
"463 121 CURVE SMOOTH",
"414 121 OFFCURVE",
"371 126 OFFCURVE",
"283 151 CURVE",
"283 151 OFFCURVE",
"282 149 OFFCURVE",
"281 146 CURVE SMOOTH",
"279 140 OFFCURVE",
"278 135 OFFCURVE",
"278 131 CURVE",
"276 119 OFFCURVE",
"275 107 OFFCURVE",
"275 96 CURVE",
"274 87 OFFCURVE",
"273 80 OFFCURVE",
"273 75 CURVE",
"270 67 OFFCURVE",
"267 41 OFFCURVE",
"267 33 CURVE SMOOTH",
"267 30 OFFCURVE",
"267 29 OFFCURVE",
"268 28 CURVE",
"323 8 LINE SMOOTH",
"392 -17 OFFCURVE",
"470 -29 OFFCURVE",
"557 -29 CURVE SMOOTH"
);
}
);
width = 951;
}
);
note = IJ;
unicode = 0132;
},
{
glyphname = Iogonek;
lastChange = "2017-06-11 23:28:21 +0000";
layers = (
{
layerId = "CBDECE4A-293B-4E5C-B714-A3FD26C7130D";
paths = (
{
closed = 1;
nodes = (
"421 642 OFFCURVE",
"418 649 OFFCURVE",
"415 655 CURVE",
"408 664 OFFCURVE",
"398 666 OFFCURVE",
"378 666 CURVE",
"374 665 OFFCURVE",
"371 664 OFFCURVE",
"370 664 CURVE",
"368 663 OFFCURVE",
"365 663 OFFCURVE",
"361 666 CURVE",
"336 670 OFFCURVE",
"306 671 OFFCURVE",
"289 668 CURVE",
"287 668 OFFCURVE",
"285 668 OFFCURVE",
"284 667 CURVE SMOOTH",
"283 666 OFFCURVE",
"281 666 OFFCURVE",
"279 666 CURVE SMOOTH",
"179 666 LINE",
"156 665 OFFCURVE",
"122 665 OFFCURVE",
"76 665 CURVE SMOOTH",
"67 665 OFFCURVE",
"63 662 OFFCURVE",
"63 655 CURVE SMOOTH",
"63 339 LINE",
"61 298 OFFCURVE",
"60 257 OFFCURVE",
"60 215 CURVE SMOOTH",
"59 91 LINE",
"59 78 LINE SMOOTH",
"59 70 OFFCURVE",
"59 64 OFFCURVE",
"60 59 CURVE",
"61 44 OFFCURVE",
"63 31 OFFCURVE",
"66 19 CURVE",
"70 7 OFFCURVE",
"79 -1 OFFCURVE",
"88 -1 CURVE",
"113 0 LINE",
"150 0 LINE",
"181 0 LINE",
"166 -10 LINE SMOOTH",
"163 -12 OFFCURVE",
"157 -15 OFFCURVE",
"150 -19 CURVE",
"142 -24 OFFCURVE",
"136 -28 OFFCURVE",
"131 -33 CURVE",
"75 -70 OFFCURVE",
"48 -103 OFFCURVE",
"48 -163 CURVE SMOOTH",
"48 -175 OFFCURVE",
"50 -186 OFFCURVE",
"53 -195 CURVE",
"64 -220 OFFCURVE",
"87 -240 OFFCURVE",
"124 -253 CURVE SMOOTH",
"163 -268 OFFCURVE",
"218 -276 OFFCURVE",
"291 -276 CURVE",
"301 -274 LINE",
"303 -273 OFFCURVE",
"306 -273 OFFCURVE",
"309 -273 CURVE SMOOTH",
"312 -273 OFFCURVE",
"316 -272 OFFCURVE",
"321 -271 CURVE",
"332 -270 OFFCURVE",
"348 -265 OFFCURVE",
"368 -258 CURVE",
"381 -251 OFFCURVE",
"393 -245 OFFCURVE",
"394 -240 CURVE SMOOTH",
"411 -158 LINE",
"411 -153 LINE SMOOTH",
"411 -148 OFFCURVE",
"409 -145 OFFCURVE",
"404 -143 CURVE",
"373 -154 OFFCURVE",
"344 -160 OFFCURVE",
"317 -160 CURVE SMOOTH",
"308 -160 OFFCURVE",
"302 -160 OFFCURVE",
"297 -161 CURVE",
"289 -164 OFFCURVE",
"279 -159 OFFCURVE",
"276 -158 CURVE",
"261 -154 OFFCURVE",
"253 -146 OFFCURVE",
"253 -126 CURVE SMOOTH",
"253 -118 OFFCURVE",
"257 -106 OFFCURVE",
"266 -90 CURVE SMOOTH",
"279 -67 OFFCURVE",
"293 -49 OFFCURVE",
"312 -33 CURVE",
"347 3 LINE",
"354 3 LINE",
"377 4 OFFCURVE",
"394 5 OFFCURVE",
"406 5 CURVE",
"411 14 OFFCURVE",
"413 24 OFFCURVE",
"413 33 CURVE",
"416 61 OFFCURVE",
"418 95 OFFCURVE",
"418 135 CURVE SMOOTH",
"418 199 LINE",
"419 215 LINE",
"419 230 OFFCURVE",
"419 243 OFFCURVE",
"420 253 CURVE",
"421 298 LINE",
"422 309 OFFCURVE",
"423 325 OFFCURVE",
"423 345 CURVE SMOOTH",
"423 364 OFFCURVE",
"423 376 OFFCURVE",
"424 381 CURVE",
"424 396 LINE",
"424 591 LINE SMOOTH",
"424 612 OFFCURVE",
"424 626 OFFCURVE",
"423 633 CURVE"
);
}
);
width = 480;
}
);
note = Iogonek;
unicode = 012E;
},
{
glyphname = J;
lastChange = "2017-06-15 14:03:26 +0000";
layers = (
{
layerId = "CBDECE4A-293B-4E5C-B714-A3FD26C7130D";
paths = (
{
closed = 1;
nodes = (
"326 -21 OFFCURVE",
"349 -16 OFFCURVE",
"378 -8 CURVE",
"487 31 OFFCURVE",
"544 80 OFFCURVE",
"564 173 CURVE SMOOTH",
"572 209 OFFCURVE",
"573 241 OFFCURVE",
"573 294 CURVE",
"574 303 LINE",
"574 323 LINE SMOOTH",
"574 333 OFFCURVE",
"574 341 OFFCURVE",
"575 346 CURVE",
"576 350 OFFCURVE",
"576 354 OFFCURVE",
"576 358 CURVE",
"575 362 OFFCURVE",
"575 366 OFFCURVE",
"576 370 CURVE",
"577 373 OFFCURVE",
"577 376 OFFCURVE",
"577 380 CURVE SMOOTH",
"577 384 OFFCURVE",
"577 387 OFFCURVE",
"578 388 CURVE",
"578 396 LINE",
"578 591 LINE SMOOTH",
"578 599 OFFCURVE",
"577 613 OFFCURVE",
"575 633 CURVE SMOOTH",
"574 641 OFFCURVE",
"572 648 OFFCURVE",
"568 655 CURVE",
"560 664 OFFCURVE",
"550 666 OFFCURVE",
"530 666 CURVE SMOOTH",
"433 666 LINE",
"333 666 LINE",
"229 665 LINE SMOOTH",
"220 665 OFFCURVE",
"215 663 OFFCURVE",
"215 655 CURVE SMOOTH",
"216 529 LINE",
"216 486 LINE",
"213 364 OFFCURVE",
"212 306 OFFCURVE",
"212 277 CURVE SMOOTH",
"212 258 OFFCURVE",
"212 246 OFFCURVE",
"211 239 CURVE",
"211 239 OFFCURVE",
"209 232 OFFCURVE",
"206 219 CURVE SMOOTH",
"203 207 OFFCURVE",
"201 199 OFFCURVE",
"199 196 CURVE",
"192 177 OFFCURVE",
"181 167 OFFCURVE",
"168 167 CURVE SMOOTH",
"108 167 OFFCURVE",
"77 172 OFFCURVE",
"6 197 CURVE",
"6 198 OFFCURVE",
"6 198 OFFCURVE",
"6 197 CURVE",
"5 196 OFFCURVE",
"5 194 OFFCURVE",
"4 192 CURVE SMOOTH",
"3 190 OFFCURVE",
"3 185 OFFCURVE",
"3 177 CURVE",
"-2 156 OFFCURVE",
"-2 94 OFFCURVE",
"-2 75 CURVE",
"-3 71 OFFCURVE",
"-5 64 OFFCURVE",
"-6 55 CURVE SMOOTH",
"-8 33 LINE",
"-8 30 OFFCURVE",
"-8 29 OFFCURVE",
"-7 28 CURVE",
"38 8 LINE SMOOTH",
"96 -17 OFFCURVE",
"160 -29 OFFCURVE",
"230 -29 CURVE SMOOTH",
"253 -29 OFFCURVE",
"279 -27 OFFCURVE",
"308 -24 CURVE"
);
}
);
width = 626;
}
);
note = J;
unicode = 004A;
},
{
glyphname = K;
lastChange = "2017-06-14 17:00:58 +0000";
layers = (
{
layerId = "CBDECE4A-293B-4E5C-B714-A3FD26C7130D";
paths = (
{
closed = 1;
nodes = (
"637 -19 OFFCURVE",
"643 -20 OFFCURVE",
"649 -20 CURVE SMOOTH",
"660 -20 OFFCURVE",
"670 -17 OFFCURVE",
"680 -11 CURVE",
"683 -8 OFFCURVE",
"687 -5 OFFCURVE",
"693 -1 CURVE SMOOTH",
"699 3 OFFCURVE",
"702 5 OFFCURVE",
"702 5 CURVE",
"722 15 LINE",
"733 22 OFFCURVE",
"743 29 OFFCURVE",
"752 37 CURVE SMOOTH",
"772 54 OFFCURVE",
"793 74 OFFCURVE",
"816 86 CURVE",
"827 91 OFFCURVE",
"840 100 OFFCURVE",
"853 111 CURVE",
"860 118 OFFCURVE",
"861 122 OFFCURVE",
"861 130 CURVE SMOOTH",
"861 135 OFFCURVE",
"858 142 OFFCURVE",
"851 152 CURVE",
"820 191 OFFCURVE",
"786 252 OFFCURVE",
"759 275 CURVE",
"731 303 OFFCURVE",
"723 306 OFFCURVE",
"703 325 CURVE",
"698 328 OFFCURVE",
"694 332 OFFCURVE",
"689 337 CURVE",
"678 346 OFFCURVE",
"673 356 OFFCURVE",
"673 367 CURVE SMOOTH",
"673 378 OFFCURVE",
"675 377 OFFCURVE",
"680 381 CURVE",
"683 382 OFFCURVE",
"685 384 OFFCURVE",
"687 385 CURVE",
"690 386 OFFCURVE",
"693 388 OFFCURVE",
"697 391 CURVE",
"700 394 OFFCURVE",
"703 395 OFFCURVE",
"704 396 CURVE",
"713 410 LINE",
"726 423 OFFCURVE",
"733 430 OFFCURVE",
"733 430 CURVE",
"732 432 LINE",
"734 434 OFFCURVE",
"736 436 OFFCURVE",
"737 437 CURVE SMOOTH",
"738 438 OFFCURVE",
"739 439 OFFCURVE",
"740 439 CURVE",
"743 443 OFFCURVE",
"749 449 OFFCURVE",
"757 456 CURVE",
"804 499 LINE SMOOTH",
"824 518 OFFCURVE",
"833 531 OFFCURVE",
"833 540 CURVE SMOOTH",
"833 542 LINE",
"826 557 OFFCURVE",
"797 579 OFFCURVE",
"784 594 CURVE",
"767 616 OFFCURVE",
"756 630 OFFCURVE",
"752 637 CURVE",
"751 638 OFFCURVE",
"750 639 OFFCURVE",
"749 641 CURVE",
"748 642 OFFCURVE",
"746 644 OFFCURVE",
"744 646 CURVE",
"732 657 LINE",
"730 660 OFFCURVE",
"726 664 OFFCURVE",
"720 669 CURVE",
"714 676 LINE",
"712 677 OFFCURVE",
"710 679 OFFCURVE",
"709 682 CURVE",
"703 688 OFFCURVE",
"700 691 OFFCURVE",
"700 691 CURVE",
"697 694 OFFCURVE",
"689 703 OFFCURVE",
"686 703 CURVE",
"683 702 OFFCURVE",
"675 698 OFFCURVE",
"662 689 CURVE",
"621 657 OFFCURVE",
"516 571 OFFCURVE",
"483 538 CURVE SMOOTH",
"473 528 OFFCURVE",
"467 522 OFFCURVE",
"464 521 CURVE",
"463 520 OFFCURVE",
"451 500 OFFCURVE",
"450 499 CURVE SMOOTH",
"448 497 OFFCURVE",
"446 496 OFFCURVE",
"445 495 CURVE",
"445 495 OFFCURVE",
"443 493 OFFCURVE",
"438 488 CURVE",
"431 484 OFFCURVE",
"424 482 OFFCURVE",
"416 482 CURVE",
"416 489 OFFCURVE",
"417 509 OFFCURVE",
"418 526 CURVE SMOOTH",
"419 553 LINE SMOOTH",
"420 586 OFFCURVE",
"421 611 OFFCURVE",
"421 628 CURVE SMOOTH",
"421 643 LINE SMOOTH",
"421 650 OFFCURVE",
"421 654 OFFCURVE",
"420 656 CURVE",
"418 667 OFFCURVE",
"412 673 OFFCURVE",
"403 673 CURVE SMOOTH",
"371 673 LINE",
"318 673 LINE",
"236 673 LINE",
"125 673 LINE",
"103 673 LINE SMOOTH",
"93 673 OFFCURVE",
"85 672 OFFCURVE",
"80 670 CURVE",
"62 667 OFFCURVE",
"54 658 OFFCURVE",
"56 643 CURVE",
"56 633 LINE SMOOTH",
"56 624 OFFCURVE",
"57 618 OFFCURVE",
"58 613 CURVE",
"58 591 OFFCURVE",
"58 574 OFFCURVE",
"59 563 CURVE",
"59 543 LINE",
"59 528 LINE SMOOTH",
"59 504 OFFCURVE",
"58 491 OFFCURVE",
"57 478 CURVE",
"56 471 OFFCURVE",
"56 467 OFFCURVE",
"56 466 CURVE SMOOTH",
"56 465 OFFCURVE",
"56 463 OFFCURVE",
"57 460 CURVE SMOOTH",
"58 457 OFFCURVE",
"58 453 OFFCURVE",
"58 448 CURVE",
"59 428 LINE",
"59 405 OFFCURVE",
"59 388 OFFCURVE",
"56 380 CURVE",
"56 370 LINE SMOOTH",
"56 359 OFFCURVE",
"57 343 OFFCURVE",
"58 320 CURVE SMOOTH",
"59 295 LINE",
"62 262 OFFCURVE",
"63 237 OFFCURVE",
"64 220 CURVE SMOOTH",
"66 143 LINE SMOOTH",
"66 123 OFFCURVE",
"67 108 OFFCURVE",
"68 98 CURVE",
"68 58 LINE",
"69 50 OFFCURVE",
"69 40 OFFCURVE",
"69 29 CURVE SMOOTH",
"69 22 OFFCURVE",
"69 18 OFFCURVE",
"70 18 CURVE",
"73 10 LINE",
"118 6 LINE",
"125 6 LINE",
"128 5 OFFCURVE",
"134 5 OFFCURVE",
"143 5 CURVE SMOOTH",
"163 5 LINE",
"180 5 LINE",
"308 4 LINE SMOOTH",
"323 4 OFFCURVE",
"348 5 OFFCURVE",
"383 6 CURVE",
"390 5 OFFCURVE",
"395 5 OFFCURVE",
"398 8 CURVE",
"403 9 OFFCURVE",
"405 12 OFFCURVE",
"405 19 CURVE SMOOTH",
"405 23 LINE",
"405 38 LINE",
"405 51 LINE SMOOTH",
"405 60 OFFCURVE",
"405 67 OFFCURVE",
"406 73 CURVE",
"407 77 OFFCURVE",
"408 72 OFFCURVE",
"408 94 CURVE SMOOTH",
"408 116 LINE",
"408 130 LINE SMOOTH",
"408 134 OFFCURVE",
"462 197 OFFCURVE",
"467 197 CURVE SMOOTH",
"468 197 OFFCURVE",
"471 195 OFFCURVE",
"476 192 CURVE",
"491 177 LINE SMOOTH",
"495 173 OFFCURVE",
"499 168 OFFCURVE",
"504 162 CURVE SMOOTH",
"509 156 OFFCURVE",
"512 152 OFFCURVE",
"514 150 CURVE",
"610 2 LINE",
"610 1 OFFCURVE",
"612 -1 OFFCURVE",
"616 -6 CURVE",
"630 -16 LINE"
);
}
);
width = 884;
}
);
note = K;
unicode = 004B;
},
{
glyphname = L;
lastChange = "2017-06-11 23:28:21 +0000";
layers = (
{
layerId = "CBDECE4A-293B-4E5C-B714-A3FD26C7130D";
paths = (
{
closed = 1;
nodes = (
"547 0 OFFCURVE",
"560 1 OFFCURVE",
"569 3 CURVE",
"585 4 OFFCURVE",
"598 10 OFFCURVE",
"598 21 CURVE SMOOTH",
"598 23 LINE",
"598 214 LINE SMOOTH",
"598 223 OFFCURVE",
"588 234 OFFCURVE",
"573 234 CURVE SMOOTH",
"536 234 OFFCURVE",
"509 234 OFFCURVE",
"491 233 CURVE",
"418 233 LINE SMOOTH",
"405 233 OFFCURVE",
"396 233 OFFCURVE",
"396 244 CURVE SMOOTH",
"396 256 LINE",
"396 318 LINE",
"396 383 LINE",
"396 523 LINE",
"395 529 LINE",
"395 532 OFFCURVE",
"394 537 OFFCURVE",
"393 545 CURVE",
"391 556 OFFCURVE",
"390 566 OFFCURVE",
"390 573 CURVE SMOOTH",
"390 578 OFFCURVE",
"391 585 OFFCURVE",
"393 595 CURVE",
"394 603 OFFCURVE",
"395 608 OFFCURVE",
"395 610 CURVE",
"396 618 LINE",
"396 666 OFFCURVE",
"374 669 OFFCURVE",
"348 669 CURVE SMOOTH",
"335 669 OFFCURVE",
"327 669 OFFCURVE",
"324 669 CURVE SMOOTH",
"270 669 LINE",
"259 670 OFFCURVE",
"243 670 OFFCURVE",
"221 670 CURVE SMOOTH",
"211 670 OFFCURVE",
"203 670 OFFCURVE",
"198 671 CURVE",
"159 672 OFFCURVE",
"124 673 OFFCURVE",
"91 673 CURVE SMOOTH",
"84 673 OFFCURVE",
"78 670 OFFCURVE",
"75 664 CURVE",
"68 653 OFFCURVE",
"64 638 OFFCURVE",
"64 619 CURVE SMOOTH",
"64 596 LINE",
"60 524 OFFCURVE",
"59 481 OFFCURVE",
"59 426 CURVE SMOOTH",
"60 344 LINE",
"60 248 LINE",
"60 28 LINE SMOOTH",
"60 16 OFFCURVE",
"73 3 OFFCURVE",
"85 3 CURVE SMOOTH",
"167 2 LINE",
"182 1 OFFCURVE",
"204 1 OFFCURVE",
"233 1 CURVE SMOOTH",
"264 0 OFFCURVE",
"314 0 OFFCURVE",
"383 0 CURVE SMOOTH",
"528 0 LINE SMOOTH"
);
}
);
width = 625;
}
);
note = L;
unicode = 004C;
},
{
glyphname = Ldot;
lastChange = "2017-06-11 23:28:21 +0000";
layers = (
{
layerId = "CBDECE4A-293B-4E5C-B714-A3FD26C7130D";
paths = (
{
closed = 1;
nodes = (
"547 0 OFFCURVE",
"560 1 OFFCURVE",
"569 3 CURVE",
"585 4 OFFCURVE",
"598 10 OFFCURVE",
"598 21 CURVE SMOOTH",
"598 23 LINE",
"598 214 LINE SMOOTH",
"598 223 OFFCURVE",
"588 234 OFFCURVE",
"573 234 CURVE SMOOTH",
"536 234 OFFCURVE",
"509 234 OFFCURVE",
"491 233 CURVE",
"418 233 LINE SMOOTH",
"405 233 OFFCURVE",
"396 233 OFFCURVE",
"396 244 CURVE SMOOTH",
"396 256 LINE",
"396 318 LINE",
"396 383 LINE",
"396 523 LINE",
"395 529 LINE",
"395 532 OFFCURVE",
"394 537 OFFCURVE",
"393 545 CURVE",
"391 556 OFFCURVE",
"390 566 OFFCURVE",
"390 573 CURVE SMOOTH",
"390 578 OFFCURVE",
"391 585 OFFCURVE",
"393 595 CURVE",
"394 603 OFFCURVE",
"395 608 OFFCURVE",
"395 610 CURVE",
"396 618 LINE",
"396 666 OFFCURVE",
"374 669 OFFCURVE",
"348 669 CURVE SMOOTH",
"335 669 OFFCURVE",
"327 669 OFFCURVE",
"324 669 CURVE SMOOTH",
"270 669 LINE",
"259 670 OFFCURVE",
"243 670 OFFCURVE",
"221 670 CURVE SMOOTH",
"211 670 OFFCURVE",
"203 670 OFFCURVE",
"198 671 CURVE",
"159 672 OFFCURVE",
"124 673 OFFCURVE",
"91 673 CURVE SMOOTH",
"84 673 OFFCURVE",
"78 670 OFFCURVE",
"75 664 CURVE",
"68 653 OFFCURVE",
"64 638 OFFCURVE",
"64 619 CURVE SMOOTH",
"64 596 LINE",
"60 524 OFFCURVE",
"59 481 OFFCURVE",
"59 426 CURVE SMOOTH",
"60 344 LINE",
"60 248 LINE",
"60 28 LINE SMOOTH",
"60 16 OFFCURVE",
"73 3 OFFCURVE",
"85 3 CURVE SMOOTH",
"167 2 LINE",
"182 1 OFFCURVE",
"204 1 OFFCURVE",
"233 1 CURVE SMOOTH",
"264 0 OFFCURVE",
"314 0 OFFCURVE",
"383 0 CURVE SMOOTH",
"528 0 LINE SMOOTH"
);
},
{
closed = 1;
nodes = (
"523 351 LINE",
"527 353 LINE",
"527 354 OFFCURVE",
"527 354 OFFCURVE",
"528 354 CURVE",
"533 353 LINE",
"534 352 OFFCURVE",
"536 351 OFFCURVE",
"539 351 CURVE",
"543 353 LINE",
"548 354 LINE",
"563 355 LINE",
"568 357 LINE",
"568 357 LINE",
"571 357 LINE",
"571 356 OFFCURVE",
"571 356 OFFCURVE",
"572 356 CURVE",
"572 356 OFFCURVE",
"572 356 OFFCURVE",
"572 356 CURVE",
"581 357 LINE",
"585 359 OFFCURVE",
"587 362 OFFCURVE",
"588 367 CURVE",
"591 375 LINE",
"591 441 LINE SMOOTH",
"591 448 OFFCURVE",
"591 454 OFFCURVE",
"591 457 CURVE",
"590 460 OFFCURVE",
"590 463 OFFCURVE",
"590 464 CURVE SMOOTH",
"590 473 LINE",
"590 479 LINE SMOOTH",
"590 484 OFFCURVE",
"590 487 OFFCURVE",
"591 490 CURVE",
"591 491 LINE SMOOTH",
"591 496 OFFCURVE",
"586 499 OFFCURVE",
"575 499 CURVE SMOOTH",
"566 499 LINE",
"557 499 LINE",
"552 499 LINE",
"545 499 LINE",
"537 499 LINE",
"530 499 LINE",
"510 499 LINE",
"507 498 OFFCURVE",
"501 497 OFFCURVE",
"494 497 CURVE SMOOTH",
"489 497 OFFCURVE",
"485 497 OFFCURVE",
"482 498 CURVE",
"478 499 OFFCURVE",
"474 499 OFFCURVE",
"470 499 CURVE SMOOTH",
"446 499 LINE SMOOTH",
"436 499 OFFCURVE",
"430 496 OFFCURVE",
"428 490 CURVE",
"428 471 LINE",
"427 460 OFFCURVE",
"426 452 OFFCURVE",
"426 446 CURVE",
"425 434 OFFCURVE",
"424 416 OFFCURVE",
"424 393 CURVE SMOOTH",
"424 376 OFFCURVE",
"424 366 OFFCURVE",
"425 362 CURVE",
"430 357 LINE",
"484 353 LINE",
"488 353 OFFCURVE",
"492 352 OFFCURVE",
"496 351 CURVE",
"507 351 LINE"
);
}
);
width = 625;
}
);
note = Ldot;
unicode = 013F;
},
{
glyphname = Lslash;
lastChange = "2017-06-13 13:43:49 +0000";
layers = (
{
layerId = "CBDECE4A-293B-4E5C-B714-A3FD26C7130D";
paths = (
{
closed = 1;
nodes = (
"588 0 OFFCURVE",
"601 1 OFFCURVE",
"610 3 CURVE",
"626 4 OFFCURVE",
"639 10 OFFCURVE",
"639 21 CURVE SMOOTH",
"639 23 LINE",
"639 214 LINE SMOOTH",
"639 223 OFFCURVE",
"627 234 OFFCURVE",
"614 234 CURVE SMOOTH",
"577 234 OFFCURVE",
"550 234 OFFCURVE",
"533 233 CURVE",
"458 233 LINE SMOOTH",
"445 233 OFFCURVE",
"438 232 OFFCURVE",
"438 244 CURVE SMOOTH",
"438 256 LINE",
"438 386 LINE",
"445 388 LINE",
"495 401 LINE",
"499 403 LINE",
"501 403 OFFCURVE",
"503 404 OFFCURVE",
"504 405 CURVE",
"508 407 OFFCURVE",
"510 408 OFFCURVE",
"511 408 CURVE",
"555 419 OFFCURVE",
"563 440 OFFCURVE",
"563 476 CURVE",
"564 552 OFFCURVE",
"565 543 OFFCURVE",
"565 564 CURVE SMOOTH",
"565 575 OFFCURVE",
"558 581 OFFCURVE",
"544 583 CURVE",
"536 583 OFFCURVE",
"523 580 OFFCURVE",
"504 575 CURVE",
"498 574 OFFCURVE",
"492 573 OFFCURVE",
"486 572 CURVE",
"480 570 OFFCURVE",
"474 569 OFFCURVE",
"468 568 CURVE",
"465 567 OFFCURVE",
"453 564 OFFCURVE",
"433 561 CURVE",
"432 562 OFFCURVE",
"431 565 OFFCURVE",
"431 568 CURVE SMOOTH",
"431 573 LINE",
"434 595 LINE SMOOTH",
"435 603 OFFCURVE",
"436 608 OFFCURVE",
"436 610 CURVE",
"437 614 OFFCURVE",
"438 617 OFFCURVE",
"438 618 CURVE SMOOTH",
"438 642 OFFCURVE",
"431 657 OFFCURVE",
"418 664 CURVE SMOOTH",
"410 668 OFFCURVE",
"399 669 OFFCURVE",
"382 669 CURVE SMOOTH",
"373 669 OFFCURVE",
"368 669 OFFCURVE",
"365 669 CURVE SMOOTH",
"311 669 LINE",
"300 670 OFFCURVE",
"284 670 OFFCURVE",
"263 670 CURVE",
"236 671 LINE SMOOTH",
"197 672 OFFCURVE",
"163 673 OFFCURVE",
"133 673 CURVE SMOOTH",
"125 673 OFFCURVE",
"119 670 OFFCURVE",
"116 664 CURVE",
"109 654 OFFCURVE",
"105 639 OFFCURVE",
"105 619 CURVE SMOOTH",
"105 596 LINE",
"102 558 OFFCURVE",
"101 515 OFFCURVE",
"100 468 CURVE",
"97 468 OFFCURVE",
"95 468 OFFCURVE",
"93 467 CURVE",
"90 466 OFFCURVE",
"88 465 OFFCURVE",
"86 464 CURVE",
"46 454 LINE",
"35 450 OFFCURVE",
"20 433 OFFCURVE",
"20 422 CURVE SMOOTH",
"20 398 OFFCURVE",
"21 329 OFFCURVE",
"21 305 CURVE SMOOTH",
"21 291 OFFCURVE",
"30 284 OFFCURVE",
"47 284 CURVE SMOOTH",
"53 284 OFFCURVE",
"88 292 OFFCURVE",
"101 295 CURVE",
"101 28 LINE SMOOTH",
"101 16 OFFCURVE",
"114 3 OFFCURVE",
"126 3 CURVE SMOOTH",
"208 2 LINE",
"223 1 OFFCURVE",
"245 1 OFFCURVE",
"274 1 CURVE SMOOTH",
"305 0 OFFCURVE",
"355 0 OFFCURVE",
"423 0 CURVE SMOOTH",
"569 0 LINE SMOOTH"
);
}
);
width = 676;
}
);
note = Lslash;
unicode = 0141;
},
{
glyphname = M;
lastChange = "2017-06-14 18:08:37 +0000";
layers = (
{
layerId = "CBDECE4A-293B-4E5C-B714-A3FD26C7130D";
paths = (
{
closed = 1;
nodes = (
"209 -3 OFFCURVE",
"226 1 OFFCURVE",
"242 2 CURVE SMOOTH",
"255 3 OFFCURVE",
"273 5 OFFCURVE",
"296 6 CURVE",
"301 5 LINE",
"308 5 LINE SMOOTH",
"311 5 OFFCURVE",
"313 9 OFFCURVE",
"314 18 CURVE",
"321 45 OFFCURVE",
"323 100 OFFCURVE",
"323 193 CURVE SMOOTH",
"323 240 LINE SMOOTH",
"323 245 OFFCURVE",
"325 248 OFFCURVE",
"330 248 CURVE SMOOTH",
"331 248 OFFCURVE",
"332 243 OFFCURVE",
"338 235 CURVE SMOOTH",
"363 198 LINE",
"386 147 OFFCURVE",
"431 101 OFFCURVE",
"458 58 CURVE",
"478 58 LINE",
"500 58 LINE",
"505 57 OFFCURVE",
"512 56 OFFCURVE",
"520 56 CURVE SMOOTH",
"535 56 LINE SMOOTH",
"541 56 OFFCURVE",
"548 58 OFFCURVE",
"556 63 CURVE",
"585 84 OFFCURVE",
"604 124 OFFCURVE",
"616 151 CURVE SMOOTH",
"621 163 LINE",
"625 170 OFFCURVE",
"627 178 OFFCURVE",
"630 186 CURVE SMOOTH",
"639 211 LINE",
"650 238 LINE SMOOTH",
"653 245 OFFCURVE",
"655 248 OFFCURVE",
"658 248 CURVE SMOOTH",
"663 248 OFFCURVE",
"665 245 OFFCURVE",
"665 240 CURVE SMOOTH",
"665 217 OFFCURVE",
"665 200 OFFCURVE",
"666 188 CURVE",
"667 134 LINE",
"668 122 OFFCURVE",
"668 105 OFFCURVE",
"668 84 CURVE SMOOTH",
"668 52 OFFCURVE",
"670 29 OFFCURVE",
"674 16 CURVE",
"675 9 OFFCURVE",
"677 5 OFFCURVE",
"680 5 CURVE SMOOTH",
"688 5 LINE",
"689 6 OFFCURVE",
"690 6 OFFCURVE",
"691 6 CURVE",
"730 3 LINE",
"747 3 OFFCURVE",
"759 1 OFFCURVE",
"768 0 CURVE",
"793 -1 LINE SMOOTH",
"814 -2 OFFCURVE",
"831 -3 OFFCURVE",
"843 -3 CURVE SMOOTH",
"850 -3 OFFCURVE",
"855 -2 OFFCURVE",
"860 -1 CURVE",
"880 -1 LINE",
"898 -1 LINE",
"905 -1 LINE",
"950 10 LINE",
"953 18 LINE",
"953 29 LINE",
"953 58 LINE",
"950 73 OFFCURVE",
"950 103 OFFCURVE",
"950 143 CURVE SMOOTH",
"950 162 OFFCURVE",
"950 176 OFFCURVE",
"949 185 CURVE",
"949 220 LINE",
"951 240 LINE",
"952 256 OFFCURVE",
"958 325 OFFCURVE",
"958 370 CURVE SMOOTH",
"958 428 LINE SMOOTH",
"958 488 OFFCURVE",
"957 532 OFFCURVE",
"956 560 CURVE SMOOTH",
"953 658 LINE",
"951 668 OFFCURVE",
"949 673 OFFCURVE",
"948 673 CURVE SMOOTH",
"926 673 LINE",
"913 673 LINE",
"903 673 LINE",
"888 673 LINE",
"719 673 LINE",
"641 673 LINE SMOOTH",
"640 673 OFFCURVE",
"639 672 OFFCURVE",
"638 671 CURVE SMOOTH",
"637 670 OFFCURVE",
"636 669 OFFCURVE",
"634 668 CURVE",
"631 665 OFFCURVE",
"628 661 OFFCURVE",
"625 656 CURVE",
"615 641 OFFCURVE",
"609 631 OFFCURVE",
"606 625 CURVE",
"605 624 OFFCURVE",
"604 621 OFFCURVE",
"603 618 CURVE",
"602 614 OFFCURVE",
"600 609 OFFCURVE",
"598 604 CURVE",
"581 568 LINE",
"541 483 LINE",
"526 450 LINE",
"523 445 OFFCURVE",
"522 441 OFFCURVE",
"521 439 CURVE",
"520 436 OFFCURVE",
"520 435 OFFCURVE",
"519 434 CURVE",
"515 423 OFFCURVE",
"510 398 OFFCURVE",
"503 398 CURVE SMOOTH",
"498 398 OFFCURVE",
"475 423 OFFCURVE",
"470 434 CURVE",
"470 435 OFFCURVE",
"469 436 OFFCURVE",
"468 439 CURVE",
"466 441 OFFCURVE",
"464 444 OFFCURVE",
"463 449 CURVE",
"461 454 OFFCURVE",
"459 460 OFFCURVE",
"457 465 CURVE",
"454 470 OFFCURVE",
"452 476 OFFCURVE",
"450 481 CURVE SMOOTH",
"442 500 OFFCURVE",
"437 514 OFFCURVE",
"432 524 CURVE",
"408 555 LINE SMOOTH",
"394 574 OFFCURVE",
"394 593 OFFCURVE",
"389 604 CURVE",
"371 625 OFFCURVE",
"367 633 OFFCURVE",
"363 641 CURVE",
"355 654 OFFCURVE",
"348 663 OFFCURVE",
"343 668 CURVE SMOOTH",
"342 669 OFFCURVE",
"340 670 OFFCURVE",
"339 671 CURVE SMOOTH",
"338 672 OFFCURVE",
"337 673 OFFCURVE",
"336 673 CURVE SMOOTH",
"258 673 LINE",
"129 673 LINE SMOOTH",
"112 673 OFFCURVE",
"99 671 OFFCURVE",
"88 668 CURVE SMOOTH",
"72 664 OFFCURVE",
"60 654 OFFCURVE",
"60 641 CURVE SMOOTH",
"60 640 OFFCURVE",
"61 638 OFFCURVE",
"62 637 CURVE SMOOTH",
"63 636 OFFCURVE",
"63 635 OFFCURVE",
"63 634 CURVE SMOOTH",
"63 624 OFFCURVE",
"63 615 OFFCURVE",
"64 608 CURVE",
"65 580 LINE",
"65 561 OFFCURVE",
"64 541 OFFCURVE",
"63 518 CURVE",
"61 500 OFFCURVE",
"60 483 OFFCURVE",
"60 466 CURVE",
"61 459 LINE",
"61 454 OFFCURVE",
"62 450 OFFCURVE",
"63 448 CURVE",
"63 435 LINE",
"63 428 LINE SMOOTH",
"63 379 OFFCURVE",
"62 344 OFFCURVE",
"61 323 CURVE SMOOTH",
"60 289 LINE SMOOTH",
"59 260 OFFCURVE",
"58 237 OFFCURVE",
"58 220 CURVE SMOOTH",
"60 143 LINE SMOOTH",
"60 123 OFFCURVE",
"60 108 OFFCURVE",
"61 98 CURVE",
"62 52 LINE",
"63 46 OFFCURVE",
"63 38 OFFCURVE",
"63 29 CURVE SMOOTH",
"63 22 OFFCURVE",
"63 18 OFFCURVE",
"64 18 CURVE",
"68 10 LINE",
"113 -1 LINE",
"120 -1 LINE",
"138 -1 LINE",
"158 -1 LINE",
"162 -2 OFFCURVE",
"167 -3 OFFCURVE",
"174 -3 CURVE SMOOTH"
);
}
);
width = 1015;
}
);
note = M;
unicode = 004D;
},
{
glyphname = N;
lastChange = "2017-06-14 18:10:45 +0000";
layers = (
{
layerId = "CBDECE4A-293B-4E5C-B714-A3FD26C7130D";
paths = (
{
closed = 1;
nodes = (
"191 -3 OFFCURVE",
"238 1 OFFCURVE",
"254 2 CURVE SMOOTH",
"267 3 OFFCURVE",
"285 5 OFFCURVE",
"308 6 CURVE",
"315 5 OFFCURVE",
"321 5 OFFCURVE",
"324 8 CURVE",
"329 9 OFFCURVE",
"332 13 OFFCURVE",
"332 18 CURVE",
"331 23 LINE",
"331 38 LINE",
"331 58 LINE SMOOTH",
"331 70 OFFCURVE",
"332 80 OFFCURVE",
"333 88 CURVE",
"333 126 LINE",
"333 165 LINE SMOOTH",
"333 180 OFFCURVE",
"333 191 OFFCURVE",
"334 198 CURVE",
"334 220 LINE SMOOTH",
"334 225 OFFCURVE",
"337 228 OFFCURVE",
"343 228 CURVE SMOOTH",
"344 228 OFFCURVE",
"345 227 OFFCURVE",
"347 226 CURVE",
"348 224 OFFCURVE",
"350 222 OFFCURVE",
"351 219 CURVE",
"360 207 OFFCURVE",
"388 182 OFFCURVE",
"388 181 CURVE",
"560 18 LINE",
"575 6 OFFCURVE",
"592 -3 OFFCURVE",
"619 0 CURVE",
"634 0 LINE",
"695 0 LINE",
"714 0 LINE",
"759 0 LINE",
"776 -1 LINE",
"793 0 LINE",
"801 3 OFFCURVE",
"806 13 OFFCURVE",
"809 28 CURVE",
"813 66 LINE",
"813 224 LINE",
"813 258 LINE",
"813 316 LINE SMOOTH",
"813 347 OFFCURVE",
"813 372 OFFCURVE",
"814 389 CURVE",
"814 463 LINE SMOOTH",
"814 490 OFFCURVE",
"814 510 OFFCURVE",
"815 521 CURVE",
"815 553 LINE",
"813 563 LINE",
"813 571 LINE",
"813 583 LINE SMOOTH",
"813 590 OFFCURVE",
"813 595 OFFCURVE",
"814 599 CURVE",
"815 615 LINE",
"816 625 LINE",
"816 661 OFFCURVE",
"805 668 OFFCURVE",
"770 668 CURVE SMOOTH",
"758 668 LINE",
"730 668 LINE",
"696 668 LINE",
"687 669 OFFCURVE",
"716 669 OFFCURVE",
"701 669 CURVE SMOOTH",
"688 669 OFFCURVE",
"678 669 OFFCURVE",
"673 670 CURVE",
"661 670 LINE",
"604 670 LINE SMOOTH",
"600 670 OFFCURVE",
"595 669 OFFCURVE",
"588 668 CURVE",
"580 665 OFFCURVE",
"572 660 OFFCURVE",
"564 653 CURVE",
"563 652 OFFCURVE",
"562 652 OFFCURVE",
"561 651 CURVE SMOOTH",
"560 650 OFFCURVE",
"559 648 OFFCURVE",
"558 646 CURVE SMOOTH",
"557 644 OFFCURVE",
"557 640 OFFCURVE",
"556 635 CURVE",
"553 564 LINE",
"553 471 LINE",
"552 461 OFFCURVE",
"551 447 OFFCURVE",
"551 430 CURVE",
"519 458 LINE",
"383 589 LINE SMOOTH",
"374 597 OFFCURVE",
"366 613 OFFCURVE",
"354 631 CURVE SMOOTH",
"346 643 OFFCURVE",
"348 637 OFFCURVE",
"340 648 CURVE",
"337 653 OFFCURVE",
"321 672 OFFCURVE",
"314 676 CURVE SMOOTH",
"307 680 OFFCURVE",
"294 681 OFFCURVE",
"275 681 CURVE SMOOTH",
"265 681 OFFCURVE",
"240 681 OFFCURVE",
"200 677 CURVE SMOOTH",
"178 675 LINE",
"139 674 OFFCURVE",
"138 673 OFFCURVE",
"113 673 CURVE SMOOTH",
"80 673 OFFCURVE",
"61 665 OFFCURVE",
"65 634 CURVE",
"66 623 OFFCURVE",
"66 605 OFFCURVE",
"66 582 CURVE SMOOTH",
"66 559 OFFCURVE",
"66 541 OFFCURVE",
"65 530 CURVE",
"63 428 LINE SMOOTH",
"63 359 OFFCURVE",
"63 281 OFFCURVE",
"70 220 CURVE",
"70 185 LINE",
"71 176 OFFCURVE",
"71 162 OFFCURVE",
"71 143 CURVE",
"72 132 OFFCURVE",
"73 117 OFFCURVE",
"73 98 CURVE SMOOTH",
"73 72 OFFCURVE",
"74 49 OFFCURVE",
"75 29 CURVE",
"75 22 OFFCURVE",
"75 18 OFFCURVE",
"76 18 CURVE",
"79 10 LINE",
"124 -1 LINE",
"133 -1 LINE",
"149 -1 LINE",
"169 -1 LINE",
"174 -2 OFFCURVE",
"179 -3 OFFCURVE",
"186 -3 CURVE SMOOTH"
);
}
);
width = 873;
}
);
note = N;
unicode = 004E;
},
{
glyphname = Eng;
lastChange = "2017-06-15 13:23:39 +0000";
layers = (
{
layerId = "CBDECE4A-293B-4E5C-B714-A3FD26C7130D";
paths = (
{
closed = 1;
nodes = (
"618 -293 OFFCURVE",
"638 -288 OFFCURVE",
"663 -278 CURVE SMOOTH",
"708 -260 OFFCURVE",
"744 -231 OFFCURVE",
"769 -191 CURVE",
"809 -140 OFFCURVE",
"813 -59 OFFCURVE",
"813 58 CURVE SMOOTH",
"813 224 LINE",
"813 258 LINE",
"813 316 LINE SMOOTH",
"813 347 OFFCURVE",
"813 372 OFFCURVE",
"814 389 CURVE",
"814 463 LINE SMOOTH",
"814 490 OFFCURVE",
"814 510 OFFCURVE",
"815 521 CURVE",
"815 553 LINE",
"813 563 LINE",
"813 571 LINE",
"813 583 LINE SMOOTH",
"813 590 OFFCURVE",
"813 595 OFFCURVE",
"814 599 CURVE",
"815 615 LINE",
"816 625 LINE",
"816 661 OFFCURVE",
"805 668 OFFCURVE",
"770 668 CURVE SMOOTH",
"758 668 LINE",
"730 668 LINE",
"696 668 LINE",
"687 669 OFFCURVE",
"676 669 OFFCURVE",
"661 669 CURVE SMOOTH",
"648 669 OFFCURVE",
"638 669 OFFCURVE",
"633 670 CURVE",
"621 670 LINE",
"564 670 LINE SMOOTH",
"560 670 OFFCURVE",
"555 669 OFFCURVE",
"548 668 CURVE",
"540 665 OFFCURVE",
"532 660 OFFCURVE",
"524 653 CURVE",
"523 652 OFFCURVE",
"522 652 OFFCURVE",
"521 651 CURVE SMOOTH",
"520 650 OFFCURVE",
"519 648 OFFCURVE",
"518 646 CURVE SMOOTH",
"517 644 OFFCURVE",
"517 640 OFFCURVE",
"516 635 CURVE",
"513 564 LINE",
"513 471 LINE",
"512 461 OFFCURVE",
"511 447 OFFCURVE",
"511 430 CURVE",
"479 478 LINE",
"413 579 LINE SMOOTH",
"406 589 OFFCURVE",
"396 603 OFFCURVE",
"384 621 CURVE SMOOTH",
"376 633 OFFCURVE",
"368 644 OFFCURVE",
"360 655 CURVE",
"357 660 OFFCURVE",
"351 672 OFFCURVE",
"344 676 CURVE SMOOTH",
"337 680 OFFCURVE",
"324 681 OFFCURVE",
"305 681 CURVE SMOOTH",
"295 681 OFFCURVE",
"270 680 OFFCURVE",
"230 677 CURVE SMOOTH",
"208 675 LINE",
"169 674 OFFCURVE",
"138 673 OFFCURVE",
"113 673 CURVE SMOOTH",
"80 673 OFFCURVE",
"61 665 OFFCURVE",
"65 634 CURVE",
"66 623 OFFCURVE",
"66 605 OFFCURVE",
"66 582 CURVE SMOOTH",
"66 559 OFFCURVE",
"66 541 OFFCURVE",
"65 530 CURVE",
"63 428 LINE SMOOTH",
"63 359 OFFCURVE",
"63 281 OFFCURVE",
"70 220 CURVE",
"70 185 LINE",
"71 176 OFFCURVE",
"71 162 OFFCURVE",
"71 143 CURVE",
"72 132 OFFCURVE",
"73 117 OFFCURVE",
"73 98 CURVE SMOOTH",
"73 72 OFFCURVE",
"74 49 OFFCURVE",
"75 29 CURVE",
"75 22 OFFCURVE",
"75 18 OFFCURVE",
"76 18 CURVE",
"79 10 LINE",
"124 -1 LINE",
"133 -1 LINE",
"149 -1 LINE",
"169 -1 LINE",
"174 -2 OFFCURVE",
"179 -3 OFFCURVE",
"186 -3 CURVE SMOOTH",
"221 -3 OFFCURVE",
"268 1 OFFCURVE",
"284 2 CURVE SMOOTH",
"297 3 OFFCURVE",
"315 5 OFFCURVE",
"338 6 CURVE",
"345 5 OFFCURVE",
"351 5 OFFCURVE",
"354 8 CURVE",
"359 9 OFFCURVE",
"362 13 OFFCURVE",
"362 18 CURVE",
"361 23 LINE",
"361 38 LINE",
"361 58 LINE SMOOTH",
"361 70 OFFCURVE",
"362 80 OFFCURVE",
"363 88 CURVE",
"363 126 LINE",
"363 165 LINE SMOOTH",
"363 180 OFFCURVE",
"363 191 OFFCURVE",
"364 198 CURVE",
"364 220 LINE SMOOTH",
"364 225 OFFCURVE",
"367 228 OFFCURVE",
"373 228 CURVE SMOOTH",
"374 228 OFFCURVE",
"375 227 OFFCURVE",
"377 226 CURVE",
"378 224 OFFCURVE",
"380 222 OFFCURVE",
"381 219 CURVE",
"390 207 OFFCURVE",
"418 162 OFFCURVE",
"418 161 CURVE",
"509 33 LINE",
"509 -21 OFFCURVE",
"508 -38 OFFCURVE",
"505 -59 CURVE",
"501 -78 LINE",
"500 -80 OFFCURVE",
"500 -83 OFFCURVE",
"499 -88 CURVE SMOOTH",
"498 -93 OFFCURVE",
"496 -97 OFFCURVE",
"493 -101 CURVE",
"487 -120 OFFCURVE",
"476 -129 OFFCURVE",
"461 -129 CURVE SMOOTH",
"405 -129 OFFCURVE",
"377 -125 OFFCURVE",
"301 -100 CURVE",
"300 -99 OFFCURVE",
"300 -99 OFFCURVE",
"300 -100 CURVE",
"299 -101 OFFCURVE",
"298 -105 OFFCURVE",
"298 -110 CURVE SMOOTH",
"298 -113 OFFCURVE",
"297 -116 OFFCURVE",
"296 -120 CURVE",
"295 -131 OFFCURVE",
"293 -145 OFFCURVE",
"293 -154 CURVE SMOOTH",
"293 -196 LINE",
"292 -201 OFFCURVE",
"290 -208 OFFCURVE",
"289 -216 CURVE SMOOTH",
"287 -238 LINE",
"287 -241 OFFCURVE",
"287 -243 OFFCURVE",
"288 -244 CURVE",
"333 -264 LINE SMOOTH",
"390 -288 OFFCURVE",
"453 -300 OFFCURVE",
"521 -300 CURVE SMOOTH",
"548 -300 OFFCURVE",
"576 -298 OFFCURVE",
"603 -294 CURVE"
);
}
);
width = 873;
}
);
note = Eng;
unicode = 014A;
},
{
glyphname = O;
lastChange = "2017-06-14 18:18:11 +0000";
layers = (
{
layerId = "CBDECE4A-293B-4E5C-B714-A3FD26C7130D";
paths = (
{
closed = 1;
nodes = (
"625 -29 OFFCURVE",
"745 10 OFFCURVE",
"807 115 CURVE SMOOTH",
"840 171 OFFCURVE",
"853 252 OFFCURVE",
"853 355 CURVE SMOOTH",
"853 443 OFFCURVE",
"832 514 OFFCURVE",
"790 568 CURVE SMOOTH",
"720 658 OFFCURVE",
"580 699 OFFCURVE",
"467 699 CURVE SMOOTH",
"322 699 OFFCURVE",
"203 667 OFFCURVE",
"139 606 CURVE SMOOTH",
"75 545 OFFCURVE",
"45 450 OFFCURVE",
"45 313 CURVE SMOOTH",
"45 217 OFFCURVE",
"64 142 OFFCURVE",
"103 88 CURVE SMOOTH",
"169 -4 OFFCURVE",
"298 -29 OFFCURVE",
"457 -29 CURVE SMOOTH"
);
},
{
closed = 1;
nodes = (
"434 63 OFFCURVE",
"424 80 OFFCURVE",
"417 115 CURVE SMOOTH",
"409 156 OFFCURVE",
"407 203 OFFCURVE",
"407 234 CURVE",
"405 259 OFFCURVE",
"404 290 OFFCURVE",
"404 328 CURVE SMOOTH",
"404 385 OFFCURVE",
"405 426 OFFCURVE",
"407 453 CURVE",
"407 484 OFFCURVE",
"410 529 OFFCURVE",
"417 568 CURVE",
"424 596 OFFCURVE",
"434 610 OFFCURVE",
"449 610 CURVE SMOOTH",
"456 610 OFFCURVE",
"463 604 OFFCURVE",
"468 593 CURVE SMOOTH",
"489 546 OFFCURVE",
"495 432 OFFCURVE",
"495 373 CURVE SMOOTH",
"495 348 LINE",
"495 308 LINE SMOOTH",
"495 233 OFFCURVE",
"489 120 OFFCURVE",
"468 78 CURVE SMOOTH",
"463 68 OFFCURVE",
"457 63 OFFCURVE",
"449 63 CURVE SMOOTH"
);
}
);
width = 898;
}
);
note = O;
unicode = 004F;
},
{
glyphname = uni0230;
lastChange = "2017-06-11 23:28:21 +0000";
layers = (
{
layerId = "CBDECE4A-293B-4E5C-B714-A3FD26C7130D";
paths = (
{
closed = 1;
nodes = (
"626 961 OFFCURVE",
"633 968 OFFCURVE",
"635 981 CURVE",
"638 990 OFFCURVE",
"639 1001 OFFCURVE",
"639 1016 CURVE SMOOTH",
"639 1039 LINE",
"638 1047 OFFCURVE",
"638 1056 OFFCURVE",
"638 1066 CURVE SMOOTH",
"638 1076 LINE SMOOTH",
"638 1080 OFFCURVE",
"638 1085 OFFCURVE",
"637 1092 CURVE SMOOTH",
"636 1098 OFFCURVE",
"636 1106 OFFCURVE",
"636 1116 CURVE SMOOTH",
"636 1136 OFFCURVE",
"608 1141 OFFCURVE",
"581 1141 CURVE SMOOTH",
"558 1141 LINE SMOOTH",
"545 1141 OFFCURVE",
"515 1142 OFFCURVE",
"468 1143 CURVE SMOOTH",
"428 1144 LINE SMOOTH",
"401 1145 OFFCURVE",
"384 1146 OFFCURVE",
"375 1146 CURVE SMOOTH",
"353 1146 LINE",
"243 1146 LINE SMOOTH",
"235 1146 OFFCURVE",
"227 1138 OFFCURVE",
"226 1137 CURVE",
"221 1133 OFFCURVE",
"218 1128 OFFCURVE",
"218 1121 CURVE SMOOTH",
"218 1104 OFFCURVE",
"218 1093 OFFCURVE",
"219 1086 CURVE",
"219 1057 LINE",
"219 1027 LINE",
"219 991 LINE SMOOTH",
"219 984 OFFCURVE",
"221 979 OFFCURVE",
"226 976 CURVE",
"234 968 OFFCURVE",
"247 966 OFFCURVE",
"268 966 CURVE SMOOTH",
"296 966 LINE",
"396 966 LINE",
"406 966 LINE",
"428 966 LINE SMOOTH",
"438 966 OFFCURVE",
"446 965 OFFCURVE",
"453 964 CURVE",
"456 963 OFFCURVE",
"461 963 OFFCURVE",
"466 964 CURVE",
"471 964 OFFCURVE",
"475 964 OFFCURVE",
"478 964 CURVE SMOOTH",
"498 964 LINE",
"508 963 LINE",
"533 963 LINE",
"555 962 LINE",
"566 962 OFFCURVE",
"574 962 OFFCURVE",
"581 961 CURVE",
"615 961 LINE SMOOTH"
);
},
{
closed = 1;
nodes = (
"526 740 LINE",
"537 741 OFFCURVE",
"543 750 OFFCURVE",
"543 768 CURVE SMOOTH",
"543 778 OFFCURVE",
"542 785 OFFCURVE",
"541 790 CURVE",
"540 793 OFFCURVE",
"540 796 OFFCURVE",
"541 801 CURVE",
"541 806 OFFCURVE",
"541 809 OFFCURVE",
"541 811 CURVE SMOOTH",
"541 821 LINE",
"541 834 LINE",
"541 844 LINE",
"540 845 OFFCURVE",
"540 847 OFFCURVE",
"540 848 CURVE SMOOTH",
"540 849 OFFCURVE",
"540 849 OFFCURVE",
"540 850 CURVE SMOOTH",
"540 859 OFFCURVE",
"540 865 OFFCURVE",
"541 870 CURVE",
"542 873 OFFCURVE",
"542 877 OFFCURVE",
"542 881 CURVE",
"541 885 OFFCURVE",
"541 888 OFFCURVE",
"541 890 CURVE SMOOTH",
"541 899 OFFCURVE",
"540 905 OFFCURVE",
"539 909 CURVE SMOOTH",
"538 913 OFFCURVE",
"535 915 OFFCURVE",
"530 915 CURVE SMOOTH",
"526 915 LINE",
"520 914 LINE",
"513 914 LINE SMOOTH",
"510 914 OFFCURVE",
"507 914 OFFCURVE",
"505 915 CURVE",
"503 915 OFFCURVE",
"501 915 OFFCURVE",
"500 915 CURVE",
"486 916 LINE",
"451 914 LINE",
"348 914 LINE SMOOTH",
"331 914 OFFCURVE",
"328 910 OFFCURVE",
"319 885 CURVE",
"319 884 OFFCURVE",
"319 884 OFFCURVE",
"320 883 CURVE",
"320 882 OFFCURVE",
"320 881 OFFCURVE",
"320 880 CURVE SMOOTH",
"320 878 LINE",
"316 846 LINE",
"314 842 OFFCURVE",
"313 838 OFFCURVE",
"313 835 CURVE",
"314 828 LINE",
"315 808 LINE",
"315 779 LINE",
"321 746 LINE",
"328 740 LINE"
);
},
{
closed = 1;
nodes = (
"606 -24 OFFCURVE",
"707 10 OFFCURVE",
"768 115 CURVE SMOOTH",
"799 172 OFFCURVE",
"814 252 OFFCURVE",
"814 355 CURVE SMOOTH",
"814 443 OFFCURVE",
"793 514 OFFCURVE",
"751 568 CURVE SMOOTH",
"683 659 OFFCURVE",
"561 695 OFFCURVE",
"448 695 CURVE SMOOTH",
"303 695 OFFCURVE",
"204 667 OFFCURVE",
"140 606 CURVE SMOOTH",
"76 545 OFFCURVE",
"46 450 OFFCURVE",
"46 313 CURVE SMOOTH",
"46 217 OFFCURVE",
"65 142 OFFCURVE",
"104 88 CURVE SMOOTH",
"171 -3 OFFCURVE",
"279 -24 OFFCURVE",
"438 -24 CURVE SMOOTH"
);
},
{
closed = 1;
nodes = (
"415 73 OFFCURVE",
"405 90 OFFCURVE",
"398 125 CURVE SMOOTH",
"391 166 OFFCURVE",
"388 203 OFFCURVE",
"388 234 CURVE",
"386 259 OFFCURVE",
"385 290 OFFCURVE",
"385 328 CURVE SMOOTH",
"385 385 OFFCURVE",
"386 426 OFFCURVE",
"388 453 CURVE",
"388 484 OFFCURVE",
"391 519 OFFCURVE",
"398 558 CURVE",
"405 586 OFFCURVE",
"415 600 OFFCURVE",
"430 600 CURVE SMOOTH",
"437 600 OFFCURVE",
"444 594 OFFCURVE",
"449 583 CURVE SMOOTH",
"469 536 OFFCURVE",
"476 432 OFFCURVE",
"476 373 CURVE SMOOTH",
"476 348 LINE",
"476 308 LINE SMOOTH",
"476 233 OFFCURVE",
"469 131 OFFCURVE",
"449 88 CURVE SMOOTH",
"444 78 OFFCURVE",
"438 73 OFFCURVE",
"430 73 CURVE SMOOTH"
);
}
);
width = 859;
}
);
note = uni0230;
unicode = 0230;
},
{
glyphname = Ohorn;
lastChange = "2017-06-11 23:28:21 +0000";
layers = (
{
layerId = "CBDECE4A-293B-4E5C-B714-A3FD26C7130D";
paths = (
{
closed = 1;
nodes = (
"606 -24 OFFCURVE",
"707 10 OFFCURVE",
"768 115 CURVE SMOOTH",
"799 172 OFFCURVE",
"814 252 OFFCURVE",
"814 355 CURVE SMOOTH",
"814 425 OFFCURVE",
"800 487 OFFCURVE",
"771 541 CURVE",
"775 544 LINE",
"798 561 LINE",
"813 578 OFFCURVE",
"824 594 OFFCURVE",
"831 611 CURVE SMOOTH",
"854 669 LINE",
"861 715 LINE",
"861 738 LINE",
"858 778 LINE",
"853 795 LINE",
"700 799 LINE",
"695 781 LINE",
"698 748 LINE",
"699 731 LINE",
"699 727 OFFCURVE",
"699 724 OFFCURVE",
"698 723 CURVE",
"694 704 OFFCURVE",
"684 690 OFFCURVE",
"665 678 CURVE",
"655 673 OFFCURVE",
"644 670 OFFCURVE",
"631 668 CURVE",
"568 681 LINE",
"531 690 OFFCURVE",
"491 695 OFFCURVE",
"448 695 CURVE SMOOTH",
"303 695 OFFCURVE",
"204 667 OFFCURVE",
"140 606 CURVE SMOOTH",
"76 545 OFFCURVE",
"46 450 OFFCURVE",
"46 313 CURVE SMOOTH",
"46 217 OFFCURVE",
"65 142 OFFCURVE",
"104 88 CURVE SMOOTH",
"171 -3 OFFCURVE",
"279 -24 OFFCURVE",
"438 -24 CURVE SMOOTH"
);
},
{
closed = 1;
nodes = (
"415 73 OFFCURVE",
"405 90 OFFCURVE",
"398 125 CURVE SMOOTH",
"391 166 OFFCURVE",
"388 203 OFFCURVE",
"388 234 CURVE",
"386 259 OFFCURVE",
"385 290 OFFCURVE",
"385 328 CURVE SMOOTH",
"385 385 OFFCURVE",
"386 426 OFFCURVE",
"388 453 CURVE",
"388 484 OFFCURVE",
"391 519 OFFCURVE",
"398 558 CURVE",
"405 586 OFFCURVE",
"415 600 OFFCURVE",
"430 600 CURVE SMOOTH",
"437 600 OFFCURVE",
"444 594 OFFCURVE",
"449 583 CURVE SMOOTH",
"469 536 OFFCURVE",
"476 432 OFFCURVE",
"476 373 CURVE SMOOTH",
"476 308 LINE SMOOTH",
"476 233 OFFCURVE",
"469 131 OFFCURVE",
"449 88 CURVE SMOOTH",
"444 78 OFFCURVE",
"438 73 OFFCURVE",
"430 73 CURVE SMOOTH"
);
}
);
width = 859;
}
);
note = Ohorn;
unicode = 01A0;
},
{
glyphname = uni01EA;
lastChange = "2017-06-11 23:28:21 +0000";
layers = (
{
layerId = "CBDECE4A-293B-4E5C-B714-A3FD26C7130D";
paths = (
{
closed = 1;
nodes = (
"683 659 OFFCURVE",
"561 695 OFFCURVE",
"448 695 CURVE SMOOTH",
"303 695 OFFCURVE",
"204 667 OFFCURVE",
"140 606 CURVE SMOOTH",
"76 545 OFFCURVE",
"46 450 OFFCURVE",
"46 313 CURVE SMOOTH",
"46 217 OFFCURVE",
"65 142 OFFCURVE",
"104 88 CURVE SMOOTH",
"171 -3 OFFCURVE",
"279 -24 OFFCURVE",
"438 -24 CURVE",
"426 -33 LINE",
"370 -70 OFFCURVE",
"343 -103 OFFCURVE",
"343 -163 CURVE SMOOTH",
"343 -175 OFFCURVE",
"345 -186 OFFCURVE",
"348 -195 CURVE",
"359 -220 OFFCURVE",
"382 -240 OFFCURVE",
"419 -253 CURVE SMOOTH",
"458 -268 OFFCURVE",
"513 -276 OFFCURVE",
"586 -276 CURVE",
"596 -274 LINE",
"598 -273 OFFCURVE",
"601 -273 OFFCURVE",
"604 -273 CURVE SMOOTH",
"607 -273 OFFCURVE",
"611 -272 OFFCURVE",
"616 -271 CURVE",
"627 -270 OFFCURVE",
"643 -265 OFFCURVE",
"663 -258 CURVE",
"676 -251 OFFCURVE",
"688 -245 OFFCURVE",
"689 -240 CURVE SMOOTH",
"706 -158 LINE",
"706 -153 LINE SMOOTH",
"706 -148 OFFCURVE",
"704 -145 OFFCURVE",
"699 -143 CURVE",
"668 -154 OFFCURVE",
"639 -160 OFFCURVE",
"612 -160 CURVE SMOOTH",
"603 -160 OFFCURVE",
"597 -160 OFFCURVE",
"592 -161 CURVE",
"584 -164 OFFCURVE",
"574 -159 OFFCURVE",
"571 -158 CURVE",
"556 -154 OFFCURVE",
"548 -146 OFFCURVE",
"548 -126 CURVE SMOOTH",
"548 -118 OFFCURVE",
"552 -106 OFFCURVE",
"561 -90 CURVE SMOOTH",
"574 -67 OFFCURVE",
"588 -49 OFFCURVE",
"607 -33 CURVE",
"647 8 LINE",
"698 30 OFFCURVE",
"739 66 OFFCURVE",
"768 115 CURVE",
"799 172 OFFCURVE",
"814 252 OFFCURVE",
"814 355 CURVE SMOOTH",
"814 443 OFFCURVE",
"793 514 OFFCURVE",
"751 568 CURVE SMOOTH"
);
},
{
closed = 1;
nodes = (
"391 166 OFFCURVE",
"388 203 OFFCURVE",
"388 234 CURVE",
"386 259 OFFCURVE",
"385 290 OFFCURVE",
"385 328 CURVE SMOOTH",
"385 385 OFFCURVE",
"386 426 OFFCURVE",
"388 453 CURVE",
"388 484 OFFCURVE",
"391 519 OFFCURVE",
"398 558 CURVE",
"405 586 OFFCURVE",
"415 600 OFFCURVE",
"430 600 CURVE SMOOTH",
"437 600 OFFCURVE",
"444 594 OFFCURVE",
"449 583 CURVE SMOOTH",
"469 536 OFFCURVE",
"476 432 OFFCURVE",
"476 373 CURVE SMOOTH",
"476 348 LINE",
"476 308 LINE SMOOTH",
"476 233 OFFCURVE",
"469 131 OFFCURVE",
"449 88 CURVE SMOOTH",
"444 78 OFFCURVE",
"438 73 OFFCURVE",
"430 73 CURVE SMOOTH",
"415 73 OFFCURVE",
"405 90 OFFCURVE",
"398 125 CURVE SMOOTH"
);
}
);
width = 859;
}
);
note = uni01EA;
unicode = 01EA;
},
{
glyphname = Oslash;
lastChange = "2017-06-11 23:28:21 +0000";
layers = (
{
layerId = "CBDECE4A-293B-4E5C-B714-A3FD26C7130D";
paths = (
{
closed = 1;
nodes = (
"131 -50 OFFCURVE",
"141 -42 OFFCURVE",
"154 -31 CURVE SMOOTH",
"167 -20 OFFCURVE",
"183 -5 OFFCURVE",
"204 16 CURVE",
"234 1 OFFCURVE",
"274 -10 OFFCURVE",
"323 -18 CURVE",
"356 -22 OFFCURVE",
"399 -24 OFFCURVE",
"453 -24 CURVE SMOOTH",
"620 -24 OFFCURVE",
"724 10 OFFCURVE",
"781 115 CURVE SMOOTH",
"812 170 OFFCURVE",
"828 250 OFFCURVE",
"828 355 CURVE SMOOTH",
"828 438 OFFCURVE",
"809 506 OFFCURVE",
"771 560 CURVE",
"789 576 LINE",
"795 582 OFFCURVE",
"800 586 OFFCURVE",
"803 588 CURVE",
"804 590 OFFCURVE",
"808 594 OFFCURVE",
"813 599 CURVE SMOOTH",
"817 603 OFFCURVE",
"826 613 OFFCURVE",
"840 630 CURVE",
"845 639 OFFCURVE",
"848 645 OFFCURVE",
"848 648 CURVE SMOOTH",
"848 655 OFFCURVE",
"845 658 OFFCURVE",
"835 663 CURVE",
"830 666 OFFCURVE",
"826 668 OFFCURVE",
"823 670 CURVE",
"817 671 OFFCURVE",
"812 674 OFFCURVE",
"808 678 CURVE",
"793 685 LINE",
"789 688 OFFCURVE",
"785 689 OFFCURVE",
"781 689 CURVE SMOOTH",
"778 689 OFFCURVE",
"774 688 OFFCURVE",
"771 686 CURVE",
"705 625 LINE",
"642 672 OFFCURVE",
"550 695 OFFCURVE",
"463 695 CURVE SMOOTH",
"318 695 OFFCURVE",
"218 667 OFFCURVE",
"154 606 CURVE SMOOTH",
"90 545 OFFCURVE",
"60 450 OFFCURVE",
"60 313 CURVE SMOOTH",
"60 209 OFFCURVE",
"83 129 OFFCURVE",
"128 74 CURVE",
"98 43 LINE SMOOTH",
"94 39 OFFCURVE",
"90 35 OFFCURVE",
"86 30 CURVE SMOOTH",
"82 25 OFFCURVE",
"78 21 OFFCURVE",
"74 18 CURVE",
"73 16 OFFCURVE",
"70 13 OFFCURVE",
"67 8 CURVE",
"63 3 OFFCURVE",
"61 -1 OFFCURVE",
"60 -4 CURVE SMOOTH",
"57 -13 OFFCURVE",
"61 -20 OFFCURVE",
"76 -28 CURVE",
"83 -33 LINE",
"86 -34 OFFCURVE",
"90 -38 OFFCURVE",
"96 -44 CURVE",
"99 -45 OFFCURVE",
"104 -48 OFFCURVE",
"108 -48 CURVE",
"113 -51 OFFCURVE",
"118 -53 OFFCURVE",
"123 -53 CURVE"
);
},
{
closed = 1;
nodes = (
"399 456 OFFCURVE",
"401 510 OFFCURVE",
"414 561 CURVE SMOOTH",
"421 587 OFFCURVE",
"431 600 OFFCURVE",
"444 600 CURVE SMOOTH",
"460 600 OFFCURVE",
"471 571 OFFCURVE",
"476 543 CURVE SMOOTH",
"481 518 OFFCURVE",
"485 480 OFFCURVE",
"488 429 CURVE",
"399 349 LINE"
);
},
{
closed = 1;
nodes = (
"430 73 OFFCURVE",
"420 88 OFFCURVE",
"414 118 CURVE",
"407 147 OFFCURVE",
"403 179 OFFCURVE",
"401 214 CURVE",
"490 300 LINE",
"486 209 OFFCURVE",
"485 162 OFFCURVE",
"473 113 CURVE SMOOTH",
"466 86 OFFCURVE",
"456 73 OFFCURVE",
"444 73 CURVE SMOOTH"
);
}
);
width = 901;
}
);
note = Oslash;
unicode = 00D8;
},
{
glyphname = uni022C;
lastChange = "2017-06-11 23:28:21 +0000";
layers = (
{
layerId = "CBDECE4A-293B-4E5C-B714-A3FD26C7130D";
paths = (
{
closed = 1;
nodes = (
"637 967 OFFCURVE",
"640 990 OFFCURVE",
"640 1015 CURVE SMOOTH",
"640 1035 LINE",
"639 1042 OFFCURVE",
"639 1049 OFFCURVE",
"639 1058 CURVE SMOOTH",
"639 1067 LINE",
"638 1101 LINE",
"638 1117 OFFCURVE",
"614 1123 OFFCURVE",
"583 1123 CURVE SMOOTH",
"559 1123 LINE SMOOTH",
"546 1123 OFFCURVE",
"516 1124 OFFCURVE",
"469 1125 CURVE SMOOTH",
"422 1126 OFFCURVE",
"391 1127 OFFCURVE",
"376 1127 CURVE SMOOTH",
"354 1127 LINE",
"244 1127 LINE SMOOTH",
"237 1127 OFFCURVE",
"229 1121 OFFCURVE",
"228 1120 CURVE",
"222 1115 OFFCURVE",
"219 1111 OFFCURVE",
"219 1106 CURVE SMOOTH",
"219 1091 OFFCURVE",
"219 1081 OFFCURVE",
"220 1075 CURVE",
"220 1051 LINE",
"220 1025 LINE",
"220 993 LINE SMOOTH",
"220 988 OFFCURVE",
"224 983 OFFCURVE",
"228 980 CURVE",
"234 975 OFFCURVE",
"248 972 OFFCURVE",
"269 972 CURVE SMOOTH",
"298 972 LINE",
"398 972 LINE",
"408 972 LINE",
"429 972 LINE SMOOTH",
"439 972 OFFCURVE",
"447 972 OFFCURVE",
"454 971 CURVE",
"456 970 OFFCURVE",
"459 970 OFFCURVE",
"463 970 CURVE",
"479 971 LINE",
"499 971 LINE",
"502 970 OFFCURVE",
"504 970 OFFCURVE",
"506 970 CURVE",
"507 969 OFFCURVE",
"508 969 OFFCURVE",
"509 969 CURVE SMOOTH",
"534 969 LINE",
"556 968 LINE",
"567 968 OFFCURVE",
"576 968 OFFCURVE",
"583 967 CURVE",
"616 967 LINE SMOOTH"
);
},
{
closed = 1;
nodes = (
"543 735 OFFCURVE",
"570 745 OFFCURVE",
"594 756 CURVE",
"639 779 OFFCURVE",
"658 820 OFFCURVE",
"658 865 CURVE SMOOTH",
"658 885 OFFCURVE",
"653 904 OFFCURVE",
"643 921 CURVE",
"640 928 OFFCURVE",
"636 931 OFFCURVE",
"631 931 CURVE SMOOTH",
"504 931 LINE SMOOTH",
"495 931 OFFCURVE",
"491 929 OFFCURVE",
"491 925 CURVE",
"500 918 OFFCURVE",
"513 890 OFFCURVE",
"513 878 CURVE SMOOTH",
"513 874 LINE",
"510 865 OFFCURVE",
"506 860 OFFCURVE",
"491 860 CURVE SMOOTH",
"485 860 OFFCURVE",
"480 861 OFFCURVE",
"476 863 CURVE SMOOTH",
"470 866 OFFCURVE",
"463 874 OFFCURVE",
"454 886 CURVE SMOOTH",
"448 894 OFFCURVE",
"444 898 OFFCURVE",
"441 899 CURVE",
"429 910 OFFCURVE",
"420 914 OFFCURVE",
"401 921 CURVE",
"386 928 OFFCURVE",
"369 931 OFFCURVE",
"351 931 CURVE SMOOTH",
"262 931 OFFCURVE",
"223 893 OFFCURVE",
"206 846 CURVE SMOOTH",
"202 834 OFFCURVE",
"200 821 OFFCURVE",
"201 807 CURVE",
"201 793 OFFCURVE",
"201 784 OFFCURVE",
"201 780 CURVE SMOOTH",
"201 775 OFFCURVE",
"204 767 OFFCURVE",
"205 764 CURVE",
"205 763 OFFCURVE",
"206 756 OFFCURVE",
"209 753 CURVE",
"216 745 OFFCURVE",
"219 743 OFFCURVE",
"231 743 CURVE SMOOTH",
"273 743 LINE",
"306 743 LINE SMOOTH",
"309 743 OFFCURVE",
"310 744 OFFCURVE",
"311 745 CURVE",
"314 752 OFFCURVE",
"317 759 OFFCURVE",
"318 766 CURVE",
"318 773 OFFCURVE",
"319 778 OFFCURVE",
"321 781 CURVE SMOOTH",
"323 784 OFFCURVE",
"325 788 OFFCURVE",
"326 791 CURVE",
"329 797 OFFCURVE",
"333 801 OFFCURVE",
"338 801 CURVE SMOOTH",
"357 801 OFFCURVE",
"373 788 OFFCURVE",
"386 780 CURVE",
"392 775 OFFCURVE",
"397 772 OFFCURVE",
"401 769 CURVE SMOOTH",
"436 744 OFFCURVE",
"454 735 OFFCURVE",
"511 735 CURVE SMOOTH"
);
},
{
closed = 1;
nodes = (
"606 -24 OFFCURVE",
"707 10 OFFCURVE",
"768 115 CURVE SMOOTH",
"799 172 OFFCURVE",
"814 252 OFFCURVE",
"814 355 CURVE SMOOTH",
"814 443 OFFCURVE",
"793 514 OFFCURVE",
"751 568 CURVE SMOOTH",
"683 659 OFFCURVE",
"561 695 OFFCURVE",
"448 695 CURVE SMOOTH",
"303 695 OFFCURVE",
"204 667 OFFCURVE",
"140 606 CURVE SMOOTH",
"76 545 OFFCURVE",
"46 450 OFFCURVE",
"46 313 CURVE SMOOTH",
"46 217 OFFCURVE",
"65 142 OFFCURVE",
"104 88 CURVE SMOOTH",
"171 -3 OFFCURVE",
"279 -24 OFFCURVE",
"438 -24 CURVE SMOOTH"
);
},
{
closed = 1;
nodes = (
"415 73 OFFCURVE",
"405 90 OFFCURVE",
"398 125 CURVE SMOOTH",
"391 166 OFFCURVE",
"388 203 OFFCURVE",
"388 234 CURVE",
"386 259 OFFCURVE",
"385 290 OFFCURVE",
"385 328 CURVE SMOOTH",
"385 385 OFFCURVE",
"386 426 OFFCURVE",
"388 453 CURVE",
"388 484 OFFCURVE",
"391 519 OFFCURVE",
"398 558 CURVE",
"405 586 OFFCURVE",
"415 600 OFFCURVE",
"430 600 CURVE SMOOTH",
"437 600 OFFCURVE",
"444 594 OFFCURVE",
"449 583 CURVE SMOOTH",
"469 536 OFFCURVE",
"476 432 OFFCURVE",
"476 373 CURVE SMOOTH",
"476 348 LINE",
"476 308 LINE SMOOTH",
"476 233 OFFCURVE",
"469 131 OFFCURVE",
"449 88 CURVE SMOOTH",
"444 78 OFFCURVE",
"438 73 OFFCURVE",
"430 73 CURVE SMOOTH"
);
}
);
width = 859;
}
);
note = uni022C;
unicode = 022C;
},
{
glyphname = OE;
lastChange = "2017-06-15 13:23:25 +0000";
layers = (
{
layerId = "CBDECE4A-293B-4E5C-B714-A3FD26C7130D";
paths = (
{
closed = 1;
nodes = (
"524 -24 OFFCURVE",
"589 -15 OFFCURVE",
"636 3 CURVE",
"643 1 OFFCURVE",
"650 0 OFFCURVE",
"659 0 CURVE SMOOTH",
"818 0 LINE SMOOTH",
"853 1 OFFCURVE",
"935 1 OFFCURVE",
"1005 1 CURVE SMOOTH",
"1038 1 OFFCURVE",
"1062 2 OFFCURVE",
"1078 3 CURVE SMOOTH",
"1106 5 OFFCURVE",
"1129 5 OFFCURVE",
"1148 5 CURVE SMOOTH",
"1160 5 OFFCURVE",
"1168 14 OFFCURVE",
"1168 26 CURVE SMOOTH",
"1168 28 OFFCURVE",
"1168 30 OFFCURVE",
"1167 33 CURVE",
"1166 35 OFFCURVE",
"1166 38 OFFCURVE",
"1165 41 CURVE",
"1162 60 OFFCURVE",
"1147 120 OFFCURVE",
"1136 136 CURVE",
"1134 141 OFFCURVE",
"1132 143 OFFCURVE",
"1129 143 CURVE SMOOTH",
"1087 143 OFFCURVE",
"1055 142 OFFCURVE",
"1033 140 CURVE",
"1012 139 OFFCURVE",
"980 138 OFFCURVE",
"908 138 CURVE",
"907 143 OFFCURVE",
"907 149 OFFCURVE",
"907 157 CURVE SMOOTH",
"907 166 OFFCURVE",
"907 172 OFFCURVE",
"908 176 CURVE",
"909 192 OFFCURVE",
"910 204 OFFCURVE",
"910 213 CURVE SMOOTH",
"910 241 OFFCURVE",
"911 249 OFFCURVE",
"926 253 CURVE",
"931 254 OFFCURVE",
"942 254 OFFCURVE",
"961 254 CURVE",
"972 253 OFFCURVE",
"995 253 OFFCURVE",
"1028 253 CURVE SMOOTH",
"1067 253 OFFCURVE",
"1093 255 OFFCURVE",
"1108 258 CURVE",
"1132 260 OFFCURVE",
"1144 267 OFFCURVE",
"1144 278 CURVE SMOOTH",
"1144 281 LINE",
"1140 370 LINE",
"1137 383 OFFCURVE",
"1135 389 OFFCURVE",
"1119 393 CURVE",
"1106 393 LINE",
"1075 396 OFFCURVE",
"1045 398 OFFCURVE",
"1018 398 CURVE SMOOTH",
"929 398 LINE SMOOTH",
"917 398 OFFCURVE",
"913 401 OFFCURVE",
"913 418 CURVE",
"915 443 LINE",
"916 469 OFFCURVE",
"919 489 OFFCURVE",
"924 503 CURVE",
"925 504 OFFCURVE",
"926 507 OFFCURVE",
"928 510 CURVE",
"929 513 OFFCURVE",
"931 515 OFFCURVE",
"933 515 CURVE",
"948 516 OFFCURVE",
"965 517 OFFCURVE",
"984 520 CURVE",
"1038 524 LINE",
"1079 529 OFFCURVE",
"1113 531 OFFCURVE",
"1140 531 CURVE SMOOTH",
"1145 531 OFFCURVE",
"1149 531 OFFCURVE",
"1151 530 CURVE",
"1157 530 OFFCURVE",
"1161 533 OFFCURVE",
"1163 540 CURVE",
"1163 541 OFFCURVE",
"1163 543 OFFCURVE",
"1164 547 CURVE",
"1164 550 OFFCURVE",
"1164 554 OFFCURVE",
"1163 558 CURVE SMOOTH",
"1155 595 LINE",
"1150 627 OFFCURVE",
"1146 669 OFFCURVE",
"1125 669 CURVE",
"1096 672 OFFCURVE",
"1055 674 OFFCURVE",
"1000 675 CURVE SMOOTH",
"956 675 LINE SMOOTH",
"916 675 OFFCURVE",
"856 674 OFFCURVE",
"776 673 CURVE",
"751 671 OFFCURVE",
"712 670 OFFCURVE",
"658 670 CURVE SMOOTH",
"638 670 OFFCURVE",
"623 669 OFFCURVE",
"614 668 CURVE",
"565 686 OFFCURVE",
"511 695 OFFCURVE",
"453 695 CURVE SMOOTH",
"308 695 OFFCURVE",
"207 667 OFFCURVE",
"144 606 CURVE SMOOTH",
"80 545 OFFCURVE",
"50 450 OFFCURVE",
"50 313 CURVE SMOOTH",
"50 218 OFFCURVE",
"69 143 OFFCURVE",
"108 88 CURVE SMOOTH",
"176 -3 OFFCURVE",
"284 -24 OFFCURVE",
"443 -24 CURVE SMOOTH"
);
},
{
closed = 1;
nodes = (
"420 73 OFFCURVE",
"410 90 OFFCURVE",
"403 125 CURVE SMOOTH",
"392 173 OFFCURVE",
"389 252 OFFCURVE",
"389 328 CURVE SMOOTH",
"389 441 OFFCURVE",
"391 511 OFFCURVE",
"403 558 CURVE SMOOTH",
"410 586 OFFCURVE",
"420 600 OFFCURVE",
"434 600 CURVE SMOOTH",
"441 600 OFFCURVE",
"448 594 OFFCURVE",
"454 583 CURVE",
"474 536 OFFCURVE",
"476 480 OFFCURVE",
"480 373 CURVE",
"480 348 LINE",
"480 308 LINE SMOOTH",
"477 199 OFFCURVE",
"474 131 OFFCURVE",
"454 88 CURVE",
"447 77 OFFCURVE",
"442 73 OFFCURVE",
"434 73 CURVE SMOOTH"
);
}
);
width = 1210;
}
);
note = OE;
unicode = 0152;
},
{
glyphname = P;
lastChange = "2017-06-13 16:36:00 +0000";
layers = (
{
layerId = "CBDECE4A-293B-4E5C-B714-A3FD26C7130D";
paths = (
{
closed = 1;
nodes = (
"195 2 OFFCURVE",
"232 3 OFFCURVE",
"278 3 CURVE",
"289 4 OFFCURVE",
"310 4 OFFCURVE",
"339 4 CURVE SMOOTH",
"379 4 OFFCURVE",
"394 11 OFFCURVE",
"394 55 CURVE SMOOTH",
"394 69 OFFCURVE",
"394 80 OFFCURVE",
"395 89 CURVE",
"395 97 OFFCURVE",
"395 104 OFFCURVE",
"395 110 CURVE SMOOTH",
"395 127 OFFCURVE",
"395 144 OFFCURVE",
"394 159 CURVE",
"531 159 LINE SMOOTH",
"621 159 OFFCURVE",
"689 180 OFFCURVE",
"734 223 CURVE",
"785 268 OFFCURVE",
"811 342 OFFCURVE",
"811 443 CURVE SMOOTH",
"811 503 OFFCURVE",
"795 551 OFFCURVE",
"764 586 CURVE SMOOTH",
"708 651 OFFCURVE",
"619 673 OFFCURVE",
"535 673 CURVE SMOOTH",
"509 673 OFFCURVE",
"476 672 OFFCURVE",
"436 671 CURVE SMOOTH",
"399 670 LINE SMOOTH",
"372 669 OFFCURVE",
"333 669 OFFCURVE",
"283 669 CURVE SMOOTH",
"248 669 OFFCURVE",
"220 669 OFFCURVE",
"199 670 CURVE",
"84 671 LINE SMOOTH",
"72 671 OFFCURVE",
"58 657 OFFCURVE",
"58 645 CURVE SMOOTH",
"58 425 LINE SMOOTH",
"58 352 OFFCURVE",
"59 283 OFFCURVE",
"61 218 CURVE SMOOTH",
"62 173 OFFCURVE",
"63 121 OFFCURVE",
"63 63 CURVE SMOOTH",
"63 44 OFFCURVE",
"65 30 OFFCURVE",
"68 23 CURVE",
"71 8 OFFCURVE",
"79 1 OFFCURVE",
"90 1 CURVE SMOOTH",
"168 1 LINE"
);
},
{
closed = 1;
nodes = (
"408 280 LINE",
"406 281 OFFCURVE",
"405 281 OFFCURVE",
"404 282 CURVE SMOOTH",
"403 283 OFFCURVE",
"403 283 OFFCURVE",
"403 283 CURVE",
"403 344 OFFCURVE",
"405 393 OFFCURVE",
"408 430 CURVE SMOOTH",
"411 478 OFFCURVE",
"404 547 OFFCURVE",
"419 571 CURVE",
"423 579 OFFCURVE",
"446 573 OFFCURVE",
"453 573 CURVE",
"466 573 OFFCURVE",
"472 564 OFFCURVE",
"479 550 CURVE SMOOTH",
"486 536 OFFCURVE",
"493 496 OFFCURVE",
"493 475 CURVE SMOOTH",
"493 464 LINE SMOOTH",
"493 440 OFFCURVE",
"492 418 OFFCURVE",
"491 399 CURVE SMOOTH",
"486 328 OFFCURVE",
"476 279 OFFCURVE",
"448 279 CURVE SMOOTH",
"420 279 LINE"
);
}
);
width = 839;
}
);
note = P;
unicode = 0050;
},
{
glyphname = Thorn;
lastChange = "2017-06-15 13:29:11 +0000";
layers = (
{
layerId = "CBDECE4A-293B-4E5C-B714-A3FD26C7130D";
paths = (
{
closed = 1;
nodes = (
"165 -19 OFFCURVE",
"231 -19 OFFCURVE",
"278 -16 CURVE",
"338 -16 LINE SMOOTH",
"379 -16 OFFCURVE",
"394 -9 OFFCURVE",
"394 36 CURVE SMOOTH",
"394 65 OFFCURVE",
"394 72 OFFCURVE",
"394 139 CURVE",
"530 139 LINE SMOOTH",
"711 139 OFFCURVE",
"811 217 OFFCURVE",
"811 398 CURVE SMOOTH",
"811 450 OFFCURVE",
"795 491 OFFCURVE",
"763 521 CURVE SMOOTH",
"709 571 OFFCURVE",
"625 593 OFFCURVE",
"534 593 CURVE SMOOTH",
"395 593 LINE",
"395 604 LINE",
"394 607 OFFCURVE",
"394 611 OFFCURVE",
"394 616 CURVE SMOOTH",
"394 668 LINE SMOOTH",
"394 715 OFFCURVE",
"378 720 OFFCURVE",
"338 720 CURVE SMOOTH",
"278 720 LINE",
"266 721 OFFCURVE",
"248 721 OFFCURVE",
"225 721 CURVE",
"201 722 OFFCURVE",
"156 723 OFFCURVE",
"89 723 CURVE SMOOTH",
"78 723 OFFCURVE",
"71 715 OFFCURVE",
"68 703 CURVE",
"65 694 OFFCURVE",
"63 681 OFFCURVE",
"63 663 CURVE SMOOTH",
"63 618 LINE SMOOTH",
"63 605 OFFCURVE",
"63 596 OFFCURVE",
"62 589 CURVE",
"61 554 LINE",
"60 512 LINE SMOOTH",
"59 465 OFFCURVE",
"58 429 OFFCURVE",
"58 404 CURVE SMOOTH",
"58 353 LINE",
"59 261 LINE SMOOTH",
"60 185 OFFCURVE",
"62 131 OFFCURVE",
"63 98 CURVE SMOOTH",
"63 43 LINE SMOOTH",
"63 24 OFFCURVE",
"65 10 OFFCURVE",
"68 3 CURVE",
"71 -10 OFFCURVE",
"78 -19 OFFCURVE",
"89 -19 CURVE SMOOTH"
);
},
{
closed = 1;
nodes = (
"433 234 OFFCURVE",
"424 234 OFFCURVE",
"420 235 CURVE",
"413 235 OFFCURVE",
"409 235 OFFCURVE",
"408 236 CURVE",
"406 236 OFFCURVE",
"404 236 OFFCURVE",
"403 237 CURVE SMOOTH",
"402 238 OFFCURVE",
"401 238 OFFCURVE",
"401 238 CURVE",
"402 279 OFFCURVE",
"403 308 OFFCURVE",
"403 325 CURVE SMOOTH",
"404 368 LINE SMOOTH",
"404 389 OFFCURVE",
"407 459 OFFCURVE",
"415 488 CURVE",
"416 489 OFFCURVE",
"417 491 OFFCURVE",
"418 494 CURVE SMOOTH",
"419 497 OFFCURVE",
"421 499 OFFCURVE",
"423 499 CURVE SMOOTH",
"435 499 OFFCURVE",
"445 497 OFFCURVE",
"453 493 CURVE",
"482 477 OFFCURVE",
"493 443 OFFCURVE",
"493 428 CURVE SMOOTH",
"493 419 LINE SMOOTH",
"493 371 OFFCURVE",
"490 311 OFFCURVE",
"479 274 CURVE SMOOTH",
"472 250 OFFCURVE",
"461 234 OFFCURVE",
"446 234 CURVE SMOOTH"
);
}
);
width = 828;
}
);
note = Thorn;
unicode = 00DE;
},
{
glyphname = Q;
lastChange = "2017-06-11 23:28:21 +0000";
layers = (
{
layerId = "CBDECE4A-293B-4E5C-B714-A3FD26C7130D";
paths = (
{
closed = 1;
nodes = (
"479 -213 LINE SMOOTH",
"482 -213 OFFCURVE",
"483 -211 OFFCURVE",
"483 -208 CURVE",
"487 -208 OFFCURVE",
"491 -207 OFFCURVE",
"496 -206 CURVE SMOOTH",
"513 -203 OFFCURVE",
"529 -198 OFFCURVE",
"545 -193 CURVE",
"548 -191 OFFCURVE",
"551 -190 OFFCURVE",
"554 -189 CURVE",
"556 -188 OFFCURVE",
"557 -188 OFFCURVE",
"558 -188 CURVE",
"565 -186 OFFCURVE",
"572 -184 OFFCURVE",
"578 -181 CURVE",
"596 -176 LINE",
"599 -174 OFFCURVE",
"602 -172 OFFCURVE",
"606 -169 CURVE",
"610 -167 OFFCURVE",
"614 -164 OFFCURVE",
"619 -161 CURVE",
"648 -146 LINE",
"671 -130 OFFCURVE",
"681 -121 OFFCURVE",
"681 -109 CURVE SMOOTH",
"681 -90 OFFCURVE",
"659 -58 OFFCURVE",
"615 1 CURVE",
"735 42 OFFCURVE",
"799 148 OFFCURVE",
"799 355 CURVE SMOOTH",
"799 528 OFFCURVE",
"717 622 OFFCURVE",
"593 669 CURVE SMOOTH",
"543 686 OFFCURVE",
"490 695 OFFCURVE",
"433 695 CURVE SMOOTH",
"288 695 OFFCURVE",
"188 667 OFFCURVE",
"125 606 CURVE SMOOTH",
"61 545 OFFCURVE",
"31 450 OFFCURVE",
"31 313 CURVE SMOOTH",
"31 228 OFFCURVE",
"45 161 OFFCURVE",
"74 113 CURVE",
"122 24 OFFCURVE",
"216 -14 OFFCURVE",
"335 -21 CURVE",
"342 -32 OFFCURVE",
"347 -41 OFFCURVE",
"350 -48 CURVE",
"429 -178 LINE",
"433 -181 LINE",
"434 -182 OFFCURVE",
"435 -183 OFFCURVE",
"438 -183 CURVE",
"441 -189 LINE",
"454 -202 OFFCURVE",
"462 -208 OFFCURVE",
"466 -209 CURVE",
"470 -212 OFFCURVE",
"472 -213 OFFCURVE",
"473 -213 CURVE SMOOTH",
"475 -213 LINE"
);
},
{
closed = 1;
nodes = (
"401 73 OFFCURVE",
"390 90 OFFCURVE",
"383 125 CURVE SMOOTH",
"377 160 OFFCURVE",
"374 197 OFFCURVE",
"373 234 CURVE",
"371 259 OFFCURVE",
"370 290 OFFCURVE",
"370 328 CURVE SMOOTH",
"370 385 OFFCURVE",
"371 426 OFFCURVE",
"373 453 CURVE",
"374 490 OFFCURVE",
"377 525 OFFCURVE",
"383 558 CURVE",
"391 586 OFFCURVE",
"402 600 OFFCURVE",
"415 600 CURVE SMOOTH",
"422 600 OFFCURVE",
"429 594 OFFCURVE",
"435 583 CURVE",
"458 530 OFFCURVE",
"457 480 OFFCURVE",
"461 373 CURVE",
"461 348 LINE",
"461 308 LINE SMOOTH",
"458 199 OFFCURVE",
"456 136 OFFCURVE",
"435 88 CURVE",
"429 78 OFFCURVE",
"422 73 OFFCURVE",
"415 73 CURVE SMOOTH"
);
}
);
width = 839;
}
);
note = Q;
unicode = 0051;
},
{
glyphname = R;
lastChange = "2017-06-14 18:23:42 +0000";
layers = (
{
layerId = "CBDECE4A-293B-4E5C-B714-A3FD26C7130D";
paths = (
{
closed = 1;
nodes = (
"618 -44 LINE SMOOTH",
"620 -44 OFFCURVE",
"621 -42 OFFCURVE",
"622 -39 CURVE",
"627 -39 LINE SMOOTH",
"630 -39 OFFCURVE",
"636 -38 OFFCURVE",
"640 -35 CURVE",
"648 -34 OFFCURVE",
"654 -32 OFFCURVE",
"657 -30 CURVE",
"675 -25 OFFCURVE",
"686 -21 OFFCURVE",
"690 -19 CURVE SMOOTH",
"692 -18 OFFCURVE",
"694 -18 OFFCURVE",
"695 -17 CURVE SMOOTH",
"696 -16 OFFCURVE",
"696 -16 OFFCURVE",
"697 -16 CURVE",
"712 -11 OFFCURVE",
"727 -6 OFFCURVE",
"740 3 CURVE SMOOTH",
"775 27 LINE",
"780 32 OFFCURVE",
"788 37 OFFCURVE",
"798 42 CURVE",
"809 47 OFFCURVE",
"818 53 OFFCURVE",
"826 59 CURVE SMOOTH",
"847 75 OFFCURVE",
"858 84 OFFCURVE",
"858 97 CURVE SMOOTH",
"858 102 OFFCURVE",
"856 108 OFFCURVE",
"851 117 CURVE",
"845 130 OFFCURVE",
"829 149 OFFCURVE",
"810 177 CURVE SMOOTH",
"778 225 LINE",
"775 228 OFFCURVE",
"773 232 OFFCURVE",
"770 235 CURVE SMOOTH",
"767 238 OFFCURVE",
"765 240 OFFCURVE",
"763 243 CURVE",
"749 259 LINE SMOOTH",
"742 267 OFFCURVE",
"738 265 OFFCURVE",
"735 273 CURVE SMOOTH",
"731 283 OFFCURVE",
"723 294 OFFCURVE",
"719 296 CURVE",
"740 306 OFFCURVE",
"759 319 OFFCURVE",
"776 336 CURVE SMOOTH",
"811 371 OFFCURVE",
"833 417 OFFCURVE",
"833 478 CURVE SMOOTH",
"833 531 OFFCURVE",
"814 580 OFFCURVE",
"774 613 CURVE",
"730 652 OFFCURVE",
"665 674 OFFCURVE",
"579 678 CURVE",
"558 678 OFFCURVE",
"491 679 OFFCURVE",
"438 680 CURVE SMOOTH",
"399 681 LINE SMOOTH",
"364 682 OFFCURVE",
"338 683 OFFCURVE",
"321 683 CURVE SMOOTH",
"243 685 OFFCURVE",
"166 686 OFFCURVE",
"91 686 CURVE SMOOTH",
"77 686 OFFCURVE",
"67 674 OFFCURVE",
"61 650 CURVE",
"56 633 OFFCURVE",
"54 605 OFFCURVE",
"54 568 CURVE SMOOTH",
"54 542 OFFCURVE",
"55 521 OFFCURVE",
"58 504 CURVE",
"59 477 OFFCURVE",
"60 457 OFFCURVE",
"60 443 CURVE",
"59 431 LINE",
"58 413 LINE",
"58 404 OFFCURVE",
"57 398 OFFCURVE",
"56 394 CURVE",
"56 390 OFFCURVE",
"56 387 OFFCURVE",
"56 386 CURVE",
"55 385 OFFCURVE",
"55 384 OFFCURVE",
"55 383 CURVE SMOOTH",
"55 359 OFFCURVE",
"56 333 OFFCURVE",
"58 306 CURVE SMOOTH",
"60 284 LINE SMOOTH",
"61 271 OFFCURVE",
"63 252 OFFCURVE",
"63 228 CURVE",
"66 191 LINE SMOOTH",
"69 148 OFFCURVE",
"72 118 OFFCURVE",
"73 101 CURVE",
"72 110 OFFCURVE",
"74 94 OFFCURVE",
"77 53 CURVE SMOOTH",
"78 42 OFFCURVE",
"79 35 OFFCURVE",
"79 31 CURVE SMOOTH",
"79 28 OFFCURVE",
"79 25 OFFCURVE",
"80 23 CURVE",
"80 21 OFFCURVE",
"80 20 OFFCURVE",
"80 19 CURVE",
"83 11 LINE",
"119 -1 LINE",
"128 -1 LINE",
"146 -1 LINE",
"168 -1 LINE",
"172 -2 OFFCURVE",
"177 -3 OFFCURVE",
"184 -3 CURVE SMOOTH",
"232 -3 OFFCURVE",
"346 4 OFFCURVE",
"393 8 CURVE",
"393 8 OFFCURVE",
"394 8 OFFCURVE",
"395 8 CURVE",
"396 7 OFFCURVE",
"397 7 OFFCURVE",
"398 6 CURVE",
"404 6 LINE SMOOTH",
"408 6 OFFCURVE",
"411 10 OFFCURVE",
"413 19 CURVE",
"416 37 OFFCURVE",
"418 61 OFFCURVE",
"418 90 CURVE SMOOTH",
"418 121 OFFCURVE",
"419 145 OFFCURVE",
"421 163 CURVE SMOOTH",
"422 170 OFFCURVE",
"424 174 OFFCURVE",
"428 174 CURVE SMOOTH",
"431 174 OFFCURVE",
"433 172 OFFCURVE",
"436 168 CURVE",
"439 163 OFFCURVE",
"443 158 OFFCURVE",
"448 153 CURVE",
"455 143 OFFCURVE",
"461 134 OFFCURVE",
"465 125 CURVE",
"567 -11 LINE",
"567 -11 OFFCURVE",
"568 -12 OFFCURVE",
"571 -15 CURVE",
"573 -16 LINE",
"574 -16 OFFCURVE",
"575 -17 OFFCURVE",
"576 -18 CURVE",
"577 -18 OFFCURVE",
"578 -20 OFFCURVE",
"580 -23 CURVE",
"587 -30 OFFCURVE",
"595 -37 OFFCURVE",
"605 -43 CURVE",
"607 -44 OFFCURVE",
"609 -44 OFFCURVE",
"612 -44 CURVE SMOOTH",
"615 -44 LINE"
);
},
{
closed = 1;
nodes = (
"409 320 LINE",
"408 320 OFFCURVE",
"406 322 OFFCURVE",
"406 323 CURVE SMOOTH",
"406 348 OFFCURVE",
"407 380 OFFCURVE",
"408 419 CURVE SMOOTH",
"409 449 LINE SMOOTH",
"409 467 OFFCURVE",
"410 483 OFFCURVE",
"413 496 CURVE",
"414 528 OFFCURVE",
"417 551 OFFCURVE",
"423 566 CURVE",
"425 574 OFFCURVE",
"428 578 OFFCURVE",
"431 578 CURVE SMOOTH",
"443 578 OFFCURVE",
"453 575 OFFCURVE",
"460 569 CURVE",
"493 550 OFFCURVE",
"491 506 OFFCURVE",
"491 475 CURVE SMOOTH",
"491 464 LINE SMOOTH",
"491 445 OFFCURVE",
"490 428 OFFCURVE",
"489 414 CURVE SMOOTH",
"486 366 OFFCURVE",
"472 319 OFFCURVE",
"431 319 CURVE SMOOTH",
"416 319 LINE"
);
}
);
width = 873;
}
);
note = R;
unicode = 0052;
},
{
glyphname = S;
lastChange = "2017-06-14 18:30:46 +0000";
layers = (
{
layerId = "CBDECE4A-293B-4E5C-B714-A3FD26C7130D";
paths = (
{
closed = 1;
nodes = (
"396 -24 OFFCURVE",
"447 -16 OFFCURVE",
"490 -1 CURVE",
"539 14 OFFCURVE",
"580 38 OFFCURVE",
"613 71 CURVE",
"646 108 OFFCURVE",
"665 151 OFFCURVE",
"670 201 CURVE",
"673 212 OFFCURVE",
"674 223 OFFCURVE",
"674 233 CURVE SMOOTH",
"674 266 OFFCURVE",
"654 304 OFFCURVE",
"621 336 CURVE SMOOTH",
"585 371 OFFCURVE",
"542 395 OFFCURVE",
"493 409 CURVE",
"490 410 OFFCURVE",
"484 413 OFFCURVE",
"474 417 CURVE",
"464 420 OFFCURVE",
"454 425 OFFCURVE",
"444 430 CURVE",
"423 444 OFFCURVE",
"413 459 OFFCURVE",
"413 475 CURVE SMOOTH",
"413 476 OFFCURVE",
"417 478 OFFCURVE",
"425 479 CURVE",
"458 486 LINE",
"487 491 OFFCURVE",
"483 493 OFFCURVE",
"506 493 CURVE SMOOTH",
"520 493 LINE",
"530 493 LINE",
"623 481 LINE",
"640 493 OFFCURVE",
"644 513 OFFCURVE",
"644 546 CURVE SMOOTH",
"644 565 OFFCURVE",
"643 583 OFFCURVE",
"641 600 CURVE",
"639 611 OFFCURVE",
"638 622 OFFCURVE",
"638 632 CURVE",
"636 653 LINE",
"635 653 LINE",
"634 653 LINE SMOOTH",
"631 653 OFFCURVE",
"629 655 OFFCURVE",
"626 660 CURVE",
"625 661 OFFCURVE",
"623 663 OFFCURVE",
"622 665 CURVE",
"620 667 OFFCURVE",
"619 668 OFFCURVE",
"618 668 CURVE SMOOTH",
"607 668 OFFCURVE",
"591 669 OFFCURVE",
"568 674 CURVE SMOOTH",
"538 680 LINE",
"527 681 OFFCURVE",
"519 683 OFFCURVE",
"513 684 CURVE",
"454 691 OFFCURVE",
"438 695 OFFCURVE",
"405 695 CURVE SMOOTH",
"348 695 OFFCURVE",
"296 689 OFFCURVE",
"249 678 CURVE SMOOTH",
"140 650 OFFCURVE",
"64 583 OFFCURVE",
"64 463 CURVE SMOOTH",
"64 414 OFFCURVE",
"80 350 OFFCURVE",
"148 301 CURVE",
"181 279 OFFCURVE",
"217 258 OFFCURVE",
"258 239 CURVE SMOOTH",
"311 213 LINE",
"308 204 OFFCURVE",
"302 197 OFFCURVE",
"293 194 CURVE SMOOTH",
"277 189 OFFCURVE",
"261 187 OFFCURVE",
"246 187 CURVE",
"230 188 LINE",
"206 188 LINE SMOOTH",
"180 188 OFFCURVE",
"137 203 OFFCURVE",
"86 234 CURVE",
"79 230 OFFCURVE",
"74 224 OFFCURVE",
"73 216 CURVE",
"73 213 LINE",
"85 124 OFFCURVE",
"90 86 OFFCURVE",
"106 38 CURVE",
"167 -1 OFFCURVE",
"241 -24 OFFCURVE",
"336 -24 CURVE SMOOTH"
);
}
);
width = 721;
}
);
note = S;
unicode = 0053;
},
{
glyphname = Scedilla;
lastChange = "2017-06-11 23:28:21 +0000";
layers = (
{
layerId = "CBDECE4A-293B-4E5C-B714-A3FD26C7130D";
paths = (
{
closed = 1;
nodes = (
"585 371 OFFCURVE",
"542 395 OFFCURVE",
"493 409 CURVE",
"490 410 OFFCURVE",
"484 413 OFFCURVE",
"474 417 CURVE",
"464 420 OFFCURVE",
"454 425 OFFCURVE",
"444 430 CURVE",
"423 444 OFFCURVE",
"413 459 OFFCURVE",
"413 475 CURVE SMOOTH",
"413 476 OFFCURVE",
"417 478 OFFCURVE",
"425 479 CURVE",
"458 486 LINE",
"487 491 OFFCURVE",
"513 493 OFFCURVE",
"536 493 CURVE SMOOTH",
"550 493 LINE",
"560 493 LINE",
"653 481 LINE",
"670 493 OFFCURVE",
"674 513 OFFCURVE",
"674 546 CURVE SMOOTH",
"674 565 OFFCURVE",
"673 583 OFFCURVE",
"671 600 CURVE",
"669 611 OFFCURVE",
"668 622 OFFCURVE",
"668 632 CURVE",
"666 653 LINE",
"665 653 LINE",
"664 653 LINE SMOOTH",
"661 653 OFFCURVE",
"659 655 OFFCURVE",
"656 660 CURVE",
"655 661 OFFCURVE",
"653 663 OFFCURVE",
"652 665 CURVE",
"650 667 OFFCURVE",
"649 668 OFFCURVE",
"648 668 CURVE SMOOTH",
"637 668 OFFCURVE",
"621 670 OFFCURVE",
"598 674 CURVE SMOOTH",
"568 680 LINE",
"557 681 OFFCURVE",
"549 683 OFFCURVE",
"543 684 CURVE",
"484 691 OFFCURVE",
"438 695 OFFCURVE",
"405 695 CURVE SMOOTH",
"348 695 OFFCURVE",
"296 689 OFFCURVE",
"249 678 CURVE SMOOTH",
"140 650 OFFCURVE",
"64 583 OFFCURVE",
"64 463 CURVE SMOOTH",
"64 414 OFFCURVE",
"80 350 OFFCURVE",
"148 301 CURVE",
"181 279 OFFCURVE",
"217 258 OFFCURVE",
"258 239 CURVE SMOOTH",
"311 213 LINE",
"308 204 OFFCURVE",
"302 197 OFFCURVE",
"293 194 CURVE SMOOTH",
"277 189 OFFCURVE",
"261 187 OFFCURVE",
"246 187 CURVE",
"230 188 LINE",
"206 188 LINE SMOOTH",
"150 188 OFFCURVE",
"107 203 OFFCURVE",
"56 234 CURVE",
"49 230 OFFCURVE",
"44 224 OFFCURVE",
"43 216 CURVE",
"43 213 LINE",
"55 124 OFFCURVE",
"60 86 OFFCURVE",
"76 38 CURVE",
"107 19 OFFCURVE",
"146 3 OFFCURVE",
"193 -8 CURVE SMOOTH",
"226 -15 OFFCURVE",
"255 -19 OFFCURVE",
"280 -21 CURVE",
"271 -78 LINE",
"269 -118 LINE",
"282 -112 OFFCURVE",
"296 -109 OFFCURVE",
"311 -109 CURVE SMOOTH",
"350 -109 OFFCURVE",
"374 -128 OFFCURVE",
"374 -163 CURVE SMOOTH",
"374 -196 OFFCURVE",
"354 -229 OFFCURVE",
"309 -229 CURVE SMOOTH",
"284 -229 OFFCURVE",
"261 -224 OFFCURVE",
"240 -215 CURVE",
"239 -216 OFFCURVE",
"238 -219 OFFCURVE",
"236 -224 CURVE SMOOTH",
"234 -229 OFFCURVE",
"232 -236 OFFCURVE",
"229 -243 CURVE",
"219 -298 LINE",
"225 -305 OFFCURVE",
"234 -311 OFFCURVE",
"245 -315 CURVE SMOOTH",
"268 -324 OFFCURVE",
"289 -328 OFFCURVE",
"309 -328 CURVE SMOOTH",
"326 -328 LINE SMOOTH",
"495 -328 OFFCURVE",
"549 -261 OFFCURVE",
"549 -174 CURVE SMOOTH",
"549 -115 OFFCURVE",
"497 -65 OFFCURVE",
"384 -48 CURVE",
"389 -22 LINE",
"462 -15 OFFCURVE",
"548 6 OFFCURVE",
"613 71 CURVE",
"646 108 OFFCURVE",
"665 151 OFFCURVE",
"670 201 CURVE",
"673 212 OFFCURVE",
"674 223 OFFCURVE",
"674 233 CURVE SMOOTH",
"674 266 OFFCURVE",
"654 304 OFFCURVE",
"621 336 CURVE SMOOTH"
);
}
);
width = 721;
}
);
note = Scedilla;
unicode = 015E;
},
{
glyphname = uni1E9E;
lastChange = "2017-06-11 23:28:21 +0000";
layers = (
{
layerId = "CBDECE4A-293B-4E5C-B714-A3FD26C7130D";
paths = (
{
closed = 1;
nodes = (
"449 -13 LINE SMOOTH",
"547 -13 OFFCURVE",
"628 -4 OFFCURVE",
"693 13 CURVE SMOOTH",
"804 41 OFFCURVE",
"846 95 OFFCURVE",
"846 150 CURVE SMOOTH",
"846 161 OFFCURVE",
"845 167 OFFCURVE",
"844 171 CURVE",
"837 238 OFFCURVE",
"825 281 OFFCURVE",
"798 313 CURVE SMOOTH",
"771 346 OFFCURVE",
"730 366 OFFCURVE",
"666 378 CURVE",
"663 383 LINE",
"667 387 OFFCURVE",
"672 390 OFFCURVE",
"678 391 CURVE",
"680 392 OFFCURVE",
"683 393 OFFCURVE",
"686 394 CURVE SMOOTH",
"689 395 OFFCURVE",
"693 397 OFFCURVE",
"698 398 CURVE",
"738 423 OFFCURVE",
"756 458 OFFCURVE",
"756 506 CURVE SMOOTH",
"756 553 OFFCURVE",
"739 592 OFFCURVE",
"704 621 CURVE SMOOTH",
"647 668 OFFCURVE",
"581 676 OFFCURVE",
"496 688 CURVE SMOOTH",
"458 694 LINE",
"435 694 LINE SMOOTH",
"429 694 OFFCURVE",
"425 694 OFFCURVE",
"424 695 CURVE",
"418 695 LINE SMOOTH",
"415 695 OFFCURVE",
"413 695 OFFCURVE",
"411 696 CURVE",
"400 696 LINE",
"378 696 LINE SMOOTH",
"302 696 OFFCURVE",
"259 694 OFFCURVE",
"218 685 CURVE SMOOTH",
"166 673 OFFCURVE",
"127 648 OFFCURVE",
"100 604 CURVE SMOOTH",
"69 557 OFFCURVE",
"54 483 OFFCURVE",
"54 383 CURVE SMOOTH",
"54 364 OFFCURVE",
"55 335 OFFCURVE",
"58 296 CURVE SMOOTH",
"59 283 OFFCURVE",
"63 240 OFFCURVE",
"63 208 CURVE SMOOTH",
"63 190 LINE",
"63 158 LINE",
"60 142 OFFCURVE",
"60 113 OFFCURVE",
"60 80 CURVE SMOOTH",
"60 46 LINE",
"59 39 OFFCURVE",
"59 32 OFFCURVE",
"59 25 CURVE SMOOTH",
"59 20 OFFCURVE",
"63 16 OFFCURVE",
"70 13 CURVE",
"79 10 OFFCURVE",
"91 8 OFFCURVE",
"108 8 CURVE",
"126 6 OFFCURVE",
"150 5 OFFCURVE",
"180 5 CURVE SMOOTH",
"290 5 LINE",
"311 5 LINE",
"328 6 LINE",
"331 7 OFFCURVE",
"337 8 OFFCURVE",
"345 9 CURVE SMOOTH",
"360 11 OFFCURVE",
"370 9 OFFCURVE",
"383 25 CURVE",
"390 46 LINE",
"390 72 OFFCURVE",
"391 96 OFFCURVE",
"393 118 CURVE",
"394 190 LINE",
"394 241 LINE",
"393 255 LINE",
"393 278 LINE",
"391 295 OFFCURVE",
"390 308 OFFCURVE",
"390 316 CURVE",
"393 375 LINE",
"393 383 LINE",
"393 398 LINE",
"393 418 LINE",
"392 421 OFFCURVE",
"391 427 OFFCURVE",
"391 436 CURVE SMOOTH",
"391 451 LINE",
"391 458 LINE SMOOTH",
"391 475 OFFCURVE",
"391 496 OFFCURVE",
"398 508 CURVE",
"403 521 OFFCURVE",
"415 528 OFFCURVE",
"434 528 CURVE SMOOTH",
"459 528 OFFCURVE",
"479 526 OFFCURVE",
"494 523 CURVE",
"522 520 OFFCURVE",
"536 512 OFFCURVE",
"536 500 CURVE SMOOTH",
"536 491 OFFCURVE",
"535 483 OFFCURVE",
"533 478 CURVE",
"526 467 OFFCURVE",
"518 460 OFFCURVE",
"508 458 CURVE",
"495 453 LINE",
"494 453 OFFCURVE",
"492 452 OFFCURVE",
"490 451 CURVE",
"479 446 LINE",
"476 443 OFFCURVE",
"473 441 OFFCURVE",
"468 439 CURVE",
"465 438 OFFCURVE",
"461 436 OFFCURVE",
"456 433 CURVE",
"455 313 LINE",
"496 310 OFFCURVE",
"526 303 OFFCURVE",
"563 280 CURVE",
"574 278 OFFCURVE",
"579 273 OFFCURVE",
"579 266 CURVE SMOOTH",
"579 251 OFFCURVE",
"570 238 OFFCURVE",
"554 234 CURVE",
"536 231 OFFCURVE",
"518 229 OFFCURVE",
"500 228 CURVE",
"480 225 LINE",
"446 219 LINE",
"446 -13 LINE"
);
}
);
width = 885;
}
);
note = uni1E9E;
unicode = 1E9E;
},
{
glyphname = uni018F;
lastChange = "2017-06-11 23:28:21 +0000";
layers = (
{
layerId = "CBDECE4A-293B-4E5C-B714-A3FD26C7130D";
paths = (
{
closed = 1;
nodes = (
"573 -14 LINE SMOOTH",
"618 -9 OFFCURVE",
"660 10 OFFCURVE",
"697 42 CURVE SMOOTH",
"771 105 OFFCURVE",
"814 205 OFFCURVE",
"814 305 CURVE",
"813 388 LINE",
"813 437 OFFCURVE",
"801 483 OFFCURVE",
"778 525 CURVE SMOOTH",
"730 609 OFFCURVE",
"644 665 OFFCURVE",
"545 676 CURVE SMOOTH",
"454 686 LINE",
"321 688 LINE SMOOTH",
"260 688 OFFCURVE",
"150 674 OFFCURVE",
"95 661 CURVE",
"78 638 LINE",
"78 493 LINE",
"94 475 LINE",
"120 480 LINE SMOOTH",
"169 491 OFFCURVE",
"208 497 OFFCURVE",
"236 498 CURVE SMOOTH",
"308 503 LINE",
"329 503 LINE",
"343 500 OFFCURVE",
"352 499 OFFCURVE",
"357 498 CURVE",
"360 497 OFFCURVE",
"367 496 OFFCURVE",
"380 494 CURVE",
"392 491 OFFCURVE",
"403 488 OFFCURVE",
"413 483 CURVE",
"448 470 OFFCURVE",
"463 453 OFFCURVE",
"468 426 CURVE",
"473 386 LINE",
"474 355 LINE",
"433 353 LINE",
"311 351 LINE",
"65 353 LINE",
"46 333 LINE",
"46 235 LINE SMOOTH",
"46 188 OFFCURVE",
"59 145 OFFCURVE",
"85 107 CURVE SMOOTH",
"136 30 OFFCURVE",
"236 -18 OFFCURVE",
"368 -21 CURVE SMOOTH",
"494 -24 LINE"
);
},
{
closed = 1;
nodes = (
"415 73 OFFCURVE",
"403 90 OFFCURVE",
"396 125 CURVE SMOOTH",
"389 162 OFFCURVE",
"385 198 OFFCURVE",
"384 234 CURVE",
"478 241 LINE",
"478 225 OFFCURVE",
"476 208 OFFCURVE",
"473 189 CURVE SMOOTH",
"467 154 LINE SMOOTH",
"465 141 OFFCURVE",
"463 128 OFFCURVE",
"461 117 CURVE SMOOTH",
"456 93 OFFCURVE",
"446 73 OFFCURVE",
"430 73 CURVE SMOOTH"
);
}
);
width = 859;
}
);
note = uni018F;
unicode = 018F;
},
{
glyphname = T;
lastChange = "2017-06-11 23:28:21 +0000";
layers = (
{
layerId = "CBDECE4A-293B-4E5C-B714-A3FD26C7130D";
paths = (
{
closed = 1;
nodes = (
"256 -1 OFFCURVE",
"280 -1 OFFCURVE",
"293 0 CURVE",
"398 1 LINE",
"409 2 OFFCURVE",
"427 3 OFFCURVE",
"453 3 CURVE",
"478 4 LINE",
"481 5 OFFCURVE",
"487 7 OFFCURVE",
"496 10 CURVE",
"505 16 OFFCURVE",
"510 30 OFFCURVE",
"510 53 CURVE SMOOTH",
"510 148 LINE",
"511 161 OFFCURVE",
"513 181 OFFCURVE",
"514 209 CURVE SMOOTH",
"516 239 LINE SMOOTH",
"519 304 OFFCURVE",
"520 347 OFFCURVE",
"520 366 CURVE",
"521 371 OFFCURVE",
"521 379 OFFCURVE",
"521 389 CURVE SMOOTH",
"521 423 LINE",
"521 438 LINE SMOOTH",
"521 439 OFFCURVE",
"521 441 OFFCURVE",
"522 442 CURVE SMOOTH",
"523 443 OFFCURVE",
"523 443 OFFCURVE",
"523 444 CURVE",
"524 447 OFFCURVE",
"527 448 OFFCURVE",
"533 448 CURVE SMOOTH",
"563 448 LINE",
"571 447 OFFCURVE",
"583 446 OFFCURVE",
"598 446 CURVE SMOOTH",
"631 446 LINE",
"663 446 LINE SMOOTH",
"676 446 OFFCURVE",
"688 448 OFFCURVE",
"688 463 CURVE SMOOTH",
"688 628 LINE SMOOTH",
"688 634 OFFCURVE",
"688 639 OFFCURVE",
"687 642 CURVE SMOOTH",
"685 648 OFFCURVE",
"677 652 OFFCURVE",
"665 653 CURVE",
"659 654 OFFCURVE",
"654 654 OFFCURVE",
"651 655 CURVE",
"643 656 OFFCURVE",
"626 656 OFFCURVE",
"600 656 CURVE SMOOTH",
"240 656 LINE",
"203 657 LINE",
"194 658 OFFCURVE",
"182 658 OFFCURVE",
"165 658 CURVE SMOOTH",
"89 658 LINE SMOOTH",
"76 658 OFFCURVE",
"66 657 OFFCURVE",
"59 655 CURVE SMOOTH",
"48 652 OFFCURVE",
"39 646 OFFCURVE",
"39 638 CURVE SMOOTH",
"39 629 LINE",
"39 614 LINE",
"38 610 OFFCURVE",
"38 605 OFFCURVE",
"38 598 CURVE SMOOTH",
"38 584 LINE SMOOTH",
"38 547 OFFCURVE",
"40 518 OFFCURVE",
"43 498 CURVE SMOOTH",
"48 463 OFFCURVE",
"58 443 OFFCURVE",
"75 443 CURVE SMOOTH",
"186 443 LINE",
"189 439 LINE",
"189 390 OFFCURVE",
"189 354 OFFCURVE",
"188 331 CURVE SMOOTH",
"186 258 OFFCURVE",
"185 194 OFFCURVE",
"185 138 CURVE SMOOTH",
"185 80 OFFCURVE",
"190 40 OFFCURVE",
"200 18 CURVE",
"205 5 OFFCURVE",
"212 -1 OFFCURVE",
"221 -1 CURVE SMOOTH"
);
}
);
width = 723;
}
);
note = T;
unicode = 0054;
},
{
glyphname = Tbar;
lastChange = "2017-06-11 23:28:21 +0000";
layers = (
{
layerId = "CBDECE4A-293B-4E5C-B714-A3FD26C7130D";
paths = (
{
closed = 1;
nodes = (
"256 -1 OFFCURVE",
"280 -1 OFFCURVE",
"293 0 CURVE",
"398 1 LINE",
"409 2 OFFCURVE",
"427 3 OFFCURVE",
"453 3 CURVE",
"478 4 LINE",
"481 5 OFFCURVE",
"487 7 OFFCURVE",
"496 10 CURVE",
"505 16 OFFCURVE",
"510 30 OFFCURVE",
"510 53 CURVE SMOOTH",
"510 148 LINE",
"513 189 LINE",
"523 188 OFFCURVE",
"545 188 OFFCURVE",
"579 188 CURVE SMOOTH",
"603 188 OFFCURVE",
"608 203 OFFCURVE",
"608 230 CURVE SMOOTH",
"608 248 LINE",
"608 259 LINE",
"608 268 LINE",
"607 269 OFFCURVE",
"606 272 OFFCURVE",
"606 275 CURVE",
"605 305 LINE",
"605 322 OFFCURVE",
"579 324 OFFCURVE",
"539 324 CURVE SMOOTH",
"519 324 LINE",
"521 389 LINE",
"521 423 LINE",
"521 438 LINE SMOOTH",
"521 439 OFFCURVE",
"521 441 OFFCURVE",
"522 442 CURVE SMOOTH",
"523 443 OFFCURVE",
"523 443 OFFCURVE",
"523 444 CURVE",
"524 447 OFFCURVE",
"527 448 OFFCURVE",
"533 448 CURVE SMOOTH",
"563 448 LINE",
"571 447 OFFCURVE",
"583 446 OFFCURVE",
"598 446 CURVE SMOOTH",
"663 446 LINE SMOOTH",
"676 446 OFFCURVE",
"688 448 OFFCURVE",
"688 463 CURVE SMOOTH",
"688 628 LINE SMOOTH",
"688 634 OFFCURVE",
"688 639 OFFCURVE",
"687 642 CURVE SMOOTH",
"685 648 OFFCURVE",
"677 652 OFFCURVE",
"665 653 CURVE",
"659 654 OFFCURVE",
"654 654 OFFCURVE",
"651 655 CURVE",
"643 656 OFFCURVE",
"626 656 OFFCURVE",
"600 656 CURVE SMOOTH",
"240 656 LINE",
"203 657 LINE",
"194 658 OFFCURVE",
"182 658 OFFCURVE",
"165 658 CURVE SMOOTH",
"89 658 LINE SMOOTH",
"76 658 OFFCURVE",
"66 657 OFFCURVE",
"59 655 CURVE SMOOTH",
"48 652 OFFCURVE",
"39 646 OFFCURVE",
"39 638 CURVE SMOOTH",
"39 629 LINE",
"39 614 LINE",
"38 610 OFFCURVE",
"38 605 OFFCURVE",
"38 598 CURVE SMOOTH",
"38 584 LINE SMOOTH",
"38 547 OFFCURVE",
"40 518 OFFCURVE",
"43 498 CURVE SMOOTH",
"48 463 OFFCURVE",
"58 443 OFFCURVE",
"75 443 CURVE SMOOTH",
"186 443 LINE",
"189 439 LINE",
"189 390 OFFCURVE",
"189 354 OFFCURVE",
"188 330 CURVE",
"188 328 LINE",
"123 328 LINE SMOOTH",
"120 328 OFFCURVE",
"113 326 OFFCURVE",
"103 323 CURVE",
"102 322 OFFCURVE",
"93 314 OFFCURVE",
"93 310 CURVE SMOOTH",
"93 297 OFFCURVE",
"93 288 OFFCURVE",
"94 283 CURVE",
"94 261 LINE",
"94 238 LINE",
"94 211 LINE SMOOTH",
"94 206 OFFCURVE",
"97 201 OFFCURVE",
"103 198 CURVE SMOOTH",
"113 193 OFFCURVE",
"130 191 OFFCURVE",
"154 191 CURVE SMOOTH",
"185 191 LINE",
"185 138 LINE SMOOTH",
"185 80 OFFCURVE",
"190 40 OFFCURVE",
"200 18 CURVE",
"205 5 OFFCURVE",
"212 -1 OFFCURVE",
"221 -1 CURVE SMOOTH"
);
}
);
width = 723;
}
);
note = Tbar;
unicode = 0166;
},
{
glyphname = uni0162;
lastChange = "2017-06-11 23:28:21 +0000";
layers = (
{
layerId = "CBDECE4A-293B-4E5C-B714-A3FD26C7130D";
paths = (
{
closed = 1;
nodes = (
"675 651 OFFCURVE",
"671 652 OFFCURVE",
"665 653 CURVE SMOOTH",
"659 654 OFFCURVE",
"654 654 OFFCURVE",
"651 655 CURVE",
"643 656 OFFCURVE",
"626 656 OFFCURVE",
"600 656 CURVE SMOOTH",
"240 656 LINE",
"203 657 LINE",
"194 658 OFFCURVE",
"182 658 OFFCURVE",
"165 658 CURVE SMOOTH",
"89 658 LINE SMOOTH",
"76 658 OFFCURVE",
"66 657 OFFCURVE",
"59 655 CURVE SMOOTH",
"48 652 OFFCURVE",
"39 646 OFFCURVE",
"39 638 CURVE SMOOTH",
"39 629 LINE",
"39 614 LINE",
"38 610 OFFCURVE",
"38 605 OFFCURVE",
"38 598 CURVE SMOOTH",
"38 584 LINE SMOOTH",
"38 547 OFFCURVE",
"40 518 OFFCURVE",
"43 498 CURVE SMOOTH",
"48 463 OFFCURVE",
"58 443 OFFCURVE",
"75 443 CURVE SMOOTH",
"186 443 LINE",
"189 439 LINE",
"189 390 OFFCURVE",
"189 354 OFFCURVE",
"188 331 CURVE SMOOTH",
"186 258 OFFCURVE",
"185 194 OFFCURVE",
"185 138 CURVE SMOOTH",
"185 80 OFFCURVE",
"190 40 OFFCURVE",
"200 18 CURVE",
"205 5 OFFCURVE",
"212 -1 OFFCURVE",
"221 -1 CURVE SMOOTH",
"256 -1 OFFCURVE",
"280 -1 OFFCURVE",
"293 0 CURVE",
"304 0 LINE",
"291 -78 LINE",
"289 -118 LINE",
"302 -112 OFFCURVE",
"316 -109 OFFCURVE",
"331 -109 CURVE SMOOTH",
"370 -109 OFFCURVE",
"394 -128 OFFCURVE",
"394 -163 CURVE SMOOTH",
"394 -196 OFFCURVE",
"374 -229 OFFCURVE",
"329 -229 CURVE SMOOTH",
"304 -229 OFFCURVE",
"281 -224 OFFCURVE",
"260 -215 CURVE",
"259 -216 OFFCURVE",
"258 -219 OFFCURVE",
"256 -224 CURVE SMOOTH",
"254 -229 OFFCURVE",
"252 -236 OFFCURVE",
"249 -243 CURVE",
"239 -298 LINE",
"245 -305 OFFCURVE",
"254 -311 OFFCURVE",
"265 -315 CURVE SMOOTH",
"288 -324 OFFCURVE",
"309 -328 OFFCURVE",
"329 -328 CURVE SMOOTH",
"346 -328 LINE SMOOTH",
"515 -328 OFFCURVE",
"569 -261 OFFCURVE",
"569 -174 CURVE SMOOTH",
"569 -115 OFFCURVE",
"517 -65 OFFCURVE",
"404 -48 CURVE",
"414 2 LINE",
"422 3 OFFCURVE",
"435 3 OFFCURVE",
"453 3 CURVE",
"478 4 LINE",
"481 5 OFFCURVE",
"487 7 OFFCURVE",
"496 10 CURVE",
"505 16 OFFCURVE",
"510 30 OFFCURVE",
"510 53 CURVE SMOOTH",
"510 148 LINE",
"511 161 OFFCURVE",
"513 181 OFFCURVE",
"514 209 CURVE SMOOTH",
"516 239 LINE SMOOTH",
"519 304 OFFCURVE",
"520 347 OFFCURVE",
"520 366 CURVE",
"521 371 OFFCURVE",
"521 379 OFFCURVE",
"521 389 CURVE SMOOTH",
"521 423 LINE",
"521 438 LINE SMOOTH",
"521 439 OFFCURVE",
"521 441 OFFCURVE",
"522 442 CURVE SMOOTH",
"523 443 OFFCURVE",
"523 443 OFFCURVE",
"523 444 CURVE",
"524 447 OFFCURVE",
"527 448 OFFCURVE",
"533 448 CURVE SMOOTH",
"563 448 LINE",
"571 447 OFFCURVE",
"583 446 OFFCURVE",
"598 446 CURVE SMOOTH",
"631 446 LINE",
"663 446 LINE SMOOTH",
"676 446 OFFCURVE",
"688 448 OFFCURVE",
"688 463 CURVE SMOOTH",
"688 628 LINE SMOOTH",
"688 640 OFFCURVE",
"687 645 OFFCURVE",
"678 649 CURVE"
);
}
);
width = 723;
}
);
note = uni0162;
unicode = 0162;
},
{
glyphname = U;
lastChange = "2017-06-11 23:28:21 +0000";
layers = (
{
layerId = "CBDECE4A-293B-4E5C-B714-A3FD26C7130D";
paths = (
{
closed = 1;
nodes = (
"350 -23 OFFCURVE",
"431 -1 OFFCURVE",
"503 35 CURVE",
"510 6 OFFCURVE",
"527 -5 OFFCURVE",
"563 -5 CURVE",
"609 -3 LINE",
"632 -3 OFFCURVE",
"702 0 OFFCURVE",
"729 3 CURVE",
"780 3 LINE SMOOTH",
"805 3 OFFCURVE",
"818 16 OFFCURVE",
"818 43 CURVE SMOOTH",
"818 110 OFFCURVE",
"820 208 OFFCURVE",
"824 339 CURVE SMOOTH",
"828 438 OFFCURVE",
"830 537 OFFCURVE",
"830 636 CURVE SMOOTH",
"830 644 OFFCURVE",
"828 649 OFFCURVE",
"816 653 CURVE",
"788 661 LINE",
"766 666 OFFCURVE",
"748 668 OFFCURVE",
"733 669 CURVE SMOOTH",
"703 670 LINE",
"698 671 OFFCURVE",
"691 671 OFFCURVE",
"683 671 CURVE",
"678 672 OFFCURVE",
"673 673 OFFCURVE",
"669 673 CURVE",
"663 671 OFFCURVE",
"653 670 OFFCURVE",
"640 670 CURVE",
"603 667 OFFCURVE",
"560 665 OFFCURVE",
"521 665 CURVE SMOOTH",
"486 665 OFFCURVE",
"481 658 OFFCURVE",
"481 634 CURVE SMOOTH",
"481 625 LINE SMOOTH",
"481 618 OFFCURVE",
"482 612 OFFCURVE",
"483 608 CURVE",
"483 593 OFFCURVE",
"484 578 OFFCURVE",
"486 563 CURVE",
"486 161 LINE",
"481 158 OFFCURVE",
"471 153 OFFCURVE",
"458 146 CURVE",
"437 137 OFFCURVE",
"417 133 OFFCURVE",
"399 133 CURVE SMOOTH",
"390 133 OFFCURVE",
"385 138 OFFCURVE",
"383 149 CURVE SMOOTH",
"381 160 OFFCURVE",
"380 178 OFFCURVE",
"380 203 CURVE SMOOTH",
"380 242 OFFCURVE",
"381 291 OFFCURVE",
"382 350 CURVE SMOOTH",
"383 382 OFFCURVE",
"384 405 OFFCURVE",
"384 418 CURVE SMOOTH",
"384 428 OFFCURVE",
"384 435 OFFCURVE",
"385 440 CURVE",
"386 479 OFFCURVE",
"388 529 OFFCURVE",
"388 589 CURVE SMOOTH",
"388 614 OFFCURVE",
"385 631 OFFCURVE",
"380 641 CURVE",
"368 658 OFFCURVE",
"336 665 OFFCURVE",
"281 670 CURVE SMOOTH",
"242 674 OFFCURVE",
"201 675 OFFCURVE",
"158 674 CURVE SMOOTH",
"98 674 LINE SMOOTH",
"75 674 OFFCURVE",
"64 669 OFFCURVE",
"64 658 CURVE SMOOTH",
"64 653 OFFCURVE",
"65 645 OFFCURVE",
"66 636 CURVE",
"67 632 OFFCURVE",
"68 625 OFFCURVE",
"68 615 CURVE SMOOTH",
"68 576 OFFCURVE",
"66 516 OFFCURVE",
"65 488 CURVE SMOOTH",
"64 471 OFFCURVE",
"63 457 OFFCURVE",
"63 448 CURVE",
"58 389 OFFCURVE",
"55 335 OFFCURVE",
"55 286 CURVE SMOOTH",
"55 218 OFFCURVE",
"58 167 OFFCURVE",
"65 133 CURVE SMOOTH",
"85 30 OFFCURVE",
"138 -23 OFFCURVE",
"265 -23 CURVE SMOOTH"
);
}
);
width = 885;
}
);
note = U;
unicode = 0055;
},
{
glyphname = Uhorn;
lastChange = "2017-06-11 23:28:21 +0000";
layers = (
{
layerId = "CBDECE4A-293B-4E5C-B714-A3FD26C7130D";
paths = (
{
closed = 1;
nodes = (
"350 -23 OFFCURVE",
"431 -1 OFFCURVE",
"503 35 CURVE",
"510 6 OFFCURVE",
"527 -5 OFFCURVE",
"563 -5 CURVE",
"609 -3 LINE",
"620 -3 OFFCURVE",
"636 -2 OFFCURVE",
"656 -1 CURVE SMOOTH",
"729 3 LINE",
"780 3 LINE SMOOTH",
"805 3 OFFCURVE",
"818 16 OFFCURVE",
"818 43 CURVE SMOOTH",
"818 110 OFFCURVE",
"820 208 OFFCURVE",
"824 339 CURVE SMOOTH",
"827 420 OFFCURVE",
"828 479 OFFCURVE",
"829 518 CURVE",
"853 536 LINE",
"874 560 LINE",
"898 598 LINE",
"911 621 OFFCURVE",
"918 648 OFFCURVE",
"926 700 CURVE",
"928 745 LINE",
"924 786 LINE",
"919 805 LINE",
"758 809 LINE",
"763 791 LINE",
"765 758 LINE",
"764 733 LINE",
"755 708 LINE SMOOTH",
"748 689 OFFCURVE",
"725 671 OFFCURVE",
"706 671 CURVE SMOOTH",
"691 671 LINE",
"674 673 LINE",
"669 673 LINE",
"660 671 LINE",
"657 670 OFFCURVE",
"650 670 OFFCURVE",
"640 670 CURVE",
"603 667 OFFCURVE",
"560 665 OFFCURVE",
"521 665 CURVE SMOOTH",
"486 665 OFFCURVE",
"481 658 OFFCURVE",
"481 634 CURVE SMOOTH",
"481 625 LINE SMOOTH",
"481 618 OFFCURVE",
"482 612 OFFCURVE",
"483 608 CURVE",
"483 593 OFFCURVE",
"484 578 OFFCURVE",
"486 563 CURVE",
"486 161 LINE",
"481 158 OFFCURVE",
"471 153 OFFCURVE",
"458 146 CURVE",
"437 137 OFFCURVE",
"417 133 OFFCURVE",
"399 133 CURVE SMOOTH",
"390 133 OFFCURVE",
"385 138 OFFCURVE",
"383 149 CURVE SMOOTH",
"381 160 OFFCURVE",
"380 178 OFFCURVE",
"380 203 CURVE SMOOTH",
"380 242 OFFCURVE",
"381 291 OFFCURVE",
"382 350 CURVE SMOOTH",
"383 382 OFFCURVE",
"384 405 OFFCURVE",
"384 418 CURVE SMOOTH",
"384 428 OFFCURVE",
"384 435 OFFCURVE",
"385 440 CURVE",
"386 479 OFFCURVE",
"388 529 OFFCURVE",
"388 589 CURVE SMOOTH",
"388 614 OFFCURVE",
"385 631 OFFCURVE",
"380 641 CURVE",
"368 658 OFFCURVE",
"336 665 OFFCURVE",
"281 670 CURVE SMOOTH",
"242 674 OFFCURVE",
"201 675 OFFCURVE",
"158 674 CURVE SMOOTH",
"98 674 LINE SMOOTH",
"75 674 OFFCURVE",
"64 669 OFFCURVE",
"64 658 CURVE SMOOTH",
"64 653 OFFCURVE",
"65 645 OFFCURVE",
"66 636 CURVE",
"67 632 OFFCURVE",
"68 625 OFFCURVE",
"68 615 CURVE SMOOTH",
"68 576 OFFCURVE",
"66 516 OFFCURVE",
"65 488 CURVE SMOOTH",
"64 471 OFFCURVE",
"63 457 OFFCURVE",
"63 448 CURVE",
"58 389 OFFCURVE",
"55 335 OFFCURVE",
"55 286 CURVE SMOOTH",
"55 218 OFFCURVE",
"58 167 OFFCURVE",
"65 133 CURVE SMOOTH",
"85 30 OFFCURVE",
"138 -23 OFFCURVE",
"265 -23 CURVE SMOOTH"
);
}
);
width = 885;
}
);
note = Uhorn;
unicode = 01AF;
},
{
glyphname = Uogonek;
lastChange = "2017-06-11 23:28:21 +0000";
layers = (
{
layerId = "CBDECE4A-293B-4E5C-B714-A3FD26C7130D";
paths = (
{
closed = 1;
nodes = (
"816 -154 OFFCURVE",
"787 -160 OFFCURVE",
"760 -160 CURVE SMOOTH",
"751 -160 OFFCURVE",
"745 -160 OFFCURVE",
"740 -161 CURVE",
"732 -164 OFFCURVE",
"722 -159 OFFCURVE",
"719 -158 CURVE",
"704 -154 OFFCURVE",
"696 -146 OFFCURVE",
"696 -126 CURVE SMOOTH",
"696 -118 OFFCURVE",
"700 -106 OFFCURVE",
"709 -90 CURVE SMOOTH",
"722 -67 OFFCURVE",
"736 -49 OFFCURVE",
"755 -33 CURVE",
"791 4 LINE",
"809 7 OFFCURVE",
"818 20 OFFCURVE",
"818 43 CURVE SMOOTH",
"818 110 OFFCURVE",
"820 208 OFFCURVE",
"824 339 CURVE SMOOTH",
"828 438 OFFCURVE",
"830 537 OFFCURVE",
"830 636 CURVE SMOOTH",
"830 644 OFFCURVE",
"828 649 OFFCURVE",
"816 653 CURVE",
"788 661 LINE",
"766 666 OFFCURVE",
"748 668 OFFCURVE",
"733 669 CURVE SMOOTH",
"703 670 LINE",
"698 671 OFFCURVE",
"691 671 OFFCURVE",
"683 671 CURVE",
"678 672 OFFCURVE",
"673 673 OFFCURVE",
"669 673 CURVE",
"663 671 OFFCURVE",
"653 670 OFFCURVE",
"640 670 CURVE",
"603 667 OFFCURVE",
"560 665 OFFCURVE",
"521 665 CURVE SMOOTH",
"486 665 OFFCURVE",
"481 658 OFFCURVE",
"481 634 CURVE SMOOTH",
"481 625 LINE SMOOTH",
"481 618 OFFCURVE",
"482 612 OFFCURVE",
"483 608 CURVE",
"483 593 OFFCURVE",
"484 578 OFFCURVE",
"486 563 CURVE",
"486 161 LINE",
"481 158 OFFCURVE",
"471 153 OFFCURVE",
"458 146 CURVE",
"437 137 OFFCURVE",
"417 133 OFFCURVE",
"399 133 CURVE SMOOTH",
"390 133 OFFCURVE",
"385 138 OFFCURVE",
"383 149 CURVE SMOOTH",
"381 160 OFFCURVE",
"380 178 OFFCURVE",
"380 203 CURVE SMOOTH",
"380 242 OFFCURVE",
"381 291 OFFCURVE",
"382 350 CURVE SMOOTH",
"383 382 OFFCURVE",
"384 405 OFFCURVE",
"384 418 CURVE SMOOTH",
"384 428 OFFCURVE",
"384 435 OFFCURVE",
"385 440 CURVE",
"386 479 OFFCURVE",
"388 529 OFFCURVE",
"388 589 CURVE SMOOTH",
"388 614 OFFCURVE",
"385 631 OFFCURVE",
"380 641 CURVE",
"368 658 OFFCURVE",
"336 665 OFFCURVE",
"281 670 CURVE SMOOTH",
"242 674 OFFCURVE",
"201 675 OFFCURVE",
"158 674 CURVE SMOOTH",
"98 674 LINE SMOOTH",
"75 674 OFFCURVE",
"64 669 OFFCURVE",
"64 658 CURVE SMOOTH",
"64 653 OFFCURVE",
"65 645 OFFCURVE",
"66 636 CURVE",
"67 632 OFFCURVE",
"68 625 OFFCURVE",
"68 615 CURVE SMOOTH",
"68 576 OFFCURVE",
"66 516 OFFCURVE",
"65 488 CURVE SMOOTH",
"64 471 OFFCURVE",
"63 457 OFFCURVE",
"63 448 CURVE",
"58 389 OFFCURVE",
"55 335 OFFCURVE",
"55 286 CURVE SMOOTH",
"55 218 OFFCURVE",
"58 167 OFFCURVE",
"65 133 CURVE SMOOTH",
"85 30 OFFCURVE",
"138 -23 OFFCURVE",
"265 -23 CURVE SMOOTH",
"350 -23 OFFCURVE",
"431 -1 OFFCURVE",
"503 35 CURVE",
"510 6 OFFCURVE",
"527 -5 OFFCURVE",
"563 -5 CURVE",
"588 -4 OFFCURVE",
"607 -3 OFFCURVE",
"620 -3 CURVE",
"609 -10 LINE SMOOTH",
"606 -12 OFFCURVE",
"600 -15 OFFCURVE",
"593 -19 CURVE",
"585 -24 OFFCURVE",
"579 -28 OFFCURVE",
"574 -33 CURVE",
"518 -70 OFFCURVE",
"491 -103 OFFCURVE",
"491 -163 CURVE SMOOTH",
"491 -175 OFFCURVE",
"493 -186 OFFCURVE",
"496 -195 CURVE",
"507 -220 OFFCURVE",
"530 -240 OFFCURVE",
"567 -253 CURVE SMOOTH",
"606 -268 OFFCURVE",
"661 -276 OFFCURVE",
"734 -276 CURVE",
"744 -274 LINE",
"746 -273 OFFCURVE",
"749 -273 OFFCURVE",
"752 -273 CURVE SMOOTH",
"755 -273 OFFCURVE",
"759 -272 OFFCURVE",
"764 -271 CURVE",
"775 -270 OFFCURVE",
"791 -265 OFFCURVE",
"811 -258 CURVE",
"824 -251 OFFCURVE",
"836 -245 OFFCURVE",
"837 -240 CURVE SMOOTH",
"854 -158 LINE",
"854 -153 LINE SMOOTH",
"854 -148 OFFCURVE",
"852 -145 OFFCURVE",
"847 -143 CURVE"
);
}
);
width = 885;
}
);
note = Uogonek;
unicode = 0172;
},
{
glyphname = V;
lastChange = "2017-06-15 14:03:56 +0000";
layers = (
{
layerId = "CBDECE4A-293B-4E5C-B714-A3FD26C7130D";
paths = (
{
closed = 1;
nodes = (
"405 0 OFFCURVE",
"496 2 OFFCURVE",
"579 5 CURVE",
"586 5 OFFCURVE",
"595 4 OFFCURVE",
"606 3 CURVE",
"615 1 OFFCURVE",
"624 0 OFFCURVE",
"633 0 CURVE SMOOTH",
"637 0 OFFCURVE",
"641 1 OFFCURVE",
"645 3 CURVE SMOOTH",
"649 5 OFFCURVE",
"653 6 OFFCURVE",
"658 6 CURVE",
"663 5 LINE",
"666 5 LINE",
"673 10 OFFCURVE",
"676 14 OFFCURVE",
"676 16 CURVE",
"717 180 LINE SMOOTH",
"738 257 OFFCURVE",
"797 492 OFFCURVE",
"814 580 CURVE",
"815 581 OFFCURVE",
"815 584 OFFCURVE",
"816 588 CURVE",
"816 591 OFFCURVE",
"817 596 OFFCURVE",
"819 603 CURVE",
"822 616 OFFCURVE",
"823 626 OFFCURVE",
"823 633 CURVE",
"824 645 LINE",
"824 664 OFFCURVE",
"818 673 OFFCURVE",
"806 673 CURVE SMOOTH",
"770 673 LINE",
"765 672 OFFCURVE",
"757 671 OFFCURVE",
"744 671 CURVE SMOOTH",
"719 671 LINE",
"714 670 OFFCURVE",
"707 670 OFFCURVE",
"699 670 CURVE SMOOTH",
"628 670 LINE",
"628 668 LINE",
"627 668 OFFCURVE",
"626 668 OFFCURVE",
"625 667 CURVE",
"623 666 OFFCURVE",
"621 666 OFFCURVE",
"618 666 CURVE",
"618 667 LINE",
"617 668 OFFCURVE",
"617 670 OFFCURVE",
"614 670 CURVE SMOOTH",
"611 670 LINE",
"603 669 LINE",
"583 668 LINE",
"558 667 LINE",
"553 666 OFFCURVE",
"545 666 OFFCURVE",
"536 666 CURVE",
"532 658 OFFCURVE",
"528 649 OFFCURVE",
"525 638 CURVE",
"520 612 OFFCURVE",
"516 595 OFFCURVE",
"515 588 CURVE SMOOTH",
"508 536 LINE SMOOTH",
"504 508 OFFCURVE",
"498 487 OFFCURVE",
"495 473 CURVE SMOOTH",
"492 458 LINE",
"489 441 LINE SMOOTH",
"488 435 OFFCURVE",
"486 428 OFFCURVE",
"485 420 CURVE SMOOTH",
"475 364 LINE",
"461 260 LINE SMOOTH",
"460 255 OFFCURVE",
"455 222 OFFCURVE",
"455 220 CURVE",
"455 221 OFFCURVE",
"454 202 OFFCURVE",
"450 202 CURVE SMOOTH",
"447 202 OFFCURVE",
"446 215 OFFCURVE",
"446 215 CURVE",
"443 230 LINE",
"424 359 LINE",
"414 420 LINE",
"412 427 OFFCURVE",
"411 434 OFFCURVE",
"410 441 CURVE SMOOTH",
"409 447 OFFCURVE",
"407 453 OFFCURVE",
"406 458 CURVE",
"405 462 OFFCURVE",
"405 465 OFFCURVE",
"405 468 CURVE",
"404 471 OFFCURVE",
"404 472 OFFCURVE",
"404 473 CURVE",
"397 501 OFFCURVE",
"392 522 OFFCURVE",
"390 536 CURVE SMOOTH",
"383 593 LINE SMOOTH",
"378 634 OFFCURVE",
"367 658 OFFCURVE",
"363 666 CURVE",
"350 666 OFFCURVE",
"340 667 OFFCURVE",
"333 668 CURVE",
"305 668 OFFCURVE",
"287 668 OFFCURVE",
"278 669 CURVE SMOOTH",
"268 670 LINE",
"264 670 LINE SMOOTH",
"261 670 OFFCURVE",
"259 669 OFFCURVE",
"256 668 CURVE",
"255 668 OFFCURVE",
"255 668 OFFCURVE",
"254 667 CURVE SMOOTH",
"253 666 OFFCURVE",
"251 666 OFFCURVE",
"250 666 CURVE",
"248 667 OFFCURVE",
"246 667 OFFCURVE",
"244 668 CURVE SMOOTH",
"242 669 OFFCURVE",
"241 669 OFFCURVE",
"240 670 CURVE",
"149 670 LINE",
"104 671 LINE SMOOTH",
"92 671 OFFCURVE",
"83 672 OFFCURVE",
"78 673 CURVE",
"43 673 LINE SMOOTH",
"26 673 OFFCURVE",
"25 655 OFFCURVE",
"25 639 CURVE SMOOTH",
"25 628 OFFCURVE",
"27 616 OFFCURVE",
"30 603 CURVE SMOOTH",
"33 590 LINE",
"33 585 OFFCURVE",
"33 582 OFFCURVE",
"34 580 CURVE",
"54 485 OFFCURVE",
"100 274 OFFCURVE",
"119 205 CURVE SMOOTH",
"173 16 LINE",
"173 13 OFFCURVE",
"176 9 OFFCURVE",
"183 5 CURVE",
"188 5 LINE",
"188 6 OFFCURVE",
"189 6 OFFCURVE",
"191 6 CURVE SMOOTH",
"199 6 OFFCURVE",
"208 5 OFFCURVE",
"218 3 CURVE SMOOTH",
"228 1 OFFCURVE",
"237 0 OFFCURVE",
"245 0 CURVE SMOOTH"
);
}
);
width = 849;
}
);
note = V;
rightKerningGroup = V;
unicode = 0056;
},
{
glyphname = W;
lastChange = "2017-06-15 14:04:20 +0000";
layers = (
{
layerId = "CBDECE4A-293B-4E5C-B714-A3FD26C7130D";
paths = (
{
closed = 1;
nodes = (
"387 -1 OFFCURVE",
"402 -1 OFFCURVE",
"411 0 CURVE",
"458 0 LINE SMOOTH",
"476 0 OFFCURVE",
"487 5 OFFCURVE",
"490 16 CURVE",
"556 346 LINE",
"623 16 LINE",
"623 11 OFFCURVE",
"626 7 OFFCURVE",
"633 5 CURVE",
"643 6 LINE",
"655 6 OFFCURVE",
"664 6 OFFCURVE",
"671 5 CURVE",
"700 5 LINE",
"749 5 LINE",
"806 5 LINE",
"819 4 OFFCURVE",
"838 4 OFFCURVE",
"864 4 CURVE SMOOTH",
"914 4 LINE",
"926 5 LINE",
"929 6 OFFCURVE",
"933 6 OFFCURVE",
"938 6 CURVE",
"948 5 LINE",
"948 10 LINE",
"949 13 OFFCURVE",
"952 15 OFFCURVE",
"958 16 CURVE",
"1028 303 LINE",
"1051 384 OFFCURVE",
"1073 477 OFFCURVE",
"1095 580 CURVE",
"1095 600 OFFCURVE",
"1098 626 OFFCURVE",
"1105 643 CURVE",
"1105 659 OFFCURVE",
"1099 673 OFFCURVE",
"1088 673 CURVE SMOOTH",
"1073 673 LINE",
"1050 673 LINE",
"1045 672 OFFCURVE",
"1037 671 OFFCURVE",
"1024 671 CURVE SMOOTH",
"999 671 LINE",
"994 670 OFFCURVE",
"987 670 OFFCURVE",
"980 670 CURVE SMOOTH",
"973 670 LINE",
"919 670 LINE",
"918 668 LINE",
"917 668 OFFCURVE",
"916 668 OFFCURVE",
"915 667 CURVE SMOOTH",
"914 666 OFFCURVE",
"912 666 OFFCURVE",
"909 666 CURVE SMOOTH",
"908 666 OFFCURVE",
"908 666 OFFCURVE",
"908 667 CURVE SMOOTH",
"908 668 OFFCURVE",
"908 668 OFFCURVE",
"908 668 CURVE",
"908 669 OFFCURVE",
"907 670 OFFCURVE",
"905 670 CURVE SMOOTH",
"903 670 LINE",
"896 669 OFFCURVE",
"890 668 OFFCURVE",
"885 668 CURVE SMOOTH",
"880 668 OFFCURVE",
"876 668 OFFCURVE",
"871 667 CURVE SMOOTH",
"866 666 OFFCURVE",
"862 666 OFFCURVE",
"858 666 CURVE",
"853 659 OFFCURVE",
"850 649 OFFCURVE",
"848 638 CURVE",
"842 619 OFFCURVE",
"834 585 OFFCURVE",
"825 536 CURVE SMOOTH",
"821 515 LINE",
"820 506 OFFCURVE",
"817 492 OFFCURVE",
"813 473 CURVE",
"813 472 OFFCURVE",
"813 471 OFFCURVE",
"813 469 CURVE",
"812 467 OFFCURVE",
"812 464 OFFCURVE",
"811 461 CURVE",
"808 435 LINE",
"805 422 OFFCURVE",
"804 412 OFFCURVE",
"803 403 CURVE",
"798 371 LINE",
"794 346 LINE",
"793 335 LINE",
"793 326 LINE",
"792 325 OFFCURVE",
"791 323 OFFCURVE",
"790 320 CURVE",
"789 326 LINE",
"788 329 OFFCURVE",
"788 332 OFFCURVE",
"788 335 CURVE SMOOTH",
"788 336 OFFCURVE",
"788 337 OFFCURVE",
"787 339 CURVE",
"786 340 OFFCURVE",
"786 343 OFFCURVE",
"785 346 CURVE",
"784 355 OFFCURVE",
"783 364 OFFCURVE",
"783 371 CURVE",
"781 377 OFFCURVE",
"779 388 OFFCURVE",
"778 403 CURVE",
"775 418 OFFCURVE",
"774 428 OFFCURVE",
"773 435 CURVE",
"773 438 OFFCURVE",
"772 447 OFFCURVE",
"770 461 CURVE SMOOTH",
"768 473 LINE",
"762 499 OFFCURVE",
"756 531 OFFCURVE",
"751 569 CURVE SMOOTH",
"748 591 LINE",
"745 621 OFFCURVE",
"740 646 OFFCURVE",
"735 666 CURVE",
"733 669 OFFCURVE",
"727 670 OFFCURVE",
"716 670 CURVE SMOOTH",
"704 670 LINE",
"698 670 LINE SMOOTH",
"693 670 OFFCURVE",
"689 669 OFFCURVE",
"688 668 CURVE",
"687 668 OFFCURVE",
"685 668 OFFCURVE",
"684 667 CURVE SMOOTH",
"683 666 OFFCURVE",
"682 666 OFFCURVE",
"681 666 CURVE",
"680 667 OFFCURVE",
"677 668 OFFCURVE",
"671 668 CURVE SMOOTH",
"664 668 OFFCURVE",
"657 668 OFFCURVE",
"650 669 CURVE",
"634 669 OFFCURVE",
"620 669 OFFCURVE",
"608 670 CURVE",
"608 670 OFFCURVE",
"608 670 OFFCURVE",
"608 671 CURVE",
"607 671 OFFCURVE",
"606 671 OFFCURVE",
"605 671 CURVE",
"604 672 OFFCURVE",
"603 673 OFFCURVE",
"600 673 CURVE SMOOTH",
"600 673 OFFCURVE",
"600 673 OFFCURVE",
"600 673 CURVE",
"599 672 OFFCURVE",
"599 672 OFFCURVE",
"598 671 CURVE",
"595 671 LINE SMOOTH",
"587 671 OFFCURVE",
"580 671 OFFCURVE",
"574 672 CURVE",
"539 673 LINE",
"510 673 LINE",
"493 673 LINE SMOOTH",
"487 673 OFFCURVE",
"477 672 OFFCURVE",
"463 670 CURVE",
"461 669 OFFCURVE",
"458 669 OFFCURVE",
"455 668 CURVE",
"451 667 OFFCURVE",
"449 666 OFFCURVE",
"448 665 CURVE",
"440 661 OFFCURVE",
"437 653 OFFCURVE",
"436 645 CURVE",
"428 618 OFFCURVE",
"414 554 OFFCURVE",
"395 453 CURVE",
"394 443 LINE",
"394 440 OFFCURVE",
"393 431 OFFCURVE",
"390 423 CURVE",
"386 398 LINE",
"385 394 OFFCURVE",
"385 390 OFFCURVE",
"384 386 CURVE",
"383 381 OFFCURVE",
"382 377 OFFCURVE",
"381 373 CURVE SMOOTH",
"379 365 OFFCURVE",
"378 359 OFFCURVE",
"378 354 CURVE",
"377 350 OFFCURVE",
"376 347 OFFCURVE",
"376 345 CURVE",
"375 341 LINE",
"375 336 LINE",
"373 330 LINE",
"373 336 LINE",
"372 337 OFFCURVE",
"371 339 OFFCURVE",
"371 341 CURVE",
"370 345 LINE",
"368 354 LINE",
"368 357 OFFCURVE",
"368 361 OFFCURVE",
"367 364 CURVE",
"366 370 OFFCURVE",
"364 376 OFFCURVE",
"363 386 CURVE",
"362 391 OFFCURVE",
"361 395 OFFCURVE",
"360 398 CURVE",
"359 409 OFFCURVE",
"357 418 OFFCURVE",
"356 423 CURVE",
"353 443 LINE",
"353 446 OFFCURVE",
"353 448 OFFCURVE",
"352 450 CURVE",
"351 451 OFFCURVE",
"351 452 OFFCURVE",
"351 453 CURVE",
"345 485 LINE SMOOTH",
"342 500 OFFCURVE",
"340 513 OFFCURVE",
"338 523 CURVE",
"333 555 OFFCURVE",
"329 576 OFFCURVE",
"328 586 CURVE",
"320 622 OFFCURVE",
"313 654 OFFCURVE",
"306 666 CURVE",
"297 666 OFFCURVE",
"290 667 OFFCURVE",
"283 668 CURVE",
"262 668 OFFCURVE",
"247 668 OFFCURVE",
"240 669 CURVE SMOOTH",
"231 670 LINE",
"228 670 LINE SMOOTH",
"227 670 OFFCURVE",
"224 669 OFFCURVE",
"220 668 CURVE",
"219 668 OFFCURVE",
"218 668 OFFCURVE",
"217 667 CURVE SMOOTH",
"216 666 OFFCURVE",
"215 666 OFFCURVE",
"214 666 CURVE",
"213 668 LINE",
"213 668 OFFCURVE",
"213 668 OFFCURVE",
"212 668 CURVE SMOOTH",
"211 668 OFFCURVE",
"211 668 OFFCURVE",
"210 669 CURVE",
"204 670 LINE",
"161 670 LINE",
"153 670 LINE",
"108 671 LINE SMOOTH",
"96 671 OFFCURVE",
"88 672 OFFCURVE",
"83 673 CURVE",
"60 673 LINE",
"46 673 LINE SMOOTH",
"34 673 OFFCURVE",
"28 660 OFFCURVE",
"28 643 CURVE SMOOTH",
"28 610 OFFCURVE",
"31 585 OFFCURVE",
"38 580 CURVE",
"52 505 OFFCURVE",
"68 423 OFFCURVE",
"86 333 CURVE SMOOTH",
"156 16 LINE",
"156 11 OFFCURVE",
"159 7 OFFCURVE",
"166 5 CURVE",
"175 6 LINE",
"180 6 OFFCURVE",
"186 5 OFFCURVE",
"193 3 CURVE",
"198 1 OFFCURVE",
"204 0 OFFCURVE",
"209 0 CURVE SMOOTH",
"250 0 LINE",
"284 0 LINE",
"319 0 LINE",
"328 -1 OFFCURVE",
"344 -1 OFFCURVE",
"365 -1 CURVE SMOOTH"
);
}
);
width = 1130;
}
);
note = W;
unicode = 0057;
},
{
glyphname = X;
lastChange = "2017-06-15 14:17:40 +0000";
layers = (
{
layerId = "CBDECE4A-293B-4E5C-B714-A3FD26C7130D";
paths = (
{
closed = 1;
nodes = (
"119 31 OFFCURVE",
"230 -53 OFFCURVE",
"217 -57 CURVE",
"218 -57 OFFCURVE",
"220 -57 OFFCURVE",
"222 -56 CURVE",
"223 -56 OFFCURVE",
"223 -56 OFFCURVE",
"224 -56 CURVE",
"228 -57 LINE",
"233 -57 LINE",
"234 -58 LINE",
"260 -51 LINE",
"284 -26 LINE",
"426 137 LINE",
"459 170 LINE",
"462 170 OFFCURVE",
"464 168 OFFCURVE",
"466 165 CURVE",
"470 159 OFFCURVE",
"474 156 OFFCURVE",
"477 153 CURVE",
"489 126 OFFCURVE",
"534 71 OFFCURVE",
"588 5 CURVE",
"592 4 OFFCURVE",
"594 3 OFFCURVE",
"595 4 CURVE",
"596 4 OFFCURVE",
"596 4 OFFCURVE",
"597 4 CURVE SMOOTH",
"599 4 LINE SMOOTH",
"601 4 OFFCURVE",
"601 3 OFFCURVE",
"601 3 CURVE SMOOTH",
"598 -4 LINE",
"623 -37 LINE",
"622 -58 OFFCURVE",
"674 -31 OFFCURVE",
"699 -11 CURVE",
"698 -11 OFFCURVE",
"769 39 OFFCURVE",
"812 82 CURVE SMOOTH",
"817 87 LINE SMOOTH",
"823 92 OFFCURVE",
"827 91 OFFCURVE",
"828 95 CURVE SMOOTH",
"828 97 LINE",
"828 101 LINE SMOOTH",
"828 114 OFFCURVE",
"830 121 OFFCURVE",
"793 167 CURVE SMOOTH",
"731 243 LINE",
"723 250 LINE",
"722 251 OFFCURVE",
"721 254 OFFCURVE",
"720 257 CURVE SMOOTH",
"719 261 OFFCURVE",
"716 261 OFFCURVE",
"716 264 CURVE",
"715 267 OFFCURVE",
"711 271 OFFCURVE",
"704 280 CURVE",
"703 282 OFFCURVE",
"702 285 OFFCURVE",
"701 290 CURVE",
"697 293 OFFCURVE",
"695 295 OFFCURVE",
"693 297 CURVE",
"652 343 LINE",
"658 348 OFFCURVE",
"695 397 OFFCURVE",
"709 408 CURVE",
"718 415 OFFCURVE",
"725 422 OFFCURVE",
"736 434 CURVE",
"734 433 OFFCURVE",
"808 511 OFFCURVE",
"808 510 CURVE",
"814 515 OFFCURVE",
"819 526 OFFCURVE",
"825 530 CURVE",
"839 547 OFFCURVE",
"847 557 OFFCURVE",
"847 565 CURVE",
"828 594 OFFCURVE",
"788 620 OFFCURVE",
"757 644 CURVE",
"711 670 LINE",
"673 689 OFFCURVE",
"616 702 OFFCURVE",
"621 704 CURVE",
"617 704 OFFCURVE",
"614 702 OFFCURVE",
"608 696 CURVE",
"594 686 OFFCURVE",
"516 595 OFFCURVE",
"495 573 CURVE SMOOTH",
"448 523 LINE",
"439 512 LINE",
"432 502 OFFCURVE",
"422 498 OFFCURVE",
"419 497 CURVE",
"417 498 LINE",
"413 500 LINE",
"410 503 OFFCURVE",
"409 508 OFFCURVE",
"409 512 CURVE SMOOTH",
"409 513 OFFCURVE",
"408 513 OFFCURVE",
"406 515 CURVE",
"404 515 OFFCURVE",
"403 518 OFFCURVE",
"401 523 CURVE",
"358 569 OFFCURVE",
"269 669 OFFCURVE",
"248 693 CURVE",
"242 697 OFFCURVE",
"226 705 OFFCURVE",
"224 705 CURVE SMOOTH",
"190 702 LINE",
"149 678 OFFCURVE",
"134 657 OFFCURVE",
"93 634 CURVE SMOOTH",
"83 629 OFFCURVE",
"56 610 OFFCURVE",
"60 609 CURVE SMOOTH",
"68 607 OFFCURVE",
"64 612 OFFCURVE",
"52 605 CURVE",
"48 603 OFFCURVE",
"42 593 OFFCURVE",
"37 593 CURVE",
"35 575 OFFCURVE",
"24 561 OFFCURVE",
"39 542 CURVE",
"51 565 LINE",
"36 547 OFFCURVE",
"51 533 OFFCURVE",
"52 532 CURVE",
"53 529 OFFCURVE",
"63 521 OFFCURVE",
"69 514 CURVE SMOOTH",
"83 496 LINE SMOOTH",
"98 475 OFFCURVE",
"138 431 OFFCURVE",
"144 428 CURVE",
"158 402 OFFCURVE",
"188 379 OFFCURVE",
"224 329 CURVE",
"220 325 OFFCURVE",
"153 246 OFFCURVE",
"133 224 CURVE SMOOTH",
"110 200 LINE",
"62 143 LINE",
"49 124 OFFCURVE",
"27 109 OFFCURVE",
"27 106 CURVE SMOOTH",
"27 105 OFFCURVE",
"27 104 OFFCURVE",
"26 104 CURVE",
"25 96 LINE",
"26 94 OFFCURVE",
"28 92 OFFCURVE",
"33 92 CURVE SMOOTH",
"38 92 LINE",
"66 62 LINE",
"92 47 LINE SMOOTH"
);
}
);
width = 872;
}
);
note = X;
unicode = 0058;
},
{
glyphname = Y;
lastChange = "2017-06-14 19:44:58 +0000";
layers = (
{
layerId = "CBDECE4A-293B-4E5C-B714-A3FD26C7130D";
paths = (
{
closed = 1;
nodes = (
"480 -86 OFFCURVE",
"484 -85 OFFCURVE",
"485 -82 CURVE",
"522 -13 OFFCURVE",
"562 64 OFFCURVE",
"591 141 CURVE",
"592 142 OFFCURVE",
"593 143 OFFCURVE",
"594 143 CURVE",
"598 144 LINE",
"688 348 LINE",
"780 551 LINE",
"789 566 OFFCURVE",
"793 583 OFFCURVE",
"793 601 CURVE",
"770 630 OFFCURVE",
"698 668 OFFCURVE",
"630 688 CURVE SMOOTH",
"595 697 OFFCURVE",
"567 701 OFFCURVE",
"546 701 CURVE SMOOTH",
"529 701 OFFCURVE",
"524 694 OFFCURVE",
"519 670 CURVE",
"518 667 OFFCURVE",
"515 660 OFFCURVE",
"509 648 CURVE",
"497 621 OFFCURVE",
"487 596 OFFCURVE",
"478 575 CURVE",
"462 542 OFFCURVE",
"440 500 OFFCURVE",
"436 490 CURVE SMOOTH",
"421 453 OFFCURVE",
"397 400 OFFCURVE",
"395 400 CURVE SMOOTH",
"391 400 OFFCURVE",
"386 404 OFFCURVE",
"380 413 CURVE SMOOTH",
"368 431 OFFCURVE",
"316 545 OFFCURVE",
"281 603 CURVE SMOOTH",
"278 608 OFFCURVE",
"276 612 OFFCURVE",
"273 615 CURVE",
"266 623 LINE",
"265 624 LINE",
"262 627 OFFCURVE",
"253 640 OFFCURVE",
"250 648 CURVE",
"223 688 OFFCURVE",
"223 706 OFFCURVE",
"182 685 CURVE SMOOTH",
"174 681 LINE SMOOTH",
"171 680 OFFCURVE",
"167 679 OFFCURVE",
"163 678 CURVE SMOOTH",
"154 676 OFFCURVE",
"148 674 OFFCURVE",
"144 674 CURVE SMOOTH",
"141 674 OFFCURVE",
"138 673 OFFCURVE",
"135 671 CURVE",
"121 666 LINE",
"96 659 OFFCURVE",
"82 656 OFFCURVE",
"79 655 CURVE",
"75 653 OFFCURVE",
"69 650 OFFCURVE",
"61 646 CURVE SMOOTH",
"45 638 OFFCURVE",
"18 621 OFFCURVE",
"18 608 CURVE SMOOTH",
"18 596 OFFCURVE",
"44 529 OFFCURVE",
"61 493 CURVE",
"68 472 OFFCURVE",
"75 458 OFFCURVE",
"80 450 CURVE",
"97 414 OFFCURVE",
"120 374 OFFCURVE",
"148 330 CURVE",
"170 292 OFFCURVE",
"192 260 OFFCURVE",
"213 233 CURVE",
"213 232 OFFCURVE",
"214 230 OFFCURVE",
"215 229 CURVE",
"216 229 LINE",
"218 229 LINE",
"218 230 OFFCURVE",
"220 230 OFFCURVE",
"223 230 CURVE",
"223 221 OFFCURVE",
"228 211 OFFCURVE",
"238 201 CURVE SMOOTH",
"249 190 OFFCURVE",
"254 180 OFFCURVE",
"254 170 CURVE SMOOTH",
"254 164 OFFCURVE",
"253 157 OFFCURVE",
"250 150 CURVE",
"249 147 OFFCURVE",
"255 142 OFFCURVE",
"239 115 CURVE",
"233 107 OFFCURVE",
"229 101 OFFCURVE",
"228 97 CURVE",
"225 88 OFFCURVE",
"221 81 OFFCURVE",
"218 74 CURVE",
"214 67 OFFCURVE",
"211 62 OFFCURVE",
"209 57 CURVE SMOOTH",
"203 43 OFFCURVE",
"200 30 OFFCURVE",
"200 17 CURVE SMOOTH",
"200 13 OFFCURVE",
"203 9 OFFCURVE",
"208 5 CURVE",
"231 -9 LINE",
"236 -10 OFFCURVE",
"243 -13 OFFCURVE",
"252 -17 CURVE",
"272 -25 OFFCURVE",
"287 -31 OFFCURVE",
"298 -34 CURVE",
"309 -38 OFFCURVE",
"339 -49 OFFCURVE",
"350 -50 CURVE",
"354 -51 OFFCURVE",
"359 -52 OFFCURVE",
"365 -52 CURVE",
"367 -53 OFFCURVE",
"370 -54 OFFCURVE",
"373 -54 CURVE SMOOTH",
"378 -54 LINE",
"414 -65 OFFCURVE",
"433 -70 OFFCURVE",
"458 -74 CURVE",
"463 -80 LINE",
"463 -81 OFFCURVE",
"464 -82 OFFCURVE",
"466 -82 CURVE",
"469 -81 LINE",
"470 -80 OFFCURVE",
"471 -80 OFFCURVE",
"472 -80 CURVE SMOOTH",
"473 -80 OFFCURVE",
"473 -80 OFFCURVE",
"473 -80 CURVE",
"473 -86 LINE"
);
}
);
width = 819;
}
);
note = Y;
unicode = 0059;
},
{
glyphname = Z;
lastChange = "2017-06-14 19:46:25 +0000";
layers = (
{
layerId = "CBDECE4A-293B-4E5C-B714-A3FD26C7130D";
paths = (
{
closed = 1;
nodes = (
"589 0 OFFCURVE",
"603 1 OFFCURVE",
"611 3 CURVE",
"628 4 OFFCURVE",
"640 11 OFFCURVE",
"640 20 CURVE SMOOTH",
"640 23 LINE",
"640 184 LINE SMOOTH",
"640 193 OFFCURVE",
"627 204 OFFCURVE",
"615 204 CURVE SMOOTH",
"558 204 LINE",
"499 204 LINE",
"485 203 OFFCURVE",
"463 203 OFFCURVE",
"434 203 CURVE",
"521 294 OFFCURVE",
"580 363 OFFCURVE",
"609 408 CURVE",
"624 429 OFFCURVE",
"634 447 OFFCURVE",
"639 461 CURVE SMOOTH",
"644 476 OFFCURVE",
"646 487 OFFCURVE",
"646 493 CURVE SMOOTH",
"646 653 LINE SMOOTH",
"646 654 OFFCURVE",
"645 656 OFFCURVE",
"643 660 CURVE",
"640 662 OFFCURVE",
"635 665 OFFCURVE",
"626 668 CURVE",
"606 672 OFFCURVE",
"577 674 OFFCURVE",
"540 674 CURVE SMOOTH",
"395 673 LINE SMOOTH",
"364 673 OFFCURVE",
"316 671 OFFCURVE",
"253 671 CURVE SMOOTH",
"228 671 OFFCURVE",
"204 670 OFFCURVE",
"180 668 CURVE SMOOTH",
"155 666 OFFCURVE",
"130 665 OFFCURVE",
"106 665 CURVE",
"95 666 LINE",
"92 667 OFFCURVE",
"88 668 OFFCURVE",
"83 668 CURVE SMOOTH",
"75 668 OFFCURVE",
"68 665 OFFCURVE",
"63 660 CURVE SMOOTH",
"58 655 LINE",
"58 645 LINE",
"57 641 OFFCURVE",
"56 634 OFFCURVE",
"56 623 CURVE",
"55 612 OFFCURVE",
"54 596 OFFCURVE",
"54 584 CURVE SMOOTH",
"54 564 OFFCURVE",
"55 549 OFFCURVE",
"56 538 CURVE SMOOTH",
"61 487 OFFCURVE",
"70 463 OFFCURVE",
"93 463 CURVE SMOOTH",
"283 459 LINE SMOOTH",
"286 459 OFFCURVE",
"288 458 OFFCURVE",
"288 455 CURVE SMOOTH",
"288 451 OFFCURVE",
"285 445 OFFCURVE",
"278 436 CURVE",
"275 431 OFFCURVE",
"267 420 OFFCURVE",
"254 404 CURVE",
"247 396 OFFCURVE",
"217 364 OFFCURVE",
"184 333 CURVE",
"157 302 OFFCURVE",
"106 255 OFFCURVE",
"61 213 CURVE",
"61 28 LINE SMOOTH",
"61 17 OFFCURVE",
"75 3 OFFCURVE",
"88 3 CURVE SMOOTH",
"168 2 LINE",
"183 1 OFFCURVE",
"236 1 OFFCURVE",
"266 1 CURVE SMOOTH",
"297 1 OFFCURVE",
"327 0 OFFCURVE",
"395 0 CURVE SMOOTH",
"570 0 LINE SMOOTH"
);
}
);
width = 703;
}
);
note = Z;
unicode = 005A;
},
{
glyphname = a;
lastChange = "2017-06-11 23:28:21 +0000";
layers = (
{
layerId = "CBDECE4A-293B-4E5C-B714-A3FD26C7130D";
paths = (
{
closed = 1;
nodes = (
"89 -1 OFFCURVE",
"95 -1 OFFCURVE",
"99 0 CURVE",
"123 0 LINE SMOOTH",
"142 0 OFFCURVE",
"154 0 OFFCURVE",
"160 1 CURVE",
"168 1 LINE",
"248 1 LINE SMOOTH",
"249 1 OFFCURVE",
"250 1 OFFCURVE",
"252 2 CURVE",
"254 2 OFFCURVE",
"257 2 OFFCURVE",
"260 3 CURVE",
"288 3 LINE",
"326 5 LINE",
"327 5 OFFCURVE",
"328 4 OFFCURVE",
"331 3 CURVE",
"332 2 OFFCURVE",
"335 1 OFFCURVE",
"339 1 CURVE SMOOTH",
"341 1 LINE",
"341 1 OFFCURVE",
"342 1 OFFCURVE",
"343 2 CURVE",
"344 2 OFFCURVE",
"346 2 OFFCURVE",
"348 3 CURVE",
"354 5 LINE",
"362 18 OFFCURVE",
"374 71 OFFCURVE",
"375 78 CURVE SMOOTH",
"376 85 OFFCURVE",
"377 93 OFFCURVE",
"380 103 CURVE",
"405 103 LINE",
"431 103 LINE SMOOTH",
"449 103 OFFCURVE",
"465 104 OFFCURVE",
"479 106 CURVE",
"489 54 OFFCURVE",
"498 20 OFFCURVE",
"505 5 CURVE",
"516 5 OFFCURVE",
"529 4 OFFCURVE",
"545 3 CURVE",
"554 3 OFFCURVE",
"560 2 OFFCURVE",
"563 1 CURVE",
"570 1 LINE",
"573 1 LINE SMOOTH",
"574 1 OFFCURVE",
"575 2 OFFCURVE",
"575 3 CURVE",
"578 5 LINE",
"581 5 OFFCURVE",
"583 4 OFFCURVE",
"584 3 CURVE",
"585 1 LINE",
"640 1 LINE",
"641 0 OFFCURVE",
"643 0 OFFCURVE",
"648 0 CURVE SMOOTH",
"665 0 LINE",
"686 0 LINE",
"708 0 LINE",
"713 -1 OFFCURVE",
"719 -1 OFFCURVE",
"728 -1 CURVE SMOOTH",
"739 -1 LINE SMOOTH",
"745 -1 OFFCURVE",
"750 2 OFFCURVE",
"753 9 CURVE",
"754 17 OFFCURVE",
"755 23 OFFCURVE",
"755 28 CURVE SMOOTH",
"755 36 OFFCURVE",
"754 47 OFFCURVE",
"751 60 CURVE SMOOTH",
"749 69 OFFCURVE",
"748 76 OFFCURVE",
"748 79 CURVE",
"735 138 OFFCURVE",
"718 209 OFFCURVE",
"696 294 CURVE SMOOTH",
"625 558 LINE",
"625 561 OFFCURVE",
"623 565 OFFCURVE",
"618 568 CURVE",
"609 568 LINE SMOOTH",
"605 568 OFFCURVE",
"602 569 OFFCURVE",
"599 570 CURVE SMOOTH",
"596 571 OFFCURVE",
"592 573 OFFCURVE",
"588 573 CURVE SMOOTH",
"550 573 LINE SMOOTH",
"537 573 OFFCURVE",
"528 573 OFFCURVE",
"521 574 CURVE",
"493 574 LINE",
"481 575 OFFCURVE",
"469 575 OFFCURVE",
"456 575 CURVE SMOOTH",
"423 575 LINE",
"379 573 LINE",
"372 573 OFFCURVE",
"365 572 OFFCURVE",
"360 571 CURVE",
"308 570 LINE SMOOTH",
"295 570 OFFCURVE",
"283 571 OFFCURVE",
"271 573 CURVE",
"263 574 OFFCURVE",
"251 574 OFFCURVE",
"235 574 CURVE SMOOTH",
"225 574 OFFCURVE",
"218 574 OFFCURVE",
"214 573 CURVE",
"209 571 OFFCURVE",
"203 570 OFFCURVE",
"195 570 CURVE SMOOTH",
"188 570 LINE",
"184 567 OFFCURVE",
"179 563 OFFCURVE",
"179 560 CURVE",
"111 294 LINE SMOOTH",
"92 223 OFFCURVE",
"75 152 OFFCURVE",
"60 79 CURVE",
"60 77 OFFCURVE",
"60 75 OFFCURVE",
"59 72 CURVE SMOOTH",
"58 69 OFFCURVE",
"58 65 OFFCURVE",
"58 60 CURVE",
"55 50 OFFCURVE",
"53 41 OFFCURVE",
"53 33 CURVE",
"50 10 OFFCURVE",
"55 -1 OFFCURVE",
"68 -1 CURVE SMOOTH",
"80 -1 LINE SMOOTH"
);
},
{
closed = 1;
nodes = (
"466 213 OFFCURVE",
"462 214 OFFCURVE",
"458 215 CURVE SMOOTH",
"454 216 OFFCURVE",
"450 218 OFFCURVE",
"443 218 CURVE SMOOTH",
"440 218 LINE SMOOTH",
"439 218 OFFCURVE",
"435 215 OFFCURVE",
"434 214 CURVE",
"390 214 LINE",
"389 211 OFFCURVE",
"392 225 OFFCURVE",
"398 255 CURVE",
"399 267 OFFCURVE",
"401 276 OFFCURVE",
"402 281 CURVE",
"405 303 LINE",
"413 349 LINE",
"420 390 LINE SMOOTH",
"421 396 OFFCURVE",
"422 402 OFFCURVE",
"423 407 CURVE",
"424 417 OFFCURVE",
"426 424 OFFCURVE",
"427 428 CURVE",
"428 429 OFFCURVE",
"428 430 OFFCURVE",
"428 431 CURVE SMOOTH",
"428 434 LINE",
"428 438 LINE",
"428 438 OFFCURVE",
"429 440 OFFCURVE",
"430 444 CURVE",
"431 438 LINE",
"432 436 OFFCURVE",
"433 434 OFFCURVE",
"433 431 CURVE",
"435 419 LINE",
"436 416 OFFCURVE",
"437 412 OFFCURVE",
"438 406 CURVE SMOOTH",
"439 399 OFFCURVE",
"439 394 OFFCURVE",
"440 390 CURVE",
"441 384 OFFCURVE",
"443 378 OFFCURVE",
"444 371 CURVE SMOOTH",
"445 364 OFFCURVE",
"446 356 OFFCURVE",
"448 348 CURVE",
"449 341 OFFCURVE",
"450 334 OFFCURVE",
"451 327 CURVE SMOOTH",
"452 319 OFFCURVE",
"454 310 OFFCURVE",
"455 301 CURVE",
"463 253 LINE",
"464 249 OFFCURVE",
"466 236 OFFCURVE",
"470 213 CURVE"
);
}
);
width = 808;
}
);
note = a;
unicode = 0061;
},
{
glyphname = aogonek;
lastChange = "2017-06-11 23:28:21 +0000";
layers = (
{
layerId = "CBDECE4A-293B-4E5C-B714-A3FD26C7130D";
paths = (
{
closed = 1;
nodes = (
"746 -154 OFFCURVE",
"717 -160 OFFCURVE",
"690 -160 CURVE SMOOTH",
"681 -160 OFFCURVE",
"675 -160 OFFCURVE",
"670 -161 CURVE",
"662 -164 OFFCURVE",
"652 -159 OFFCURVE",
"649 -158 CURVE",
"634 -154 OFFCURVE",
"626 -146 OFFCURVE",
"626 -126 CURVE SMOOTH",
"626 -118 OFFCURVE",
"630 -106 OFFCURVE",
"639 -90 CURVE SMOOTH",
"652 -67 OFFCURVE",
"666 -49 OFFCURVE",
"685 -33 CURVE",
"716 -1 LINE",
"728 -1 LINE",
"739 -1 LINE SMOOTH",
"745 -1 OFFCURVE",
"750 2 OFFCURVE",
"753 9 CURVE",
"754 17 OFFCURVE",
"755 23 OFFCURVE",
"755 28 CURVE SMOOTH",
"755 36 OFFCURVE",
"754 47 OFFCURVE",
"751 60 CURVE SMOOTH",
"749 69 OFFCURVE",
"748 76 OFFCURVE",
"748 79 CURVE",
"735 138 OFFCURVE",
"718 209 OFFCURVE",
"696 294 CURVE SMOOTH",
"625 558 LINE",
"625 561 OFFCURVE",
"623 565 OFFCURVE",
"618 568 CURVE",
"609 568 LINE SMOOTH",
"605 568 OFFCURVE",
"602 569 OFFCURVE",
"599 570 CURVE SMOOTH",
"596 571 OFFCURVE",
"592 573 OFFCURVE",
"588 573 CURVE SMOOTH",
"550 573 LINE SMOOTH",
"537 573 OFFCURVE",
"528 573 OFFCURVE",
"521 574 CURVE",
"493 574 LINE",
"481 575 OFFCURVE",
"469 575 OFFCURVE",
"456 575 CURVE SMOOTH",
"423 575 LINE",
"379 573 LINE",
"372 573 OFFCURVE",
"365 572 OFFCURVE",
"360 571 CURVE",
"308 570 LINE SMOOTH",
"295 570 OFFCURVE",
"283 571 OFFCURVE",
"271 573 CURVE",
"263 574 OFFCURVE",
"251 574 OFFCURVE",
"235 574 CURVE SMOOTH",
"225 574 OFFCURVE",
"218 574 OFFCURVE",
"214 573 CURVE",
"209 571 OFFCURVE",
"203 570 OFFCURVE",
"195 570 CURVE SMOOTH",
"188 570 LINE",
"184 567 OFFCURVE",
"179 563 OFFCURVE",
"179 560 CURVE",
"111 294 LINE SMOOTH",
"92 223 OFFCURVE",
"75 152 OFFCURVE",
"60 79 CURVE",
"60 77 OFFCURVE",
"60 75 OFFCURVE",
"59 72 CURVE SMOOTH",
"58 69 OFFCURVE",
"58 65 OFFCURVE",
"58 60 CURVE",
"55 50 OFFCURVE",
"53 41 OFFCURVE",
"53 33 CURVE",
"50 10 OFFCURVE",
"55 -1 OFFCURVE",
"68 -1 CURVE SMOOTH",
"80 -1 LINE SMOOTH",
"89 -1 OFFCURVE",
"95 -1 OFFCURVE",
"99 0 CURVE",
"123 0 LINE SMOOTH",
"142 0 OFFCURVE",
"154 0 OFFCURVE",
"160 1 CURVE",
"168 1 LINE",
"248 1 LINE SMOOTH",
"249 1 OFFCURVE",
"250 1 OFFCURVE",
"252 2 CURVE",
"254 2 OFFCURVE",
"257 2 OFFCURVE",
"260 3 CURVE",
"288 3 LINE",
"326 5 LINE",
"327 5 OFFCURVE",
"328 4 OFFCURVE",
"331 3 CURVE",
"332 2 OFFCURVE",
"335 1 OFFCURVE",
"339 1 CURVE SMOOTH",
"341 1 LINE",
"341 1 OFFCURVE",
"342 1 OFFCURVE",
"343 2 CURVE",
"344 2 OFFCURVE",
"346 2 OFFCURVE",
"348 3 CURVE",
"354 5 LINE",
"362 18 OFFCURVE",
"374 71 OFFCURVE",
"375 78 CURVE SMOOTH",
"376 85 OFFCURVE",
"377 93 OFFCURVE",
"380 103 CURVE",
"405 103 LINE",
"431 103 LINE SMOOTH",
"449 103 OFFCURVE",
"465 104 OFFCURVE",
"479 106 CURVE",
"489 54 OFFCURVE",
"498 20 OFFCURVE",
"505 5 CURVE",
"516 5 OFFCURVE",
"529 4 OFFCURVE",
"545 3 CURVE",
"551 3 OFFCURVE",
"555 3 OFFCURVE",
"558 2 CURVE",
"539 -10 LINE SMOOTH",
"536 -12 OFFCURVE",
"530 -15 OFFCURVE",
"523 -19 CURVE",
"515 -24 OFFCURVE",
"509 -28 OFFCURVE",
"504 -33 CURVE",
"448 -70 OFFCURVE",
"421 -103 OFFCURVE",
"421 -163 CURVE SMOOTH",
"421 -175 OFFCURVE",
"423 -186 OFFCURVE",
"426 -195 CURVE",
"437 -220 OFFCURVE",
"460 -240 OFFCURVE",
"497 -253 CURVE SMOOTH",
"536 -268 OFFCURVE",
"591 -276 OFFCURVE",
"664 -276 CURVE",
"674 -274 LINE",
"676 -273 OFFCURVE",
"679 -273 OFFCURVE",
"682 -273 CURVE SMOOTH",
"685 -273 OFFCURVE",
"689 -272 OFFCURVE",
"694 -271 CURVE",
"705 -270 OFFCURVE",
"721 -265 OFFCURVE",
"741 -258 CURVE",
"754 -251 OFFCURVE",
"766 -245 OFFCURVE",
"767 -240 CURVE SMOOTH",
"784 -158 LINE",
"784 -153 LINE SMOOTH",
"784 -148 OFFCURVE",
"782 -145 OFFCURVE",
"777 -143 CURVE"
);
},
{
closed = 1;
nodes = (
"454 216 OFFCURVE",
"450 218 OFFCURVE",
"443 218 CURVE SMOOTH",
"440 218 LINE SMOOTH",
"439 218 OFFCURVE",
"435 215 OFFCURVE",
"434 214 CURVE",
"390 214 LINE",
"389 211 OFFCURVE",
"392 225 OFFCURVE",
"398 255 CURVE",
"399 267 OFFCURVE",
"401 276 OFFCURVE",
"402 281 CURVE",
"405 303 LINE",
"413 349 LINE",
"420 390 LINE SMOOTH",
"421 396 OFFCURVE",
"422 402 OFFCURVE",
"423 407 CURVE",
"424 417 OFFCURVE",
"426 424 OFFCURVE",
"427 428 CURVE",
"428 429 OFFCURVE",
"428 430 OFFCURVE",
"428 431 CURVE SMOOTH",
"428 434 LINE",
"428 438 LINE",
"428 438 OFFCURVE",
"429 440 OFFCURVE",
"430 444 CURVE",
"431 438 LINE",
"432 436 OFFCURVE",
"433 434 OFFCURVE",
"433 431 CURVE",
"435 419 LINE",
"436 416 OFFCURVE",
"437 412 OFFCURVE",
"438 406 CURVE SMOOTH",
"439 399 OFFCURVE",
"439 394 OFFCURVE",
"440 390 CURVE",
"441 384 OFFCURVE",
"443 378 OFFCURVE",
"444 371 CURVE SMOOTH",
"445 364 OFFCURVE",
"446 356 OFFCURVE",
"448 348 CURVE",
"449 341 OFFCURVE",
"450 334 OFFCURVE",
"451 327 CURVE SMOOTH",
"452 319 OFFCURVE",
"454 310 OFFCURVE",
"455 301 CURVE",
"463 253 LINE",
"464 249 OFFCURVE",
"466 236 OFFCURVE",
"470 213 CURVE",
"466 213 OFFCURVE",
"462 214 OFFCURVE",
"458 215 CURVE SMOOTH"
);
}
);
width = 808;
}
);
note = aogonek;
unicode = 0105;
},
{
glyphname = aringacute;
lastChange = "2017-06-11 23:28:21 +0000";
layers = (
{
layerId = "CBDECE4A-293B-4E5C-B714-A3FD26C7130D";
paths = (
{
closed = 1;
nodes = (
"648 802 OFFCURVE",
"650 802 OFFCURVE",
"651 803 CURVE",
"653 804 OFFCURVE",
"656 804 OFFCURVE",
"660 804 CURVE",
"663 803 OFFCURVE",
"666 803 OFFCURVE",
"668 803 CURVE SMOOTH",
"686 803 LINE",
"688 804 LINE",
"693 803 LINE",
"704 803 LINE",
"716 803 LINE SMOOTH",
"720 803 OFFCURVE",
"723 806 OFFCURVE",
"725 813 CURVE",
"734 830 OFFCURVE",
"741 846 OFFCURVE",
"745 861 CURVE",
"746 866 OFFCURVE",
"748 870 OFFCURVE",
"750 874 CURVE SMOOTH",
"752 878 OFFCURVE",
"753 882 OFFCURVE",
"754 885 CURVE",
"760 896 OFFCURVE",
"766 909 OFFCURVE",
"771 924 CURVE SMOOTH",
"772 927 OFFCURVE",
"774 933 OFFCURVE",
"777 941 CURVE",
"779 949 OFFCURVE",
"783 956 OFFCURVE",
"788 963 CURVE",
"789 964 OFFCURVE",
"790 966 OFFCURVE",
"791 969 CURVE SMOOTH",
"792 972 OFFCURVE",
"793 975 OFFCURVE",
"795 978 CURVE",
"803 993 LINE SMOOTH",
"808 1002 OFFCURVE",
"810 1008 OFFCURVE",
"811 1010 CURVE",
"813 1016 OFFCURVE",
"815 1022 OFFCURVE",
"818 1027 CURVE SMOOTH",
"821 1032 OFFCURVE",
"823 1035 OFFCURVE",
"824 1038 CURVE",
"831 1046 OFFCURVE",
"820 1051 OFFCURVE",
"803 1054 CURVE",
"801 1054 LINE",
"800 1053 OFFCURVE",
"799 1053 OFFCURVE",
"798 1053 CURVE",
"794 1055 LINE",
"768 1056 LINE",
"767 1056 OFFCURVE",
"767 1056 OFFCURVE",
"766 1057 CURVE SMOOTH",
"765 1058 OFFCURVE",
"764 1058 OFFCURVE",
"763 1058 CURVE SMOOTH",
"760 1058 LINE",
"753 1058 LINE",
"748 1058 LINE",
"743 1059 LINE",
"709 1058 LINE",
"669 1058 LINE",
"643 1053 LINE",
"638 1048 LINE",
"635 1033 OFFCURVE",
"631 1012 OFFCURVE",
"627 984 CURVE",
"626 969 OFFCURVE",
"624 959 OFFCURVE",
"623 953 CURVE",
"623 919 LINE SMOOTH",
"623 914 OFFCURVE",
"623 908 OFFCURVE",
"622 903 CURVE SMOOTH",
"621 898 OFFCURVE",
"621 892 OFFCURVE",
"621 886 CURVE SMOOTH",
"620 843 LINE SMOOTH",
"620 823 OFFCURVE",
"617 803 OFFCURVE",
"634 803 CURVE",
"645 802 LINE"
);
},
{
closed = 1;
nodes = (
"393 613 OFFCURVE",
"401 613 OFFCURVE",
"412 613 CURVE SMOOTH",
"434 613 OFFCURVE",
"459 613 OFFCURVE",
"483 620 CURVE SMOOTH",
"517 629 OFFCURVE",
"543 646 OFFCURVE",
"561 671 CURVE",
"565 673 LINE",
"589 708 OFFCURVE",
"603 753 OFFCURVE",
"603 794 CURVE SMOOTH",
"603 867 OFFCURVE",
"582 912 OFFCURVE",
"513 961 CURVE",
"481 978 OFFCURVE",
"459 981 OFFCURVE",
"386 981 CURVE SMOOTH",
"385 981 LINE SMOOTH",
"384 981 OFFCURVE",
"383 981 OFFCURVE",
"383 980 CURVE",
"378 981 OFFCURVE",
"370 981 OFFCURVE",
"361 981 CURVE SMOOTH",
"314 981 OFFCURVE",
"275 958 OFFCURVE",
"248 919 CURVE",
"220 883 OFFCURVE",
"205 836 OFFCURVE",
"205 789 CURVE SMOOTH",
"205 729 OFFCURVE",
"230 666 OFFCURVE",
"274 639 CURVE",
"312 620 OFFCURVE",
"350 611 OFFCURVE",
"388 613 CURVE"
);
},
{
closed = 1;
nodes = (
"367 726 OFFCURVE",
"336 744 OFFCURVE",
"336 768 CURVE SMOOTH",
"336 771 OFFCURVE",
"334 774 OFFCURVE",
"333 774 CURVE",
"333 780 LINE",
"333 785 LINE SMOOTH",
"333 818 OFFCURVE",
"340 843 OFFCURVE",
"355 859 CURVE SMOOTH",
"366 870 OFFCURVE",
"379 876 OFFCURVE",
"394 876 CURVE SMOOTH",
"410 876 OFFCURVE",
"423 875 OFFCURVE",
"433 873 CURVE",
"468 861 OFFCURVE",
"483 835 OFFCURVE",
"483 818 CURVE SMOOTH",
"483 814 LINE SMOOTH",
"483 806 OFFCURVE",
"477 770 OFFCURVE",
"453 746 CURVE",
"437 733 OFFCURVE",
"417 726 OFFCURVE",
"394 726 CURVE SMOOTH"
);
},
{
closed = 1;
nodes = (
"89 -1 OFFCURVE",
"95 -1 OFFCURVE",
"99 0 CURVE",
"123 0 LINE SMOOTH",
"142 0 OFFCURVE",
"154 0 OFFCURVE",
"160 1 CURVE",
"168 1 LINE",
"248 1 LINE SMOOTH",
"249 1 OFFCURVE",
"250 1 OFFCURVE",
"252 2 CURVE",
"254 2 OFFCURVE",
"257 2 OFFCURVE",
"260 3 CURVE",
"288 3 LINE",
"326 5 LINE",
"327 5 OFFCURVE",
"328 4 OFFCURVE",
"331 3 CURVE",
"332 2 OFFCURVE",
"335 1 OFFCURVE",
"339 1 CURVE SMOOTH",
"341 1 LINE",
"341 1 OFFCURVE",
"342 1 OFFCURVE",
"343 2 CURVE",
"344 2 OFFCURVE",
"346 2 OFFCURVE",
"348 3 CURVE",
"354 5 LINE",
"362 18 OFFCURVE",
"374 71 OFFCURVE",
"375 78 CURVE SMOOTH",
"376 85 OFFCURVE",
"377 93 OFFCURVE",
"380 103 CURVE",
"405 103 LINE",
"431 103 LINE SMOOTH",
"449 103 OFFCURVE",
"465 104 OFFCURVE",
"479 106 CURVE",
"489 54 OFFCURVE",
"498 20 OFFCURVE",
"505 5 CURVE",
"516 5 OFFCURVE",
"529 4 OFFCURVE",
"545 3 CURVE",
"554 3 OFFCURVE",
"560 2 OFFCURVE",
"563 1 CURVE",
"570 1 LINE",
"573 1 LINE SMOOTH",
"574 1 OFFCURVE",
"575 2 OFFCURVE",
"575 3 CURVE",
"578 5 LINE",
"581 5 OFFCURVE",
"583 4 OFFCURVE",
"584 3 CURVE",
"585 1 LINE",
"640 1 LINE",
"641 0 OFFCURVE",
"643 0 OFFCURVE",
"648 0 CURVE SMOOTH",
"665 0 LINE",
"686 0 LINE",
"708 0 LINE",
"713 -1 OFFCURVE",
"719 -1 OFFCURVE",
"728 -1 CURVE SMOOTH",
"739 -1 LINE SMOOTH",
"745 -1 OFFCURVE",
"750 2 OFFCURVE",
"753 9 CURVE",
"754 17 OFFCURVE",
"755 23 OFFCURVE",
"755 28 CURVE SMOOTH",
"755 36 OFFCURVE",
"754 47 OFFCURVE",
"751 60 CURVE SMOOTH",
"749 69 OFFCURVE",
"748 76 OFFCURVE",
"748 79 CURVE",
"735 138 OFFCURVE",
"718 209 OFFCURVE",
"696 294 CURVE SMOOTH",
"625 558 LINE",
"625 561 OFFCURVE",
"623 565 OFFCURVE",
"618 568 CURVE",
"609 568 LINE SMOOTH",
"605 568 OFFCURVE",
"602 569 OFFCURVE",
"599 570 CURVE SMOOTH",
"596 571 OFFCURVE",
"592 573 OFFCURVE",
"588 573 CURVE SMOOTH",
"550 573 LINE SMOOTH",
"537 573 OFFCURVE",
"528 573 OFFCURVE",
"521 574 CURVE",
"493 574 LINE",
"481 575 OFFCURVE",
"469 575 OFFCURVE",
"456 575 CURVE SMOOTH",
"423 575 LINE",
"379 573 LINE",
"372 573 OFFCURVE",
"365 572 OFFCURVE",
"360 571 CURVE",
"308 570 LINE SMOOTH",
"295 570 OFFCURVE",
"283 571 OFFCURVE",
"271 573 CURVE",
"263 574 OFFCURVE",
"251 574 OFFCURVE",
"235 574 CURVE SMOOTH",
"225 574 OFFCURVE",
"218 574 OFFCURVE",
"214 573 CURVE",
"209 571 OFFCURVE",
"203 570 OFFCURVE",
"195 570 CURVE SMOOTH",
"188 570 LINE",
"184 567 OFFCURVE",
"179 563 OFFCURVE",
"179 560 CURVE",
"111 294 LINE SMOOTH",
"92 223 OFFCURVE",
"75 152 OFFCURVE",
"60 79 CURVE",
"60 77 OFFCURVE",
"60 75 OFFCURVE",
"59 72 CURVE SMOOTH",
"58 69 OFFCURVE",
"58 65 OFFCURVE",
"58 60 CURVE",
"55 50 OFFCURVE",
"53 41 OFFCURVE",
"53 33 CURVE",
"50 10 OFFCURVE",
"55 -1 OFFCURVE",
"68 -1 CURVE SMOOTH",
"80 -1 LINE SMOOTH"
);
},
{
closed = 1;
nodes = (
"466 213 OFFCURVE",
"462 214 OFFCURVE",
"458 215 CURVE SMOOTH",
"454 216 OFFCURVE",
"450 218 OFFCURVE",
"443 218 CURVE SMOOTH",
"440 218 LINE SMOOTH",
"439 218 OFFCURVE",
"435 215 OFFCURVE",
"434 214 CURVE",
"390 214 LINE",
"389 211 OFFCURVE",
"392 225 OFFCURVE",
"398 255 CURVE",
"399 267 OFFCURVE",
"401 276 OFFCURVE",
"402 281 CURVE",
"405 303 LINE",
"413 349 LINE",
"420 390 LINE SMOOTH",
"421 396 OFFCURVE",
"422 402 OFFCURVE",
"423 407 CURVE",
"424 417 OFFCURVE",
"426 424 OFFCURVE",
"427 428 CURVE",
"428 429 OFFCURVE",
"428 430 OFFCURVE",
"428 431 CURVE SMOOTH",
"428 434 LINE",
"428 438 LINE",
"428 438 OFFCURVE",
"429 440 OFFCURVE",
"430 444 CURVE",
"431 438 LINE",
"432 436 OFFCURVE",
"433 434 OFFCURVE",
"433 431 CURVE",
"435 419 LINE",
"436 416 OFFCURVE",
"437 412 OFFCURVE",
"438 406 CURVE SMOOTH",
"439 399 OFFCURVE",
"439 394 OFFCURVE",
"440 390 CURVE",
"441 384 OFFCURVE",
"443 378 OFFCURVE",
"444 371 CURVE SMOOTH",
"445 364 OFFCURVE",
"446 356 OFFCURVE",
"448 348 CURVE",
"449 341 OFFCURVE",
"450 334 OFFCURVE",
"451 327 CURVE SMOOTH",
"452 319 OFFCURVE",
"454 310 OFFCURVE",
"455 301 CURVE",
"463 253 LINE",
"464 249 OFFCURVE",
"466 236 OFFCURVE",
"470 213 CURVE"
);
}
);
width = 808;
}
);
note = aringacute;
unicode = 01FB;
},
{
glyphname = ae;
lastChange = "2017-06-11 23:28:21 +0000";
layers = (
{
layerId = "CBDECE4A-293B-4E5C-B714-A3FD26C7130D";
paths = (
{
closed = 1;
nodes = (
"114 0 LINE",
"145 0 LINE SMOOTH",
"154 0 OFFCURVE",
"159 0 OFFCURVE",
"160 1 CURVE",
"221 1 LINE SMOOTH",
"222 1 OFFCURVE",
"223 1 OFFCURVE",
"225 2 CURVE",
"227 2 OFFCURVE",
"230 2 OFFCURVE",
"233 3 CURVE",
"260 3 LINE",
"300 5 LINE",
"305 3 LINE",
"306 2 OFFCURVE",
"308 1 OFFCURVE",
"313 1 CURVE SMOOTH",
"314 1 LINE SMOOTH",
"315 1 OFFCURVE",
"317 2 OFFCURVE",
"320 3 CURVE",
"328 5 LINE",
"338 18 OFFCURVE",
"355 50 OFFCURVE",
"378 103 CURVE",
"403 103 LINE",
"430 103 LINE SMOOTH",
"448 103 OFFCURVE",
"464 104 OFFCURVE",
"479 106 CURVE",
"477 82 OFFCURVE",
"476 61 OFFCURVE",
"476 43 CURVE SMOOTH",
"476 25 OFFCURVE",
"477 12 OFFCURVE",
"479 5 CURVE",
"487 5 OFFCURVE",
"500 4 OFFCURVE",
"519 3 CURVE",
"527 3 OFFCURVE",
"533 2 OFFCURVE",
"536 1 CURVE",
"543 1 LINE",
"546 1 LINE SMOOTH",
"547 1 OFFCURVE",
"548 2 OFFCURVE",
"549 3 CURVE SMOOTH",
"551 5 LINE",
"554 5 LINE",
"554 4 OFFCURVE",
"555 4 OFFCURVE",
"556 4 CURVE SMOOTH",
"558 4 LINE",
"558 1 LINE",
"613 1 LINE",
"614 0 OFFCURVE",
"616 0 OFFCURVE",
"621 0 CURVE SMOOTH",
"638 0 LINE",
"659 0 LINE",
"681 0 LINE",
"686 -1 OFFCURVE",
"692 -1 OFFCURVE",
"700 -1 CURVE SMOOTH",
"711 -1 LINE SMOOTH",
"761 -1 OFFCURVE",
"807 0 OFFCURVE",
"850 1 CURVE SMOOTH",
"886 3 LINE",
"895 3 OFFCURVE",
"907 4 OFFCURVE",
"923 5 CURVE SMOOTH",
"936 6 OFFCURVE",
"961 8 OFFCURVE",
"981 8 CURVE SMOOTH",
"984 8 LINE",
"991 8 LINE",
"998 15 LINE",
"999 23 LINE",
"999 26 LINE",
"999 46 LINE",
"998 57 OFFCURVE",
"994 70 OFFCURVE",
"993 75 CURVE",
"990 85 OFFCURVE",
"988 94 OFFCURVE",
"988 103 CURVE",
"987 106 OFFCURVE",
"986 108 OFFCURVE",
"986 111 CURVE SMOOTH",
"986 113 OFFCURVE",
"986 115 OFFCURVE",
"985 116 CURVE",
"982 126 OFFCURVE",
"980 131 OFFCURVE",
"978 131 CURVE SMOOTH",
"949 131 OFFCURVE",
"918 130 OFFCURVE",
"886 128 CURVE SMOOTH",
"855 126 OFFCURVE",
"825 125 OFFCURVE",
"794 125 CURVE",
"794 131 LINE",
"794 140 LINE",
"794 150 LINE",
"793 159 LINE",
"793 162 OFFCURVE",
"794 166 OFFCURVE",
"795 171 CURVE",
"796 193 LINE",
"795 200 LINE",
"795 204 LINE SMOOTH",
"795 211 OFFCURVE",
"796 217 OFFCURVE",
"799 220 CURVE",
"803 228 OFFCURVE",
"812 229 OFFCURVE",
"829 229 CURVE SMOOTH",
"858 229 LINE",
"903 229 LINE SMOOTH",
"932 229 OFFCURVE",
"952 230 OFFCURVE",
"963 233 CURVE",
"978 236 OFFCURVE",
"986 242 OFFCURVE",
"986 251 CURVE SMOOTH",
"986 254 LINE",
"984 320 LINE SMOOTH",
"983 339 OFFCURVE",
"971 349 OFFCURVE",
"960 348 CURVE",
"823 348 LINE SMOOTH",
"803 348 OFFCURVE",
"799 350 OFFCURVE",
"799 363 CURVE",
"800 383 LINE",
"805 412 OFFCURVE",
"808 430 OFFCURVE",
"809 436 CURVE",
"811 443 OFFCURVE",
"813 446 OFFCURVE",
"816 446 CURVE SMOOTH",
"838 446 LINE",
"845 445 OFFCURVE",
"855 445 OFFCURVE",
"869 445 CURVE SMOOTH",
"882 445 OFFCURVE",
"892 445 OFFCURVE",
"898 446 CURVE",
"919 446 OFFCURVE",
"934 450 OFFCURVE",
"941 451 CURVE",
"949 453 OFFCURVE",
"956 454 OFFCURVE",
"963 454 CURVE SMOOTH",
"967 454 OFFCURVE",
"970 454 OFFCURVE",
"973 453 CURVE",
"974 451 OFFCURVE",
"977 450 OFFCURVE",
"981 450 CURVE SMOOTH",
"986 450 OFFCURVE",
"990 451 OFFCURVE",
"994 453 CURVE",
"999 454 OFFCURVE",
"1003 455 OFFCURVE",
"1005 454 CURVE",
"1007 454 OFFCURVE",
"1008 454 OFFCURVE",
"1009 453 CURVE SMOOTH",
"1010 452 OFFCURVE",
"1011 452 OFFCURVE",
"1012 451 CURVE SMOOTH",
"1013 450 OFFCURVE",
"1013 450 OFFCURVE",
"1013 450 CURVE",
"1020 450 OFFCURVE",
"1023 459 OFFCURVE",
"1023 478 CURVE",
"1021 483 OFFCURVE",
"1019 494 OFFCURVE",
"1016 511 CURVE SMOOTH",
"1009 548 OFFCURVE",
"1008 558 OFFCURVE",
"1001 570 CURVE SMOOTH",
"998 575 OFFCURVE",
"993 578 OFFCURVE",
"988 578 CURVE SMOOTH",
"958 578 LINE",
"958 581 OFFCURVE",
"957 581 OFFCURVE",
"953 581 CURVE SMOOTH",
"923 581 OFFCURVE",
"891 580 OFFCURVE",
"858 578 CURVE SMOOTH",
"823 575 OFFCURVE",
"791 573 OFFCURVE",
"764 573 CURVE SMOOTH",
"738 573 OFFCURVE",
"713 574 OFFCURVE",
"689 576 CURVE SMOOTH",
"669 577 OFFCURVE",
"637 578 OFFCURVE",
"594 578 CURVE SMOOTH",
"573 578 OFFCURVE",
"558 577 OFFCURVE",
"549 575 CURVE",
"522 574 LINE",
"513 573 OFFCURVE",
"502 573 OFFCURVE",
"489 573 CURVE",
"473 571 OFFCURVE",
"451 570 OFFCURVE",
"424 570 CURVE SMOOTH",
"410 570 OFFCURVE",
"398 571 OFFCURVE",
"388 573 CURVE",
"379 574 OFFCURVE",
"368 574 OFFCURVE",
"353 574 CURVE SMOOTH",
"342 574 OFFCURVE",
"334 574 OFFCURVE",
"331 573 CURVE SMOOTH",
"325 571 OFFCURVE",
"318 570 OFFCURVE",
"311 570 CURVE SMOOTH",
"303 570 LINE",
"299 567 OFFCURVE",
"293 563 OFFCURVE",
"293 560 CURVE",
"168 294 LINE SMOOTH",
"149 256 OFFCURVE",
"124 199 OFFCURVE",
"92 123 CURVE SMOOTH",
"73 79 LINE",
"64 60 LINE",
"62 55 OFFCURVE",
"60 51 OFFCURVE",
"59 46 CURVE",
"55 37 OFFCURVE",
"50 21 OFFCURVE",
"50 13 CURVE SMOOTH",
"50 4 OFFCURVE",
"54 -1 OFFCURVE",
"61 -1 CURVE",
"81 0 LINE"
);
},
{
closed = 1;
nodes = (
"494 213 OFFCURVE",
"490 214 OFFCURVE",
"483 215 CURVE",
"475 217 OFFCURVE",
"470 218 OFFCURVE",
"469 218 CURVE SMOOTH",
"468 218 LINE SMOOTH",
"467 218 OFFCURVE",
"465 218 OFFCURVE",
"464 217 CURVE SMOOTH",
"463 216 OFFCURVE",
"461 215 OFFCURVE",
"460 214 CURVE",
"418 214 LINE",
"421 225 OFFCURVE",
"430 246 OFFCURVE",
"434 255 CURVE SMOOTH",
"459 314 LINE SMOOTH",
"461 319 OFFCURVE",
"463 325 OFFCURVE",
"466 331 CURVE",
"468 336 OFFCURVE",
"470 342 OFFCURVE",
"473 349 CURVE SMOOTH",
"489 386 OFFCURVE",
"499 410 OFFCURVE",
"503 419 CURVE",
"504 423 OFFCURVE",
"506 426 OFFCURVE",
"507 428 CURVE",
"508 429 OFFCURVE",
"508 430 OFFCURVE",
"508 431 CURVE",
"514 444 LINE",
"514 431 LINE SMOOTH",
"514 430 OFFCURVE",
"514 429 OFFCURVE",
"514 428 CURVE",
"513 426 OFFCURVE",
"513 423 OFFCURVE",
"513 419 CURVE SMOOTH",
"513 416 OFFCURVE",
"513 412 OFFCURVE",
"512 407 CURVE SMOOTH",
"511 402 OFFCURVE",
"511 396 OFFCURVE",
"510 390 CURVE",
"509 374 OFFCURVE",
"508 360 OFFCURVE",
"508 348 CURVE",
"504 327 OFFCURVE",
"502 296 OFFCURVE",
"499 253 CURVE",
"499 244 OFFCURVE",
"497 224 OFFCURVE",
"496 213 CURVE"
);
}
);
width = 1078;
}
);
note = ae;
unicode = 00E6;
},
{
glyphname = b;
lastChange = "2017-06-13 18:42:27 +0000";
layers = (
{
layerId = "CBDECE4A-293B-4E5C-B714-A3FD26C7130D";
paths = (
{
closed = 1;
nodes = (
"293 -17 OFFCURVE",
"323 -16 OFFCURVE",
"352 -11 CURVE SMOOTH",
"429 2 OFFCURVE",
"533 17 OFFCURVE",
"602 77 CURVE SMOOTH",
"638 108 OFFCURVE",
"658 137 OFFCURVE",
"657 167 CURVE SMOOTH",
"656 189 OFFCURVE",
"649 209 OFFCURVE",
"632 230 CURVE",
"608 252 OFFCURVE",
"577 271 OFFCURVE",
"540 286 CURVE",
"538 288 OFFCURVE",
"537 288 OFFCURVE",
"537 288 CURVE",
"537 289 OFFCURVE",
"537 289 OFFCURVE",
"537 290 CURVE",
"537 290 OFFCURVE",
"537 290 OFFCURVE",
"537 290 CURVE",
"540 294 OFFCURVE",
"543 297 OFFCURVE",
"546 297 CURVE",
"553 301 OFFCURVE",
"560 307 OFFCURVE",
"571 309 CURVE",
"573 309 OFFCURVE",
"574 310 OFFCURVE",
"577 312 CURVE SMOOTH",
"579 313 OFFCURVE",
"582 313 OFFCURVE",
"585 315 CURVE SMOOTH",
"623 340 OFFCURVE",
"642 373 OFFCURVE",
"642 420 CURVE SMOOTH",
"642 455 OFFCURVE",
"629 485 OFFCURVE",
"601 508 CURVE",
"559 540 OFFCURVE",
"496 551 OFFCURVE",
"411 562 CURVE SMOOTH",
"351 570 OFFCURVE",
"299 574 OFFCURVE",
"253 574 CURVE SMOOTH",
"246 574 OFFCURVE",
"234 574 OFFCURVE",
"216 573 CURVE",
"199 573 OFFCURVE",
"186 572 OFFCURVE",
"175 570 CURVE",
"156 570 OFFCURVE",
"144 569 OFFCURVE",
"134 569 CURVE SMOOTH",
"128 569 OFFCURVE",
"122 569 OFFCURVE",
"116 568 CURVE SMOOTH",
"110 567 OFFCURVE",
"105 568 OFFCURVE",
"99 568 CURVE SMOOTH",
"92 568 OFFCURVE",
"86 567 OFFCURVE",
"82 566 CURVE",
"74 561 OFFCURVE",
"70 552 OFFCURVE",
"69 543 CURVE",
"69 540 OFFCURVE",
"69 537 OFFCURVE",
"67 531 CURVE",
"65 522 OFFCURVE",
"64 508 OFFCURVE",
"64 489 CURVE SMOOTH",
"64 463 LINE",
"64 436 LINE SMOOTH",
"64 380 OFFCURVE",
"65 332 OFFCURVE",
"68 294 CURVE",
"69 244 LINE SMOOTH",
"70 202 OFFCURVE",
"70 171 OFFCURVE",
"70 151 CURVE SMOOTH",
"70 144 OFFCURVE",
"70 140 OFFCURVE",
"70 132 CURVE",
"70 111 OFFCURVE",
"69 95 OFFCURVE",
"68 84 CURVE",
"68 63 LINE SMOOTH",
"68 28 OFFCURVE",
"81 10 OFFCURVE",
"109 -4 CURVE",
"137 -13 OFFCURVE",
"180 -17 OFFCURVE",
"258 -17 CURVE SMOOTH"
);
},
{
closed = 1;
nodes = (
"352 351 OFFCURVE",
"348 353 OFFCURVE",
"348 356 CURVE SMOOTH",
"348 361 LINE SMOOTH",
"348 365 OFFCURVE",
"348 372 OFFCURVE",
"348 384 CURVE SMOOTH",
"348 409 OFFCURVE",
"352 437 OFFCURVE",
"392 437 CURVE SMOOTH",
"436 437 OFFCURVE",
"484 432 OFFCURVE",
"484 409 CURVE SMOOTH",
"484 406 OFFCURVE",
"484 403 OFFCURVE",
"481 403 CURVE",
"472 401 LINE",
"464 397 LINE",
"460 397 OFFCURVE",
"454 390 OFFCURVE",
"444 385 CURVE",
"435 380 OFFCURVE",
"426 375 OFFCURVE",
"418 372 CURVE",
"402 362 OFFCURVE",
"384 360 OFFCURVE",
"368 355 CURVE",
"364 353 OFFCURVE",
"360 351 OFFCURVE",
"358 351 CURVE SMOOTH"
);
},
{
closed = 1;
nodes = (
"339 130 OFFCURVE",
"336 131 OFFCURVE",
"336 136 CURVE SMOOTH",
"336 202 LINE SMOOTH",
"336 209 OFFCURVE",
"339 213 OFFCURVE",
"345 213 CURVE SMOOTH",
"364 213 OFFCURVE",
"387 212 OFFCURVE",
"415 212 CURVE",
"438 209 OFFCURVE",
"438 209 OFFCURVE",
"459 209 CURVE",
"469 207 OFFCURVE",
"477 205 OFFCURVE",
"475 194 CURVE",
"475 136 OFFCURVE",
"383 125 OFFCURVE",
"345 130 CURVE",
"345 130 OFFCURVE",
"345 130 OFFCURVE",
"345 130 CURVE SMOOTH",
"343 130 OFFCURVE",
"343 130 OFFCURVE",
"343 130 CURVE SMOOTH",
"342 130 LINE SMOOTH"
);
}
);
width = 703;
}
);
note = b;
unicode = 0062;
},
{
glyphname = c;
lastChange = "2017-06-13 18:43:01 +0000";
layers = (
{
layerId = "CBDECE4A-293B-4E5C-B714-A3FD26C7130D";
paths = (
{
closed = 1;
nodes = (
"417 -22 OFFCURVE",
"494 5 OFFCURVE",
"537 48 CURVE SMOOTH",
"539 50 OFFCURVE",
"540 51 OFFCURVE",
"540 54 CURVE SMOOTH",
"532 200 LINE",
"532 205 OFFCURVE",
"527 207 OFFCURVE",
"524 204 CURVE",
"482 177 OFFCURVE",
"446 149 OFFCURVE",
"413 149 CURVE SMOOTH",
"359 149 OFFCURVE",
"328 197 OFFCURVE",
"324 243 CURVE",
"322 251 OFFCURVE",
"321 264 OFFCURVE",
"321 282 CURVE SMOOTH",
"321 370 OFFCURVE",
"372 416 OFFCURVE",
"437 416 CURVE SMOOTH",
"454 416 OFFCURVE",
"471 413 OFFCURVE",
"489 409 CURVE SMOOTH",
"533 398 LINE SMOOTH",
"537 397 OFFCURVE",
"541 400 OFFCURVE",
"541 404 CURVE",
"555 530 LINE",
"555 533 OFFCURVE",
"554 535 OFFCURVE",
"552 537 CURVE",
"540 545 OFFCURVE",
"526 552 OFFCURVE",
"512 558 CURVE SMOOTH",
"497 565 OFFCURVE",
"486 569 OFFCURVE",
"482 571 CURVE",
"430 590 OFFCURVE",
"382 599 OFFCURVE",
"337 599 CURVE SMOOTH",
"326 599 LINE",
"315 598 LINE SMOOTH",
"215 589 OFFCURVE",
"134 536 OFFCURVE",
"86 442 CURVE SMOOTH",
"61 393 OFFCURVE",
"46 335 OFFCURVE",
"46 269 CURVE SMOOTH",
"46 213 OFFCURVE",
"54 165 OFFCURVE",
"69 125 CURVE",
"77 107 OFFCURVE",
"86 92 OFFCURVE",
"96 82 CURVE",
"108 62 OFFCURVE",
"124 44 OFFCURVE",
"143 27 CURVE",
"152 20 OFFCURVE",
"168 12 OFFCURVE",
"175 8 CURVE SMOOTH",
"225 -20 OFFCURVE",
"283 -22 OFFCURVE",
"359 -22 CURVE SMOOTH"
);
}
);
width = 594;
}
);
leftKerningGroup = c;
note = c;
unicode = 0063;
},
{
glyphname = ccedilla;
lastChange = "2017-06-11 23:28:21 +0000";
layers = (
{
layerId = "CBDECE4A-293B-4E5C-B714-A3FD26C7130D";
paths = (
{
closed = 1;
nodes = (
"462 441 OFFCURVE",
"508 429 OFFCURVE",
"513 428 CURVE SMOOTH",
"536 423 LINE",
"549 535 LINE",
"474 578 OFFCURVE",
"402 600 OFFCURVE",
"333 600 CURVE SMOOTH",
"250 600 OFFCURVE",
"178 570 OFFCURVE",
"125 514 CURVE SMOOTH",
"72 457 OFFCURVE",
"43 372 OFFCURVE",
"43 268 CURVE SMOOTH",
"43 97 OFFCURVE",
"107 20 OFFCURVE",
"208 -8 CURVE SMOOTH",
"215 -10 OFFCURVE",
"225 -12 OFFCURVE",
"238 -15 CURVE",
"228 -78 LINE",
"226 -118 LINE",
"239 -112 OFFCURVE",
"253 -109 OFFCURVE",
"268 -109 CURVE SMOOTH",
"307 -109 OFFCURVE",
"331 -128 OFFCURVE",
"331 -163 CURVE SMOOTH",
"331 -196 OFFCURVE",
"311 -229 OFFCURVE",
"266 -229 CURVE SMOOTH",
"241 -229 OFFCURVE",
"218 -224 OFFCURVE",
"197 -215 CURVE",
"196 -216 OFFCURVE",
"195 -219 OFFCURVE",
"193 -224 CURVE SMOOTH",
"191 -229 OFFCURVE",
"189 -236 OFFCURVE",
"186 -243 CURVE",
"176 -298 LINE",
"182 -305 OFFCURVE",
"191 -311 OFFCURVE",
"202 -315 CURVE SMOOTH",
"225 -324 OFFCURVE",
"246 -328 OFFCURVE",
"266 -328 CURVE SMOOTH",
"283 -328 LINE SMOOTH",
"452 -328 OFFCURVE",
"506 -261 OFFCURVE",
"506 -174 CURVE SMOOTH",
"506 -115 OFFCURVE",
"454 -65 OFFCURVE",
"341 -48 CURVE",
"346 -24 LINE",
"353 -24 LINE SMOOTH",
"386 -24 OFFCURVE",
"417 -17 OFFCURVE",
"448 -4 CURVE SMOOTH",
"482 9 OFFCURVE",
"511 26 OFFCURVE",
"534 48 CURVE",
"524 190 LINE",
"485 163 OFFCURVE",
"440 139 OFFCURVE",
"408 139 CURVE SMOOTH",
"385 139 OFFCURVE",
"367 149 OFFCURVE",
"354 170 CURVE",
"340 195 OFFCURVE",
"333 231 OFFCURVE",
"333 280 CURVE SMOOTH",
"333 399 OFFCURVE",
"370 441 OFFCURVE",
"433 441 CURVE SMOOTH"
);
}
);
width = 594;
}
);
leftKerningGroup = c;
note = ccedilla;
unicode = 00E7;
},
{
glyphname = d;
lastChange = "2017-06-11 23:28:21 +0000";
layers = (
{
layerId = "CBDECE4A-293B-4E5C-B714-A3FD26C7130D";
paths = (
{
closed = 1;
nodes = (
"472 0 OFFCURVE",
"564 22 OFFCURVE",
"623 73 CURVE SMOOTH",
"680 122 OFFCURVE",
"705 200 OFFCURVE",
"705 319 CURVE SMOOTH",
"705 385 OFFCURVE",
"692 439 OFFCURVE",
"665 480 CURVE SMOOTH",
"618 551 OFFCURVE",
"543 578 OFFCURVE",
"468 578 CURVE SMOOTH",
"413 578 OFFCURVE",
"374 577 OFFCURVE",
"351 576 CURVE SMOOTH",
"327 575 OFFCURVE",
"294 575 OFFCURVE",
"251 575 CURVE SMOOTH",
"222 575 OFFCURVE",
"198 575 OFFCURVE",
"179 576 CURVE",
"161 576 OFFCURVE",
"147 576 OFFCURVE",
"138 577 CURVE",
"80 578 LINE SMOOTH",
"71 578 OFFCURVE",
"58 564 OFFCURVE",
"58 555 CURVE SMOOTH",
"58 366 LINE",
"59 246 LINE SMOOTH",
"60 191 OFFCURVE",
"61 154 OFFCURVE",
"61 133 CURVE",
"62 110 OFFCURVE",
"63 84 OFFCURVE",
"63 54 CURVE SMOOTH",
"63 21 OFFCURVE",
"66 1 OFFCURVE",
"85 1 CURVE SMOOTH",
"147 1 OFFCURVE",
"191 1 OFFCURVE",
"216 0 CURVE",
"329 0 LINE SMOOTH"
);
},
{
closed = 1;
nodes = (
"342 292 LINE",
"343 299 OFFCURVE",
"343 310 OFFCURVE",
"343 323 CURVE SMOOTH",
"344 385 LINE SMOOTH",
"345 438 OFFCURVE",
"346 473 OFFCURVE",
"346 488 CURVE",
"353 491 LINE",
"362 494 OFFCURVE",
"369 496 OFFCURVE",
"375 496 CURVE SMOOTH",
"382 496 OFFCURVE",
"388 492 OFFCURVE",
"393 485 CURVE",
"409 452 OFFCURVE",
"414 401 OFFCURVE",
"414 354 CURVE SMOOTH",
"414 338 LINE SMOOTH",
"414 258 OFFCURVE",
"395 140 OFFCURVE",
"375 120 CURVE SMOOTH",
"373 118 OFFCURVE",
"370 116 OFFCURVE",
"365 115 CURVE SMOOTH",
"360 114 OFFCURVE",
"351 113 OFFCURVE",
"336 113 CURVE",
"341 261 LINE"
);
}
);
width = 751;
}
);
note = d;
unicode = 0064;
},
